{
copyright = "Copyright \U00A9 2019 IBM Corp. with Reserved Font Name \"Plex\"\012This Font Software is licensed under the SIL Open Font License, Version 1.1.\012This license is copied below, and is also available with a FAQ at: http://scripts.sil.org/OFL.";
customParameters = (
{
name = licenseURL;
value = "http://scripts.sil.org/OFL";
},
{
name = vendorID;
value = "";
},
{
name = glyphOrder;
value = (
    ".notdef",
    uni0000,
    uni000D,
    space,
    a,
    b,
    c,
    d,
    e,
    f,
    g,
    "g.alt02",
    h,
    i,
    j,
    k,
    l,
    m,
    n,
    o,
    p,
    q,
    r,
    s,
    t,
    u,
    v,
    w,
    x,
    y,
    z,
    A,
    B,
    C,
    D,
    E,
    F,
    G,
    H,
    I,
    J,
    K,
    L,
    M,
    N,
    O,
    P,
    Q,
    R,
    S,
    T,
    U,
    V,
    W,
    X,
    Y,
    Z,
    zero,
    one,
    two,
    three,
    four,
    five,
    six,
    seven,
    eight,
    nine,
    ampersand,
    at,
    hyphen,
    uni00AD,
    endash,
    emdash,
    underscore,
    period,
    ellipsis,
    colon,
    comma,
    semicolon,
    quotesingle,
    quotedbl,
    quoteleft,
    quoteright,
    quotedblleft,
    quotedblright,
    quotesinglbase,
    quotedblbase,
    guilsinglleft,
    guilsinglright,
    guillemotleft,
    guillemotright,
    exclamdown,
    exclam,
    questiondown,
    question,
    parenleft,
    parenright,
    bracketleft,
    bracketright,
    braceleft,
    braceright,
    slash,
    backslash,
    fraction,
    percent,
    perthousand,
    bar,
    brokenbar,
    section,
    paragraph,
    copyright,
    registered,
    trademark,
    ordfeminine,
    ordmasculine,
    degree,
    asterisk,
    dagger,
    daggerdbl,
    numbersign,
    asciicircum,
    asciitilde,
    plus,
    minus,
    plusminus,
    multiply,
    divide,
    equal,
    approxequal,
    notequal,
    less,
    greater,
    lessequal,
    greaterequal,
    periodcentered,
    bullet,
    lozenge,
    logicalnot,

glyphs = (
{
glyphname = .notdef;
layers = (
{
layerId = "FA36DF9C-9258-4115-A391-0F6A4D75F819";
name = "Light Italic";
paths = (
{
closed = 1;
nodes = (
"32 0 LINE",
"32 780 LINE",
"440 780 LINE",
"440 0 LINE"
);
},
{
closed = 1;
nodes = (
"75 43 LINE",
"397 43 LINE",
"397 737 LINE",
"75 737 LINE"
);
}
);
width = 472;
}
);
},
{
glyphname = a;
layers = (
{
layerId = "FA36DF9C-9258-4115-A391-0F6A4D75F819";
name = "Light Italic";
paths = (
{
closed = 1;
nodes = (
"428 0 LINE SMOOTH",
"393 0 OFFCURVE",
"378 18 OFFCURVE",
"378 45 CURVE SMOOTH",
"378 52 OFFCURVE",
"379 61 OFFCURVE",
"381 70 CURVE SMOOTH",
"389 112 LINE",
"386 112 LINE",
"343 29 OFFCURVE",
"294 -12 OFFCURVE",
"214 -12 CURVE SMOOTH",
"165 -12 OFFCURVE",
"125 8 OFFCURVE",
"98 41 CURVE SMOOTH",
"70 74 OFFCURVE",
"55 122 OFFCURVE",
"55 181 CURVE SMOOTH",
"55 264 OFFCURVE",
"76 350 OFFCURVE",
"118 415 CURVE SMOOTH",
"160 479 OFFCURVE",
"222 524 OFFCURVE",
"305 524 CURVE SMOOTH",
"377 524 OFFCURVE",
"432 489 OFFCURVE",
"449 425 CURVE",
"452 425 LINE",
"469 512 LINE",
"524 512 LINE",
"432 49 LINE",
"510 49 LINE",
"500 0 LINE"
);
},
{
closed = 1;
nodes = (
"270 38 OFFCURVE",
"303 54 OFFCURVE",
"335 85 CURVE",
"371 117 OFFCURVE",
"400 162 OFFCURVE",
"411 222 CURVE SMOOTH",
"435 341 LINE SMOOTH",
"442 373 OFFCURVE",
"436 407 OFFCURVE",
"416 432 CURVE SMOOTH",
"396 457 OFFCURVE",
"361 474 OFFCURVE",
"310 474 CURVE SMOOTH",
"214 474 OFFCURVE",
"151 407 OFFCURVE",
"128 294 CURVE SMOOTH",
"116 234 LINE",
"113 215 OFFCURVE",
"111 198 OFFCURVE",
"111 175 CURVE SMOOTH",
"111 136 OFFCURVE",
"119 102 OFFCURVE",
"139 78 CURVE",
"158 53 OFFCURVE",
"187 38 OFFCURVE",
"227 38 CURVE SMOOTH"
);
}
);
width = 577;
}
);
leftKerningGroup = a;
rightKerningGroup = a;
unicode = 0061;
},
{
glyphname = b;
layers = (
{
layerId = "FA36DF9C-9258-4115-A391-0F6A4D75F819";
name = "Light Italic";
paths = (
{
closed = 1;
nodes = (
"191 740 LINE",
"246 740 LINE",
"178 400 LINE",
"181 400 LINE",
"224 483 OFFCURVE",
"273 524 OFFCURVE",
"353 524 CURVE SMOOTH",
"402 524 OFFCURVE",
"442 504 OFFCURVE",
"470 471 CURVE SMOOTH",
"497 438 OFFCURVE",
"512 388 OFFCURVE",
"512 331 CURVE SMOOTH",
"512 248 OFFCURVE",
"492 162 OFFCURVE",
"450 98 CURVE SMOOTH",
"408 33 OFFCURVE",
"345 -12 OFFCURVE",
"262 -12 CURVE SMOOTH",
"190 -12 OFFCURVE",
"135 23 OFFCURVE",
"118 87 CURVE",
"115 87 LINE",
"98 0 LINE",
"43 0 LINE"
);
},
{
closed = 1;
nodes = (
"353 38 OFFCURVE",
"416 105 OFFCURVE",
"439 218 CURVE SMOOTH",
"451 278 LINE",
"454 297 OFFCURVE",
"456 314 OFFCURVE",
"456 337 CURVE SMOOTH",
"456 376 OFFCURVE",
"448 410 OFFCURVE",
"429 435 CURVE",
"409 459 OFFCURVE",
"380 474 OFFCURVE",
"340 474 CURVE SMOOTH",
"297 474 OFFCURVE",
"264 458 OFFCURVE",
"232 427 CURVE",
"196 395 OFFCURVE",
"167 350 OFFCURVE",
"156 290 CURVE SMOOTH",
"132 171 LINE SMOOTH",
"125 139 OFFCURVE",
"131 105 OFFCURVE",
"151 80 CURVE SMOOTH",
"171 55 OFFCURVE",
"206 38 OFFCURVE",
"257 38 CURVE SMOOTH"
);
}
);
width = 565;
}
);
leftKerningGroup = b;
rightKerningGroup = b;
unicode = 0062;
},
{
glyphname = c;
layers = (
{
layerId = "FA36DF9C-9258-4115-A391-0F6A4D75F819";
name = "Light Italic";
paths = (
{
closed = 1;
nodes = (
"174 -12 OFFCURVE",
"130 9 OFFCURVE",
"100 45 CURVE SMOOTH",
"70 81 OFFCURVE",
"54 133 OFFCURVE",
"54 194 CURVE SMOOTH",
"54 285 OFFCURVE",
"78 367 OFFCURVE",
"120 427 CURVE SMOOTH",
"162 487 OFFCURVE",
"223 524 OFFCURVE",
"302 524 CURVE SMOOTH",
"389 524 OFFCURVE",
"447 476 OFFCURVE",
"464 405 CURVE",
"418 386 LINE",
"401 445 OFFCURVE",
"362 475 OFFCURVE",
"300 475 CURVE SMOOTH",
"209 475 OFFCURVE",
"147 410 OFFCURVE",
"127 306 CURVE SMOOTH",
"113 236 LINE",
"110 217 OFFCURVE",
"108 201 OFFCURVE",
"108 184 CURVE SMOOTH",
"108 100 OFFCURVE",
"149 37 OFFCURVE",
"236 37 CURVE SMOOTH",
"297 37 OFFCURVE",
"344 69 OFFCURVE",
"387 144 CURVE",
"431 123 LINE",
"386 39 OFFCURVE",
"319 -12 OFFCURVE",
"231 -12 CURVE SMOOTH"
);
}
);
width = 484;
}
);
leftKerningGroup = c;
rightKerningGroup = c;
unicode = 0063;
},
{
glyphname = d;
layers = (
{
layerId = "FA36DF9C-9258-4115-A391-0F6A4D75F819";
name = "Light Italic";
paths = (
{
closed = 1;
nodes = (
"428 0 LINE SMOOTH",
"393 0 OFFCURVE",
"378 18 OFFCURVE",
"378 45 CURVE SMOOTH",
"378 52 OFFCURVE",
"379 60 OFFCURVE",
"381 70 CURVE SMOOTH",
"389 112 LINE",
"386 112 LINE",
"343 29 OFFCURVE",
"294 -12 OFFCURVE",
"214 -12 CURVE SMOOTH",
"165 -12 OFFCURVE",
"125 8 OFFCURVE",
"98 41 CURVE SMOOTH",
"70 74 OFFCURVE",
"55 122 OFFCURVE",
"55 181 CURVE SMOOTH",
"55 264 OFFCURVE",
"76 350 OFFCURVE",
"118 415 CURVE SMOOTH",
"160 479 OFFCURVE",
"222 524 OFFCURVE",
"305 524 CURVE SMOOTH",
"377 524 OFFCURVE",
"432 489 OFFCURVE",
"449 425 CURVE",
"452 425 LINE",
"515 740 LINE",
"570 740 LINE",
"432 49 LINE",
"510 49 LINE",
"500 0 LINE"
);
},
{
closed = 1;
nodes = (
"270 38 OFFCURVE",
"303 54 OFFCURVE",
"335 85 CURVE",
"371 117 OFFCURVE",
"400 162 OFFCURVE",
"411 222 CURVE SMOOTH",
"435 341 LINE SMOOTH",
"442 373 OFFCURVE",
"436 407 OFFCURVE",
"416 432 CURVE SMOOTH",
"396 457 OFFCURVE",
"361 474 OFFCURVE",
"310 474 CURVE SMOOTH",
"214 474 OFFCURVE",
"151 407 OFFCURVE",
"128 294 CURVE SMOOTH",
"116 234 LINE",
"113 215 OFFCURVE",
"111 198 OFFCURVE",
"111 175 CURVE SMOOTH",
"111 136 OFFCURVE",
"119 102 OFFCURVE",
"139 78 CURVE",
"158 53 OFFCURVE",
"187 38 OFFCURVE",
"227 38 CURVE SMOOTH"
);
}
);
width = 577;
}
);
leftKerningGroup = a;
rightKerningGroup = d;
unicode = 0064;
},
{
glyphname = e;
layers = (
{
layerId = "FA36DF9C-9258-4115-A391-0F6A4D75F819";
name = "Light Italic";
paths = (
{
closed = 1;
nodes = (
"120 -12 OFFCURVE",
"53 58 OFFCURVE",
"53 197 CURVE SMOOTH",
"53 285 OFFCURVE",
"80 367 OFFCURVE",
"125 427 CURVE SMOOTH",
"170 486 OFFCURVE",
"235 524 OFFCURVE",
"314 524 CURVE SMOOTH",
"359 524 OFFCURVE",
"400 513 OFFCURVE",
"429 491 CURVE SMOOTH",
"458 469 OFFCURVE",
"477 435 OFFCURVE",
"477 392 CURVE SMOOTH",
"477 345 OFFCURVE",
"455 304 OFFCURVE",
"399 275 CURVE SMOOTH",
"342 246 OFFCURVE",
"251 227 OFFCURVE",
"112 226 CURVE",
"109 213 OFFCURVE",
"109 194 OFFCURVE",
"109 183 CURVE SMOOTH",
"109 87 OFFCURVE",
"154 37 OFFCURVE",
"243 37 CURVE SMOOTH",
"315 37 OFFCURVE",
"373 76 OFFCURVE",
"413 136 CURVE",
"451 106 LINE",
"391 21 OFFCURVE",
"319 -12 OFFCURVE",
"240 -12 CURVE SMOOTH"
);
},
{
closed = 1;
nodes = (
"215 476 OFFCURVE",
"147 402 OFFCURVE",
"124 294 CURVE SMOOTH",
"119 270 LINE",
"244 274 OFFCURVE",
"320 287 OFFCURVE",
"364 308 CURVE SMOOTH",
"408 329 OFFCURVE",
"420 358 OFFCURVE",
"420 393 CURVE SMOOTH",
"420 450 OFFCURVE",
"376 476 OFFCURVE",
"308 476 CURVE SMOOTH"
);
}
);
width = 508;
}
);
leftKerningGroup = c;
rightKerningGroup = e;
unicode = 0065;
},
{
glyphname = f;
layers = (
{
layerId = "FA36DF9C-9258-4115-A391-0F6A4D75F819";
name = "Light Italic";
paths = (
{
closed = 1;
nodes = (
"96 -118 LINE SMOOTH",
"85 -170 OFFCURVE",
"63 -200 OFFCURVE",
"4 -200 CURVE SMOOTH",
"-70 -200 LINE",
"-60 -151 LINE",
"33 -151 LINE",
"157 463 LINE",
"66 463 LINE",
"75 512 LINE",
"166 512 LINE",
"195 658 LINE SMOOTH",
"206 710 OFFCURVE",
"227 740 OFFCURVE",
"287 740 CURVE SMOOTH",
"372 740 LINE",
"362 691 LINE",
"257 691 LINE",
"221 512 LINE",
"324 512 LINE",
"314 463 LINE",
"212 463 LINE"
);
}
);
width = 297;
}
);
leftKerningGroup = f;
rightKerningGroup = f;
unicode = 0066;
},
{
glyphname = g;
lastChange = "2018-11-07 04:58:34 +0000";
layers = (
{
layerId = "FA36DF9C-9258-4115-A391-0F6A4D75F819";
name = "Light Italic";
paths = (
{
closed = 1;
nodes = (
"293 -12 OFFCURVE",
"344 30 OFFCURVE",
"386 112 CURVE",
"389 112 LINE",
"367 -4 LINE SMOOTH",
"346 -114 OFFCURVE",
"283 -163 OFFCURVE",
"189 -163 CURVE SMOOTH",
"124 -163 OFFCURVE",
"80 -139 OFFCURVE",
"52 -97 CURVE",
"12 -132 LINE",
"46 -179 OFFCURVE",
"103 -212 OFFCURVE",
"189 -212 CURVE SMOOTH",
"316 -212 OFFCURVE",
"394 -143 OFFCURVE",
"420 -12 CURVE SMOOTH",
"525 512 LINE",
"470 512 LINE",
"452 425 LINE",
"449 425 LINE",
"432 488 OFFCURVE",
"376 524 OFFCURVE",
"305 524 CURVE SMOOTH",
"139 524 OFFCURVE",
"55 346 OFFCURVE",
"55 181 CURVE SMOOTH",
"55 65 OFFCURVE",
"116 -12 OFFCURVE",
"214 -12 CURVE SMOOTH"
);
},
{
closed = 1;
nodes = (
"146 38 OFFCURVE",
"111 98 OFFCURVE",
"111 175 CURVE SMOOTH",
"111 197 OFFCURVE",
"113 215 OFFCURVE",
"116 234 CURVE",
"128 294 LINE SMOOTH",
"151 406 OFFCURVE",
"214 474 OFFCURVE",
"310 474 CURVE SMOOTH",
"412 474 OFFCURVE",
"448 406 OFFCURVE",
"435 341 CURVE SMOOTH",
"411 222 LINE SMOOTH",
"400 163 OFFCURVE",
"371 117 OFFCURVE",
"335 85 CURVE SMOOTH",
"303 55 OFFCURVE",
"270 38 OFFCURVE",
"227 38 CURVE SMOOTH"
);
}
);
width = 558;
}
);
leftKerningGroup = g;
rightKerningGroup = g;
unicode = 0067;
},
{
glyphname = h;
layers = (
{
layerId = "FA36DF9C-9258-4115-A391-0F6A4D75F819";
name = "Light Italic";
paths = (
{
closed = 1;
nodes = (
"191 740 LINE",
"246 740 LINE",
"180 409 LINE",
"184 409 LINE",
"221 486 OFFCURVE",
"271 524 OFFCURVE",
"350 524 CURVE SMOOTH",
"438 524 OFFCURVE",
"482 473 OFFCURVE",
"482 385 CURVE SMOOTH",
"482 366 OFFCURVE",
"480 342 OFFCURVE",
"475 319 CURVE SMOOTH",
"421 49 LINE",
"499 49 LINE",
"490 0 LINE",
"415 0 LINE SMOOTH",
"386 0 OFFCURVE",
"367 12 OFFCURVE",
"367 43 CURVE SMOOTH",
"367 46 OFFCURVE",
"367 49 OFFCURVE",
"367 52 CURVE SMOOTH",
"367 54 OFFCURVE",
"368 57 OFFCURVE",
"369 62 CURVE SMOOTH",
"420 319 LINE SMOOTH",
"424 340 OFFCURVE",
"426 363 OFFCURVE",
"426 376 CURVE SMOOTH",
"426 441 OFFCURVE",
"395 474 OFFCURVE",
"333 474 CURVE SMOOTH",
"293 474 OFFCURVE",
"256 460 OFFCURVE",
"223 425 CURVE SMOOTH",
"194 394 OFFCURVE",
"168 346 OFFCURVE",
"157 297 CURVE SMOOTH",
"98 0 LINE",
"43 0 LINE"
);
}
);
width = 558;
}
);
leftKerningGroup = b;
rightKerningGroup = h;
unicode = 0068;
},
{
glyphname = i;
layers = (
{
layerId = "FA36DF9C-9258-4115-A391-0F6A4D75F819";
name = "Light Italic";
paths = (
{
closed = 1;
nodes = (
"179 651 OFFCURVE",
"170 664 OFFCURVE",
"170 679 CURVE SMOOTH",
"170 681 OFFCURVE",
"170 683 OFFCURVE",
"171 686 CURVE",
"171 689 OFFCURVE",
"172 694 OFFCURVE",
"173 701 CURVE",
"177 722 OFFCURVE",
"191 733 OFFCURVE",
"216 733 CURVE SMOOTH",
"241 733 OFFCURVE",
"250 720 OFFCURVE",
"250 705 CURVE SMOOTH",
"250 703 OFFCURVE",
"250 701 OFFCURVE",
"250 698 CURVE",
"249 695 OFFCURVE",
"248 690 OFFCURVE",
"247 683 CURVE",
"243 662 OFFCURVE",
"229 651 OFFCURVE",
"204 651 CURVE SMOOTH"
);
},
{
closed = 1;
nodes = (
"105 0 LINE SMOOTH",
"70 0 OFFCURVE",
"54 18 OFFCURVE",
"54 46 CURVE SMOOTH",
"54 49 OFFCURVE",
"54 52 OFFCURVE",
"54 55 CURVE SMOOTH",
"54 58 OFFCURVE",
"55 61 OFFCURVE",
"56 66 CURVE SMOOTH",
"146 512 LINE",
"201 512 LINE",
"108 49 LINE",
"186 49 LINE",
"176 0 LINE"
);
}
);
width = 254;
}
);
leftKerningGroup = i;
rightKerningGroup = i;
unicode = 0069;
},
{
glyphname = j;
layers = (
{
layerId = "FA36DF9C-9258-4115-A391-0F6A4D75F819";
name = "Light Italic";
paths = (
{
closed = 1;
nodes = (
"145 512 LINE",
"200 512 LINE",
"73 -125 LINE SMOOTH",
"62 -178 OFFCURVE",
"41 -200 OFFCURVE",
"-12 -200 CURVE SMOOTH",
"-81 -200 LINE",
"-71 -151 LINE",
"13 -151 LINE"
);
},
{
closed = 1;
nodes = (
"179 651 OFFCURVE",
"170 664 OFFCURVE",
"170 679 CURVE SMOOTH",
"170 681 OFFCURVE",
"170 683 OFFCURVE",
"171 686 CURVE",
"171 689 OFFCURVE",
"172 694 OFFCURVE",
"173 701 CURVE",
"177 722 OFFCURVE",
"192 733 OFFCURVE",
"217 733 CURVE SMOOTH",
"241 733 OFFCURVE",
"250 720 OFFCURVE",
"250 705 CURVE SMOOTH",
"250 703 OFFCURVE",
"250 701 OFFCURVE",
"250 698 CURVE",
"249 695 OFFCURVE",
"248 690 OFFCURVE",
"247 683 CURVE",
"243 662 OFFCURVE",
"228 651 OFFCURVE",
"203 651 CURVE SMOOTH"
);
}
);
width = 244;
}
);
leftKerningGroup = j;
rightKerningGroup = j;
unicode = 006A;
},
{
glyphname = k;
layers = (
{
layerId = "FA36DF9C-9258-4115-A391-0F6A4D75F819";
name = "Light Italic";
paths = (
{
closed = 1;
nodes = (
"191 740 LINE",
"246 740 LINE",
"149 254 LINE",
"153 254 LINE",
"253 344 LINE",
"444 512 LINE",
"512 512 LINE",
"277 302 LINE",
"396 49 LINE",
"459 49 LINE",
"449 0 LINE",
"403 0 LINE SMOOTH",
"368 0 OFFCURVE",
"353 10 OFFCURVE",
"340 41 CURVE",
"233 270 LINE",
"135 184 LINE",
"98 0 LINE",
"43 0 LINE"
);
}
);
width = 503;
}
);
leftKerningGroup = b;
rightKerningGroup = k;
unicode = 006B;
},
{
glyphname = l;
layers = (
{
layerId = "FA36DF9C-9258-4115-A391-0F6A4D75F819";
name = "Light Italic";
paths = (
{
closed = 1;
nodes = (
"105 0 LINE SMOOTH",
"70 0 OFFCURVE",
"54 18 OFFCURVE",
"54 46 CURVE SMOOTH",
"54 49 OFFCURVE",
"54 52 OFFCURVE",
"54 55 CURVE SMOOTH",
"54 57 OFFCURVE",
"55 61 OFFCURVE",
"56 66 CURVE SMOOTH",
"191 740 LINE",
"246 740 LINE",
"108 49 LINE",
"189 49 LINE",
"179 0 LINE"
);
}
);
width = 253;
}
);
leftKerningGroup = l;
rightKerningGroup = d;
unicode = 006C;
},
{
glyphname = m;
layers = (
{
layerId = "FA36DF9C-9258-4115-A391-0F6A4D75F819";
name = "Light Italic";
paths = (
{
closed = 1;
nodes = (
"43 0 LINE",
"145 512 LINE",
"201 512 LINE",
"180 409 LINE",
"184 409 LINE",
"220 484 OFFCURVE",
"269 524 OFFCURVE",
"346 524 CURVE SMOOTH",
"422 524 OFFCURVE",
"463 477 OFFCURVE",
"468 406 CURVE",
"473 406 LINE",
"508 482 OFFCURVE",
"562 524 OFFCURVE",
"641 524 CURVE SMOOTH",
"726 524 OFFCURVE",
"770 474 OFFCURVE",
"770 386 CURVE SMOOTH",
"770 366 OFFCURVE",
"768 343 OFFCURVE",
"763 320 CURVE SMOOTH",
"709 49 LINE",
"787 49 LINE",
"777 0 LINE",
"703 0 LINE SMOOTH",
"672 0 OFFCURVE",
"654 14 OFFCURVE",
"654 42 CURVE SMOOTH",
"654 51 OFFCURVE",
"655 59 OFFCURVE",
"658 70 CURVE",
"708 319 LINE SMOOTH",
"712 340 OFFCURVE",
"714 363 OFFCURVE",
"714 378 CURVE SMOOTH",
"714 442 OFFCURVE",
"684 474 OFFCURVE",
"624 474 CURVE SMOOTH",
"587 474 OFFCURVE",
"551 460 OFFCURVE",
"520 425 CURVE SMOOTH",
"491 393 OFFCURVE",
"468 348 OFFCURVE",
"459 300 CURVE SMOOTH",
"398 0 LINE",
"343 0 LINE",
"407 319 LINE SMOOTH",
"411 340 OFFCURVE",
"414 363 OFFCURVE",
"414 379 CURVE SMOOTH",
"414 442 OFFCURVE",
"385 474 OFFCURVE",
"328 474 CURVE SMOOTH",
"249 474 OFFCURVE",
"207 411 OFFCURVE",
"183 366 CURVE SMOOTH",
"171 343 OFFCURVE",
"162 320 OFFCURVE",
"157 297 CURVE SMOOTH",
"98 0 LINE"
);
}
);
width = 846;
}
);
leftKerningGroup = m;
rightKerningGroup = h;
unicode = 006D;
},
{
glyphname = n;
layers = (
{
layerId = "FA36DF9C-9258-4115-A391-0F6A4D75F819";
name = "Light Italic";
paths = (
{
closed = 1;
nodes = (
"43 0 LINE",
"145 512 LINE",
"201 512 LINE",
"180 409 LINE",
"184 409 LINE",
"221 486 OFFCURVE",
"271 524 OFFCURVE",
"350 524 CURVE SMOOTH",
"438 524 OFFCURVE",
"482 473 OFFCURVE",
"482 385 CURVE SMOOTH",
"482 366 OFFCURVE",
"480 342 OFFCURVE",
"475 319 CURVE SMOOTH",
"421 49 LINE",
"499 49 LINE",
"489 0 LINE",
"415 0 LINE SMOOTH",
"384 0 OFFCURVE",
"366 14 OFFCURVE",
"366 42 CURVE SMOOTH",
"366 51 OFFCURVE",
"367 59 OFFCURVE",
"370 70 CURVE",
"420 319 LINE SMOOTH",
"424 340 OFFCURVE",
"426 363 OFFCURVE",
"426 376 CURVE SMOOTH",
"426 441 OFFCURVE",
"395 474 OFFCURVE",
"333 474 CURVE SMOOTH",
"293 474 OFFCURVE",
"256 460 OFFCURVE",
"223 425 CURVE SMOOTH",
"194 394 OFFCURVE",
"168 346 OFFCURVE",
"157 297 CURVE SMOOTH",
"98 0 LINE"
);
}
);
width = 558;
}
);
leftKerningGroup = m;
rightKerningGroup = h;
unicode = 006E;
},
{
glyphname = o;
layers = (
{
layerId = "FA36DF9C-9258-4115-A391-0F6A4D75F819";
name = "Light Italic";
paths = (
{
closed = 1;
nodes = (
"123 -12 OFFCURVE",
"53 63 OFFCURVE",
"53 188 CURVE SMOOTH",
"53 277 OFFCURVE",
"78 361 OFFCURVE",
"123 423 CURVE SMOOTH",
"167 485 OFFCURVE",
"233 524 OFFCURVE",
"313 524 CURVE SMOOTH",
"421 524 OFFCURVE",
"491 449 OFFCURVE",
"491 324 CURVE SMOOTH",
"491 235 OFFCURVE",
"466 152 OFFCURVE",
"422 90 CURVE SMOOTH",
"377 28 OFFCURVE",
"311 -12 OFFCURVE",
"231 -12 CURVE SMOOTH"
);
},
{
closed = 1;
nodes = (
"327 37 OFFCURVE",
"395 104 OFFCURVE",
"418 221 CURVE SMOOTH",
"430 282 LINE SMOOTH",
"434 301 OFFCURVE",
"435 318 OFFCURVE",
"435 338 CURVE SMOOTH",
"435 377 OFFCURVE",
"424 411 OFFCURVE",
"403 436 CURVE SMOOTH",
"382 460 OFFCURVE",
"350 475 OFFCURVE",
"306 475 CURVE SMOOTH",
"217 475 OFFCURVE",
"149 408 OFFCURVE",
"126 291 CURVE SMOOTH",
"114 230 LINE SMOOTH",
"110 211 OFFCURVE",
"109 194 OFFCURVE",
"109 174 CURVE SMOOTH",
"109 95 OFFCURVE",
"151 37 OFFCURVE",
"238 37 CURVE SMOOTH"
);
}
);
width = 544;
}
);
leftKerningGroup = c;
rightKerningGroup = o;
unicode = 006F;
},
{
glyphname = p;
layers = (
{
layerId = "FA36DF9C-9258-4115-A391-0F6A4D75F819";
name = "Light Italic";
paths = (
{
closed = 1;
nodes = (
"145 512 LINE",
"200 512 LINE",
"177 400 LINE",
"180 400 LINE",
"223 483 OFFCURVE",
"272 524 OFFCURVE",
"352 524 CURVE SMOOTH",
"401 524 OFFCURVE",
"441 504 OFFCURVE",
"469 471 CURVE SMOOTH",
"496 438 OFFCURVE",
"511 388 OFFCURVE",
"511 331 CURVE SMOOTH",
"511 248 OFFCURVE",
"491 162 OFFCURVE",
"449 98 CURVE SMOOTH",
"407 33 OFFCURVE",
"344 -12 OFFCURVE",
"261 -12 CURVE SMOOTH",
"189 -12 OFFCURVE",
"134 23 OFFCURVE",
"117 87 CURVE",
"114 87 LINE",
"57 -200 LINE",
"2 -200 LINE"
);
},
{
closed = 1;
nodes = (
"352 38 OFFCURVE",
"415 105 OFFCURVE",
"438 218 CURVE SMOOTH",
"450 278 LINE",
"453 297 OFFCURVE",
"455 314 OFFCURVE",
"455 337 CURVE SMOOTH",
"455 376 OFFCURVE",
"447 410 OFFCURVE",
"428 435 CURVE",
"408 459 OFFCURVE",
"379 474 OFFCURVE",
"339 474 CURVE SMOOTH",
"296 474 OFFCURVE",
"263 458 OFFCURVE",
"231 427 CURVE",
"195 395 OFFCURVE",
"166 350 OFFCURVE",
"155 290 CURVE SMOOTH",
"131 171 LINE SMOOTH",
"124 139 OFFCURVE",
"130 105 OFFCURVE",
"150 80 CURVE SMOOTH",
"170 55 OFFCURVE",
"205 38 OFFCURVE",
"256 38 CURVE SMOOTH"
);
}
);
width = 566;
}
);
leftKerningGroup = p;
rightKerningGroup = b;
unicode = 0070;
},
{
glyphname = q;
layers = (
{
layerId = "FA36DF9C-9258-4115-A391-0F6A4D75F819";
name = "Light Italic";
paths = (
{
closed = 1;
nodes = (
"389 112 LINE",
"386 112 LINE",
"343 29 OFFCURVE",
"294 -12 OFFCURVE",
"214 -12 CURVE SMOOTH",
"165 -12 OFFCURVE",
"125 8 OFFCURVE",
"98 41 CURVE SMOOTH",
"70 74 OFFCURVE",
"55 122 OFFCURVE",
"55 181 CURVE SMOOTH",
"55 264 OFFCURVE",
"76 350 OFFCURVE",
"118 415 CURVE SMOOTH",
"160 479 OFFCURVE",
"222 524 OFFCURVE",
"305 524 CURVE SMOOTH",
"377 524 OFFCURVE",
"432 489 OFFCURVE",
"449 425 CURVE",
"452 425 LINE",
"469 512 LINE",
"524 512 LINE",
"382 -200 LINE",
"327 -200 LINE"
);
},
{
closed = 1;
nodes = (
"270 38 OFFCURVE",
"303 54 OFFCURVE",
"335 85 CURVE",
"371 117 OFFCURVE",
"400 162 OFFCURVE",
"411 222 CURVE SMOOTH",
"435 341 LINE SMOOTH",
"442 373 OFFCURVE",
"436 407 OFFCURVE",
"416 432 CURVE SMOOTH",
"396 457 OFFCURVE",
"361 474 OFFCURVE",
"310 474 CURVE SMOOTH",
"214 474 OFFCURVE",
"151 407 OFFCURVE",
"128 294 CURVE SMOOTH",
"116 234 LINE",
"113 215 OFFCURVE",
"111 198 OFFCURVE",
"111 175 CURVE SMOOTH",
"111 136 OFFCURVE",
"119 102 OFFCURVE",
"139 78 CURVE",
"158 53 OFFCURVE",
"187 38 OFFCURVE",
"227 38 CURVE SMOOTH"
);
}
);
width = 567;
}
);
leftKerningGroup = c;
rightKerningGroup = j;
unicode = 0071;
},
{
glyphname = r;
layers = (
{
layerId = "FA36DF9C-9258-4115-A391-0F6A4D75F819";
name = "Light Italic";
paths = (
{
closed = 1;
nodes = (
"43 0 LINE",
"145 512 LINE",
"201 512 LINE",
"178 405 LINE",
"182 405 LINE",
"198 433 OFFCURVE",
"217 460 OFFCURVE",
"242 480 CURVE SMOOTH",
"267 500 OFFCURVE",
"300 512 OFFCURVE",
"344 512 CURVE SMOOTH",
"376 512 LINE",
"365 457 LINE",
"332 457 LINE SMOOTH",
"284 457 OFFCURVE",
"244 439 OFFCURVE",
"215 411 CURVE SMOOTH",
"186 383 OFFCURVE",
"166 343 OFFCURVE",
"158 302 CURVE SMOOTH",
"98 0 LINE"
);
}
);
width = 354;
}
);
leftKerningGroup = m;
rightKerningGroup = r;
unicode = 0072;
},
{
glyphname = s;
layers = (
{
layerId = "FA36DF9C-9258-4115-A391-0F6A4D75F819";
name = "Light Italic";
paths = (
{
closed = 1;
nodes = (
"124 -12 OFFCURVE",
"55 21 OFFCURVE",
"14 84 CURVE",
"53 117 LINE",
"90 63 OFFCURVE",
"140 36 OFFCURVE",
"205 36 CURVE SMOOTH",
"284 36 OFFCURVE",
"337 75 OFFCURVE",
"337 147 CURVE SMOOTH",
"337 192 OFFCURVE",
"314 216 OFFCURVE",
"250 231 CURVE SMOOTH",
"207 241 LINE SMOOTH",
"170 249 OFFCURVE",
"138 261 OFFCURVE",
"115 281 CURVE SMOOTH",
"91 301 OFFCURVE",
"78 329 OFFCURVE",
"78 370 CURVE SMOOTH",
"78 459 OFFCURVE",
"144 524 OFFCURVE",
"259 524 CURVE SMOOTH",
"340 524 OFFCURVE",
"389 494 OFFCURVE",
"425 447 CURVE",
"386 413 LINE",
"361 448 OFFCURVE",
"324 476 OFFCURVE",
"255 476 CURVE SMOOTH",
"175 476 OFFCURVE",
"132 437 OFFCURVE",
"132 374 CURVE SMOOTH",
"132 327 OFFCURVE",
"156 305 OFFCURVE",
"217 290 CURVE SMOOTH",
"260 280 LINE SMOOTH",
"299 272 OFFCURVE",
"331 259 OFFCURVE",
"354 239 CURVE SMOOTH",
"377 219 OFFCURVE",
"390 191 OFFCURVE",
"390 150 CURVE SMOOTH",
"390 99 OFFCURVE",
"370 59 OFFCURVE",
"337 31 CURVE SMOOTH",
"304 3 OFFCURVE",
"257 -12 OFFCURVE",
"205 -12 CURVE SMOOTH"
);
}
);
width = 462;
}
);
leftKerningGroup = s;
rightKerningGroup = s;
unicode = 0073;
},
{
glyphname = t;
layers = (
{
layerId = "FA36DF9C-9258-4115-A391-0F6A4D75F819";
name = "Light Italic";
paths = (
{
closed = 1;
nodes = (
"124 0 LINE SMOOTH",
"87 0 OFFCURVE",
"72 18 OFFCURVE",
"72 45 CURVE SMOOTH",
"72 56 OFFCURVE",
"73 65 OFFCURVE",
"75 73 CURVE",
"153 462 LINE",
"69 462 LINE",
"79 512 LINE",
"130 512 LINE SMOOTH",
"161 512 OFFCURVE",
"168 523 OFFCURVE",
"173 552 CURVE SMOOTH",
"194 655 LINE",
"246 655 LINE",
"217 512 LINE",
"331 512 LINE",
"321 463 LINE",
"208 463 LINE",
"125 49 LINE",
"231 49 LINE",
"221 0 LINE"
);
}
);
width = 313;
}
);
leftKerningGroup = t;
rightKerningGroup = t;
unicode = 0074;
},
{
glyphname = u;
layers = (
{
layerId = "FA36DF9C-9258-4115-A391-0F6A4D75F819";
name = "Light Italic";
paths = (
{
closed = 1;
nodes = (
"193 512 LINE",
"129 193 LINE SMOOTH",
"125 173 OFFCURVE",
"124 149 OFFCURVE",
"124 136 CURVE SMOOTH",
"124 72 OFFCURVE",
"151 38 OFFCURVE",
"215 38 CURVE SMOOTH",
"255 38 OFFCURVE",
"292 52 OFFCURVE",
"324 87 CURVE SMOOTH",
"355 122 OFFCURVE",
"379 168 OFFCURVE",
"390 215 CURVE SMOOTH",
"449 512 LINE",
"504 512 LINE",
"412 49 LINE",
"489 49 LINE",
"480 0 LINE",
"407 0 LINE SMOOTH",
"374 0 OFFCURVE",
"358 18 OFFCURVE",
"358 46 CURVE SMOOTH",
"358 51 OFFCURVE",
"359 59 OFFCURVE",
"361 70 CURVE SMOOTH",
"367 103 LINE",
"363 103 LINE",
"326 26 OFFCURVE",
"275 -12 OFFCURVE",
"199 -12 CURVE SMOOTH",
"111 -12 OFFCURVE",
"67 39 OFFCURVE",
"67 127 CURVE SMOOTH",
"67 146 OFFCURVE",
"70 170 OFFCURVE",
"74 193 CURVE SMOOTH",
"138 512 LINE"
);
}
);
width = 557;
}
);
leftKerningGroup = u;
rightKerningGroup = a;
unicode = 0075;
},
{
glyphname = v;
layers = (
{
layerId = "FA36DF9C-9258-4115-A391-0F6A4D75F819";
name = "Light Italic";
paths = (
{
closed = 1;
nodes = (
"153 0 LINE",
"69 512 LINE",
"123 512 LINE",
"193 61 LINE",
"197 61 LINE",
"444 512 LINE",
"503 512 LINE",
"218 0 LINE"
);
}
);
width = 475;
}
);
leftKerningGroup = v;
rightKerningGroup = v;
unicode = 0076;
},
{
glyphname = w;
layers = (
{
layerId = "FA36DF9C-9258-4115-A391-0F6A4D75F819";
name = "Light Italic";
paths = (
{
closed = 1;
nodes = (
"77 512 LINE",
"130 512 LINE",
"159 60 LINE",
"163 60 LINE",
"384 512 LINE",
"439 512 LINE",
"480 62 LINE",
"484 62 LINE",
"695 512 LINE",
"749 512 LINE",
"506 0 LINE",
"439 0 LINE",
"399 429 LINE",
"395 429 LINE",
"185 0 LINE",
"115 0 LINE"
);
}
);
width = 731;
}
);
leftKerningGroup = w;
rightKerningGroup = w;
unicode = 0077;
},
{
glyphname = x;
layers = (
{
layerId = "FA36DF9C-9258-4115-A391-0F6A4D75F819";
name = "Light Italic";
paths = (
{
closed = 1;
nodes = (
"-20 0 LINE",
"211 263 LINE",
"83 512 LINE",
"142 512 LINE",
"249 300 LINE",
"253 300 LINE",
"436 512 LINE",
"501 512 LINE",
"277 257 LINE",
"411 0 LINE",
"352 0 LINE",
"239 221 LINE",
"235 221 LINE",
"46 0 LINE"
);
}
);
width = 486;
}
);
leftKerningGroup = x;
rightKerningGroup = x;
unicode = 0078;
},
{
glyphname = y;
layers = (
{
layerId = "FA36DF9C-9258-4115-A391-0F6A4D75F819";
name = "Light Italic";
paths = (
{
closed = 1;
nodes = (
"444 512 LINE",
"503 512 LINE",
"139 -140 LINE SMOOTH",
"115 -184 OFFCURVE",
"96 -200 OFFCURVE",
"56 -200 CURVE SMOOTH",
"-22 -200 LINE",
"-12 -152 LINE",
"77 -152 LINE",
"155 -11 LINE",
"70 512 LINE",
"124 512 LINE",
"195 61 LINE",
"199 61 LINE"
);
}
);
width = 475;
}
);
leftKerningGroup = y;
rightKerningGroup = y;
unicode = 0079;
},
{
glyphname = z;
layers = (
{
layerId = "FA36DF9C-9258-4115-A391-0F6A4D75F819";
name = "Light Italic";
paths = (
{
closed = 1;
nodes = (
"-3 0 LINE",
"6 48 LINE",
"371 463 LINE",
"88 463 LINE",
"97 512 LINE",
"446 512 LINE",
"437 464 LINE",
"72 49 LINE",
"369 49 LINE",
"359 0 LINE"
);
}
);
width = 441;
}
);
leftKerningGroup = z;
rightKerningGroup = z;
unicode = 007A;
},
{
glyphname = A;
layers = (
{
layerId = "FA36DF9C-9258-4115-A391-0F6A4D75F819";
name = "Light Italic";
paths = (
{
closed = 1;
nodes = (
"477 0 LINE",
"443 217 LINE",
"154 217 LINE",
"41 0 LINE",
"-21 0 LINE",
"349 698 LINE",
"426 698 LINE",
"536 0 LINE"
);
},
{
closed = 1;
nodes = (
"379 641 LINE",
"375 641 LINE",
"181 268 LINE",
"437 268 LINE"
);
}
);
width = 612;
}
);
leftKerningGroup = A;
rightKerningGroup = A;
unicode = 0041;
},
{
glyphname = B;
layers = (
{
layerId = "FA36DF9C-9258-4115-A391-0F6A4D75F819";
name = "Light Italic";
paths = (
{
closed = 1;
nodes = (
"184 698 LINE",
"427 698 LINE SMOOTH",
"531 698 OFFCURVE",
"586 645 OFFCURVE",
"586 554 CURVE SMOOTH",
"586 511 OFFCURVE",
"576 470 OFFCURVE",
"554 437 CURVE SMOOTH",
"532 404 OFFCURVE",
"497 379 OFFCURVE",
"449 368 CURVE",
"448 364 LINE",
"512 349 OFFCURVE",
"549 305 OFFCURVE",
"549 234 CURVE SMOOTH",
"549 166 OFFCURVE",
"526 109 OFFCURVE",
"487 67 CURVE SMOOTH",
"448 25 OFFCURVE",
"393 0 OFFCURVE",
"328 0 CURVE SMOOTH",
"45 0 LINE"
);
},
{
closed = 1;
nodes = (
"328 52 LINE SMOOTH",
"412 52 OFFCURVE",
"464 97 OFFCURVE",
"480 174 CURVE",
"483 193 OFFCURVE",
"486 207 OFFCURVE",
"487 216 CURVE SMOOTH",
"488 225 OFFCURVE",
"489 232 OFFCURVE",
"489 237 CURVE SMOOTH",
"489 297 OFFCURVE",
"451 337 OFFCURVE",
"375 337 CURVE SMOOTH",
"170 337 LINE",
"113 52 LINE"
);
},
{
closed = 1;
nodes = (
"367 388 LINE SMOOTH",
"450 388 OFFCURVE",
"503 422 OFFCURVE",
"518 494 CURVE SMOOTH",
"521 511 OFFCURVE",
"524 524 OFFCURVE",
"525 533 CURVE SMOOTH",
"526 542 OFFCURVE",
"526 549 OFFCURVE",
"526 554 CURVE SMOOTH",
"526 611 OFFCURVE",
"492 646 OFFCURVE",
"420 646 CURVE SMOOTH",
"231 646 LINE",
"180 388 LINE"
);
}
);
width = 619;
}
);
unicode = 0042;
},
{
glyphname = C;
layers = (
{
layerId = "FA36DF9C-9258-4115-A391-0F6A4D75F819";
name = "Light Italic";
paths = (
{
closed = 1;
nodes = (
"223 -12 OFFCURVE",
"165 11 OFFCURVE",
"125 55 CURVE SMOOTH",
"84 99 OFFCURVE",
"60 164 OFFCURVE",
"60 248 CURVE SMOOTH",
"60 360 OFFCURVE",
"89 476 OFFCURVE",
"146 564 CURVE SMOOTH",
"202 651 OFFCURVE",
"286 710 OFFCURVE",
"394 710 CURVE SMOOTH",
"505 710 OFFCURVE",
"576 659 OFFCURVE",
"605 558 CURVE",
"552 536 LINE",
"529 613 OFFCURVE",
"483 658 OFFCURVE",
"388 658 CURVE SMOOTH",
"328 658 OFFCURVE",
"275 634 OFFCURVE",
"233 591 CURVE SMOOTH",
"191 547 OFFCURVE",
"159 485 OFFCURVE",
"144 410 CURVE SMOOTH",
"126 319 LINE SMOOTH",
"119 287 OFFCURVE",
"118 259 OFFCURVE",
"118 236 CURVE SMOOTH",
"118 117 OFFCURVE",
"181 40 OFFCURVE",
"293 40 CURVE SMOOTH",
"389 40 OFFCURVE",
"444 88 OFFCURVE",
"492 175 CURVE",
"541 151 LINE",
"480 36 OFFCURVE",
"405 -12 OFFCURVE",
"290 -12 CURVE SMOOTH"
);
}
);
width = 599;
}
);
leftKerningGroup = C;
rightKerningGroup = C;
unicode = 0043;
},
{
glyphname = D;
layers = (
{
layerId = "FA36DF9C-9258-4115-A391-0F6A4D75F819";
name = "Light Italic";
paths = (
{
closed = 1;
nodes = (
"184 698 LINE",
"382 698 LINE SMOOTH",
"533 698 OFFCURVE",
"618 610 OFFCURVE",
"618 443 CURVE SMOOTH",
"618 332 OFFCURVE",
"589 222 OFFCURVE",
"532 139 CURVE SMOOTH",
"475 56 OFFCURVE",
"390 0 OFFCURVE",
"278 0 CURVE SMOOTH",
"45 0 LINE"
);
},
{
closed = 1;
nodes = (
"279 52 LINE SMOOTH",
"346 52 OFFCURVE",
"402 77 OFFCURVE",
"446 119 CURVE SMOOTH",
"489 161 OFFCURVE",
"518 222 OFFCURVE",
"533 294 CURVE SMOOTH",
"551 380 LINE",
"556 409 OFFCURVE",
"558 437 OFFCURVE",
"558 460 CURVE SMOOTH",
"558 579 OFFCURVE",
"494 646 OFFCURVE",
"378 646 CURVE SMOOTH",
"232 646 LINE",
"114 52 LINE"
);
}
);
width = 650;
}
);
rightKerningGroup = D;
unicode = 0044;
},
{
glyphname = E;
layers = (
{
layerId = "FA36DF9C-9258-4115-A391-0F6A4D75F819";
name = "Light Italic";
paths = (
{
closed = 1;
nodes = (
"45 0 LINE",
"185 698 LINE",
"583 698 LINE",
"572 646 LINE",
"233 646 LINE",
"179 380 LINE",
"494 380 LINE",
"484 329 LINE",
"169 329 LINE",
"114 52 LINE",
"463 52 LINE",
"453 0 LINE"
);
}
);
width = 560;
}
);
rightKerningGroup = E;
unicode = 0045;
},
{
glyphname = F;
layers = (
{
layerId = "FA36DF9C-9258-4115-A391-0F6A4D75F819";
name = "Light Italic";
paths = (
{
closed = 1;
nodes = (
"45 0 LINE",
"185 698 LINE",
"573 698 LINE",
"562 646 LINE",
"232 646 LINE",
"179 380 LINE",
"488 380 LINE",
"478 329 LINE",
"169 329 LINE",
"103 0 LINE"
);
}
);
width = 537;
}
);
rightKerningGroup = F;
unicode = 0046;
},
{
glyphname = G;
layers = (
{
layerId = "FA36DF9C-9258-4115-A391-0F6A4D75F819";
name = "Light Italic";
paths = (
{
closed = 1;
nodes = (
"499 107 LINE",
"496 107 LINE",
"457 35 OFFCURVE",
"386 -12 OFFCURVE",
"286 -12 CURVE SMOOTH",
"219 -12 OFFCURVE",
"163 10 OFFCURVE",
"123 54 CURVE SMOOTH",
"83 98 OFFCURVE",
"60 163 OFFCURVE",
"60 248 CURVE SMOOTH",
"60 321 OFFCURVE",
"73 397 OFFCURVE",
"98 466 CURVE SMOOTH",
"122 534 OFFCURVE",
"160 595 OFFCURVE",
"211 639 CURVE SMOOTH",
"262 683 OFFCURVE",
"327 710 OFFCURVE",
"404 710 CURVE SMOOTH",
"525 710 OFFCURVE",
"601 653 OFFCURVE",
"628 558 CURVE",
"576 536 LINE",
"549 612 OFFCURVE",
"498 658 OFFCURVE",
"397 658 CURVE SMOOTH",
"333 658 OFFCURVE",
"277 633 OFFCURVE",
"234 589 CURVE SMOOTH",
"190 545 OFFCURVE",
"159 481 OFFCURVE",
"143 404 CURVE SMOOTH",
"126 319 LINE",
"119 291 OFFCURVE",
"118 263 OFFCURVE",
"118 240 CURVE SMOOTH",
"118 115 OFFCURVE",
"183 40 OFFCURVE",
"300 40 CURVE SMOOTH",
"349 40 OFFCURVE",
"399 55 OFFCURVE",
"439 85 CURVE SMOOTH",
"478 115 OFFCURVE",
"508 160 OFFCURVE",
"520 221 CURVE SMOOTH",
"535 296 LINE",
"375 296 LINE",
"387 349 LINE",
"602 349 LINE",
"533 0 LINE",
"478 0 LINE"
);
}
);
width = 661;
}
);
leftKerningGroup = C;
rightKerningGroup = G;
unicode = 0047;
},
{
glyphname = H;
layers = (
{
layerId = "FA36DF9C-9258-4115-A391-0F6A4D75F819";
name = "Light Italic";
paths = (
{
closed = 1;
nodes = (
"542 329 LINE",
"169 329 LINE",
"103 0 LINE",
"45 0 LINE",
"185 698 LINE",
"243 698 LINE",
"179 380 LINE",
"552 380 LINE",
"616 698 LINE",
"674 698 LINE",
"534 0 LINE",
"476 0 LINE"
);
}
);
width = 682;
}
);
unicode = 0048;
},
{
glyphname = I;
lastChange = "2018-11-04 06:55:25 +0000";
layers = (
{
layerId = "FA36DF9C-9258-4115-A391-0F6A4D75F819";
name = "Light Italic";
paths = (
{
closed = 1;
nodes = (
"185 698 LINE",
"243 698 LINE",
"103 0 LINE",
"45 0 LINE"
);
}
);
width = 251;
}
);
leftKerningGroup = I;
rightKerningGroup = I;
unicode = 0049;
},
{
glyphname = J;
lastChange = "2018-11-04 05:48:15 +0000";
layers = (
{
layerId = "FA36DF9C-9258-4115-A391-0F6A4D75F819";
name = "Light Italic";
paths = (
{
closed = 1;
nodes = (
"317 193 LINE SMOOTH",
"297 94 OFFCURVE",
"246 40 OFFCURVE",
"162 40 CURVE SMOOTH",
"93 40 OFFCURVE",
"54 83 OFFCURVE",
"49 150 CURVE",
"-4 139 LINE",
"1 45 OFFCURVE",
"63 -12 OFFCURVE",
"160 -12 CURVE SMOOTH",
"272 -12 OFFCURVE",
"348 59 OFFCURVE",
"373 183 CURVE SMOOTH",
"476 698 LINE",
"418 698 LINE"
);
}
);
width = 481;
}
);
leftKerningGroup = J;
rightKerningGroup = J;
unicode = 004A;
},
{
glyphname = K;
layers = (
{
layerId = "FA36DF9C-9258-4115-A391-0F6A4D75F819";
name = "Light Italic";
paths = (
{
closed = 1;
nodes = (
"290 361 LINE",
"149 230 LINE",
"103 0 LINE",
"45 0 LINE",
"185 698 LINE",
"243 698 LINE",
"166 314 LINE",
"171 314 LINE",
"308 444 LINE",
"578 698 LINE",
"653 698 LINE",
"334 398 LINE",
"529 0 LINE",
"466 0 LINE"
);
}
);
width = 595;
}
);
rightKerningGroup = K;
unicode = 004B;
},
{
glyphname = L;
layers = (
{
layerId = "FA36DF9C-9258-4115-A391-0F6A4D75F819";
name = "Light Italic";
paths = (
{
closed = 1;
nodes = (
"45 0 LINE",
"185 698 LINE",
"243 698 LINE",
"114 52 LINE",
"415 52 LINE",
"405 0 LINE"
);
}
);
width = 481;
}
);
rightKerningGroup = L;
unicode = 004C;
},
{
glyphname = M;
layers = (
{
layerId = "FA36DF9C-9258-4115-A391-0F6A4D75F819";
name = "Light Italic";
paths = (
{
closed = 1;
nodes = (
"703 620 LINE",
"698 620 LINE",
"381 193 LINE",
"230 619 LINE",
"226 619 LINE",
"102 0 LINE",
"45 0 LINE",
"185 698 LINE",
"261 698 LINE",
"398 303 LINE",
"401 303 LINE",
"692 698 LINE",
"774 698 LINE",
"634 0 LINE",
"577 0 LINE"
);
}
);
width = 781;
}
);
unicode = 004D;
},
{
glyphname = N;
layers = (
{
layerId = "FA36DF9C-9258-4115-A391-0F6A4D75F819";
name = "Light Italic";
paths = (
{
closed = 1;
nodes = (
"228 615 LINE",
"224 615 LINE",
"101 0 LINE",
"45 0 LINE",
"185 698 LINE",
"254 698 LINE",
"491 83 LINE",
"495 83 LINE",
"618 698 LINE",
"674 698 LINE",
"534 0 LINE",
"465 0 LINE"
);
}
);
width = 681;
}
);
unicode = 004E;
},
{
glyphname = O;
layers = (
{
layerId = "FA36DF9C-9258-4115-A391-0F6A4D75F819";
name = "Light Italic";
paths = (
{
closed = 1;
nodes = (
"227 -12 OFFCURVE",
"169 10 OFFCURVE",
"127 54 CURVE SMOOTH",
"85 97 OFFCURVE",
"60 161 OFFCURVE",
"60 244 CURVE SMOOTH",
"60 353 OFFCURVE",
"89 470 OFFCURVE",
"147 559 CURVE SMOOTH",
"205 648 OFFCURVE",
"291 710 OFFCURVE",
"406 710 CURVE SMOOTH",
"474 710 OFFCURVE",
"533 688 OFFCURVE",
"575 645 CURVE SMOOTH",
"617 601 OFFCURVE",
"641 537 OFFCURVE",
"641 454 CURVE SMOOTH",
"641 345 OFFCURVE",
"613 228 OFFCURVE",
"555 139 CURVE SMOOTH",
"497 50 OFFCURVE",
"410 -12 OFFCURVE",
"295 -12 CURVE SMOOTH"
);
},
{
closed = 1;
nodes = (
"433 40 OFFCURVE",
"525 140 OFFCURVE",
"558 301 CURVE SMOOTH",
"575 384 LINE SMOOTH",
"582 415 OFFCURVE",
"583 445 OFFCURVE",
"583 468 CURVE SMOOTH",
"583 585 OFFCURVE",
"518 658 OFFCURVE",
"401 658 CURVE SMOOTH",
"268 658 OFFCURVE",
"176 558 OFFCURVE",
"143 397 CURVE SMOOTH",
"126 314 LINE SMOOTH",
"119 283 OFFCURVE",
"118 253 OFFCURVE",
"118 230 CURVE SMOOTH",
"118 113 OFFCURVE",
"183 40 OFFCURVE",
"300 40 CURVE SMOOTH"
);
}
);
width = 671;
}
);
leftKerningGroup = C;
rightKerningGroup = O;
unicode = 004F;
},
{
glyphname = P;
layers = (
{
layerId = "FA36DF9C-9258-4115-A391-0F6A4D75F819";
name = "Light Italic";
paths = (
{
closed = 1;
nodes = (
"45 0 LINE",
"185 698 LINE",
"435 698 LINE SMOOTH",
"547 698 OFFCURVE",
"599 630 OFFCURVE",
"599 538 CURVE SMOOTH",
"599 470 OFFCURVE",
"578 413 OFFCURVE",
"539 372 CURVE SMOOTH",
"499 331 OFFCURVE",
"443 307 OFFCURVE",
"374 307 CURVE SMOOTH",
"165 307 LINE",
"103 0 LINE"
);
},
{
closed = 1;
nodes = (
"176 359 LINE",
"383 359 LINE SMOOTH",
"463 359 OFFCURVE",
"513 403 OFFCURVE",
"528 475 CURVE SMOOTH",
"533 496 OFFCURVE",
"536 512 OFFCURVE",
"537 522 CURVE SMOOTH",
"538 531 OFFCURVE",
"539 540 OFFCURVE",
"539 547 CURVE SMOOTH",
"539 604 OFFCURVE",
"509 646 OFFCURVE",
"430 646 CURVE SMOOTH",
"232 646 LINE"
);
}
);
width = 586;
}
);
rightKerningGroup = P;
unicode = 0050;
},
{
glyphname = Q;
layers = (
{
layerId = "FA36DF9C-9258-4115-A391-0F6A4D75F819";
name = "Light Italic";
paths = (
{
closed = 1;
nodes = (
"235 -106 OFFCURVE",
"236 -94 OFFCURVE",
"239 -86 CURVE",
"256 -9 LINE",
"199 -1 OFFCURVE",
"150 24 OFFCURVE",
"115 67 CURVE SMOOTH",
"80 110 OFFCURVE",
"60 169 OFFCURVE",
"60 244 CURVE SMOOTH",
"60 353 OFFCURVE",
"89 470 OFFCURVE",
"147 559 CURVE SMOOTH",
"205 648 OFFCURVE",
"291 710 OFFCURVE",
"406 710 CURVE SMOOTH",
"474 710 OFFCURVE",
"533 688 OFFCURVE",
"575 645 CURVE SMOOTH",
"617 601 OFFCURVE",
"641 537 OFFCURVE",
"641 454 CURVE SMOOTH",
"641 347 OFFCURVE",
"613 233 OFFCURVE",
"558 145 CURVE SMOOTH",
"503 57 OFFCURVE",
"420 -6 OFFCURVE",
"311 -11 CURVE",
"290 -105 LINE",
"393 -105 LINE",
"381 -158 LINE",
"290 -158 LINE SMOOTH",
"250 -158 OFFCURVE",
"235 -140 OFFCURVE",
"235 -113 CURVE SMOOTH"
);
},
{
closed = 1;
nodes = (
"433 40 OFFCURVE",
"525 140 OFFCURVE",
"558 301 CURVE SMOOTH",
"575 384 LINE SMOOTH",
"582 415 OFFCURVE",
"583 445 OFFCURVE",
"583 468 CURVE SMOOTH",
"583 585 OFFCURVE",
"518 658 OFFCURVE",
"401 658 CURVE SMOOTH",
"268 658 OFFCURVE",
"176 558 OFFCURVE",
"143 397 CURVE SMOOTH",
"126 314 LINE SMOOTH",
"119 283 OFFCURVE",
"118 253 OFFCURVE",
"118 230 CURVE SMOOTH",
"118 113 OFFCURVE",
"183 40 OFFCURVE",
"300 40 CURVE SMOOTH"
);
}
);
width = 671;
}
);
leftKerningGroup = C;
rightKerningGroup = O;
unicode = 0051;
},
{
glyphname = R;
layers = (
{
layerId = "FA36DF9C-9258-4115-A391-0F6A4D75F819";
name = "Light Italic";
paths = (
{
closed = 1;
nodes = (
"103 0 LINE",
"45 0 LINE",
"185 698 LINE",
"435 698 LINE SMOOTH",
"547 698 OFFCURVE",
"599 630 OFFCURVE",
"599 538 CURVE SMOOTH",
"599 478 OFFCURVE",
"581 424 OFFCURVE",
"549 384 CURVE SMOOTH",
"516 344 OFFCURVE",
"467 317 OFFCURVE",
"404 312 CURVE",
"515 0 LINE",
"453 0 LINE",
"346 309 LINE",
"165 309 LINE"
);
},
{
closed = 1;
nodes = (
"383 360 LINE SMOOTH",
"463 360 OFFCURVE",
"513 403 OFFCURVE",
"528 475 CURVE SMOOTH",
"533 496 OFFCURVE",
"536 512 OFFCURVE",
"537 522 CURVE SMOOTH",
"538 531 OFFCURVE",
"539 540 OFFCURVE",
"539 547 CURVE SMOOTH",
"539 604 OFFCURVE",
"509 646 OFFCURVE",
"430 646 CURVE SMOOTH",
"232 646 LINE",
"176 360 LINE"
);
}
);
width = 627;
}
);
rightKerningGroup = R;
unicode = 0052;
},
{
glyphname = S;
layers = (
{
layerId = "FA36DF9C-9258-4115-A391-0F6A4D75F819";
name = "Light Italic";
paths = (
{
closed = 1;
nodes = (
"133 -12 OFFCURVE",
"55 28 OFFCURVE",
"12 108 CURVE",
"57 140 LINE",
"97 72 OFFCURVE",
"154 40 OFFCURVE",
"245 40 CURVE SMOOTH",
"310 40 OFFCURVE",
"358 60 OFFCURVE",
"390 90 CURVE SMOOTH",
"421 120 OFFCURVE",
"436 161 OFFCURVE",
"436 208 CURVE SMOOTH",
"436 272 OFFCURVE",
"403 310 OFFCURVE",
"324 327 CURVE SMOOTH",
"249 343 LINE SMOOTH",
"154 364 OFFCURVE",
"106 419 OFFCURVE",
"106 508 CURVE SMOOTH",
"106 563 OFFCURVE",
"126 614 OFFCURVE",
"165 651 CURVE SMOOTH",
"204 687 OFFCURVE",
"262 710 OFFCURVE",
"337 710 CURVE SMOOTH",
"448 710 OFFCURVE",
"513 670 OFFCURVE",
"554 606 CURVE",
"511 572 LINE",
"474 629 OFFCURVE",
"422 658 OFFCURVE",
"334 658 CURVE SMOOTH",
"223 658 OFFCURVE",
"164 599 OFFCURVE",
"164 511 CURVE SMOOTH",
"164 446 OFFCURVE",
"197 409 OFFCURVE",
"273 392 CURVE SMOOTH",
"347 376 LINE SMOOTH",
"443 355 OFFCURVE",
"494 299 OFFCURVE",
"494 210 CURVE SMOOTH",
"494 149 OFFCURVE",
"473 93 OFFCURVE",
"431 53 CURVE SMOOTH",
"389 13 OFFCURVE",
"327 -12 OFFCURVE",
"244 -12 CURVE SMOOTH"
);
}
);
width = 561;
}
);
leftKerningGroup = S;
rightKerningGroup = S;
unicode = 0053;
},
{
glyphname = T;
layers = (
{
layerId = "FA36DF9C-9258-4115-A391-0F6A4D75F819";
name = "Light Italic";
paths = (
{
closed = 1;
nodes = (
"383 646 LINE",
"254 0 LINE",
"196 0 LINE",
"325 646 LINE",
"98 646 LINE",
"108 698 LINE",
"621 698 LINE",
"610 646 LINE"
);
}
);
width = 552;
}
);
leftKerningGroup = T;
rightKerningGroup = T;
unicode = 0054;
},
{
glyphname = U;
layers = (
{
layerId = "FA36DF9C-9258-4115-A391-0F6A4D75F819";
name = "Light Italic";
paths = (
{
closed = 1;
nodes = (
"237 698 LINE",
"152 270 LINE SMOOTH",
"143 227 OFFCURVE",
"140 203 OFFCURVE",
"140 178 CURVE SMOOTH",
"140 91 OFFCURVE",
"189 40 OFFCURVE",
"284 40 CURVE SMOOTH",
"348 40 OFFCURVE",
"394 56 OFFCURVE",
"430 94 CURVE SMOOTH",
"465 132 OFFCURVE",
"489 191 OFFCURVE",
"506 279 CURVE SMOOTH",
"590 698 LINE",
"648 698 LINE",
"563 275 LINE SMOOTH",
"542 168 OFFCURVE",
"511 96 OFFCURVE",
"467 51 CURVE SMOOTH",
"422 6 OFFCURVE",
"361 -12 OFFCURVE",
"278 -12 CURVE SMOOTH",
"155 -12 OFFCURVE",
"83 53 OFFCURVE",
"83 173 CURVE SMOOTH",
"83 206 OFFCURVE",
"88 240 OFFCURVE",
"97 287 CURVE SMOOTH",
"179 698 LINE"
);
}
);
width = 650;
}
);
leftKerningGroup = U;
rightKerningGroup = U;
unicode = 0055;
},
{
glyphname = V;
layers = (
{
layerId = "FA36DF9C-9258-4115-A391-0F6A4D75F819";
name = "Light Italic";
paths = (
{
closed = 1;
nodes = (
"203 0 LINE",
"113 698 LINE",
"171 698 LINE",
"248 62 LINE",
"251 62 LINE",
"586 698 LINE",
"648 698 LINE",
"276 0 LINE"
);
}
);
width = 582;
}
);
leftKerningGroup = V;
rightKerningGroup = V;
unicode = 0056;
},
{
glyphname = W;
layers = (
{
layerId = "FA36DF9C-9258-4115-A391-0F6A4D75F819";
name = "Light Italic";
paths = (
{
closed = 1;
nodes = (
"143 0 LINE",
"110 698 LINE",
"168 698 LINE",
"193 76 LINE",
"196 76 LINE",
"482 698 LINE",
"553 698 LINE",
"591 76 LINE",
"594 76 LINE",
"872 698 LINE",
"933 698 LINE",
"613 0 LINE",
"545 0 LINE",
"507 628 LINE",
"503 628 LINE",
"213 0 LINE"
);
}
);
width = 863;
}
);
leftKerningGroup = W;
rightKerningGroup = W;
unicode = 0057;
},
{
glyphname = X;
layers = (
{
layerId = "FA36DF9C-9258-4115-A391-0F6A4D75F819";
name = "Light Italic";
paths = (
{
closed = 1;
nodes = (
"494 0 LINE",
"433 0 LINE",
"299 306 LINE",
"295 306 LINE",
"42 0 LINE",
"-27 0 LINE",
"269 357 LINE",
"119 698 LINE",
"180 698 LINE",
"312 397 LINE",
"316 397 LINE",
"565 698 LINE",
"633 698 LINE",
"339 348 LINE"
);
}
);
width = 579;
}
);
leftKerningGroup = X;
rightKerningGroup = X;
unicode = 0058;
},
{
glyphname = Y;
layers = (
{
layerId = "FA36DF9C-9258-4115-A391-0F6A4D75F819";
name = "Light Italic";
paths = (
{
closed = 1;
nodes = (
"201 0 LINE",
"257 281 LINE",
"107 698 LINE",
"166 698 LINE",
"294 343 LINE",
"298 343 LINE",
"568 698 LINE",
"635 698 LINE",
"315 281 LINE",
"259 0 LINE"
);
}
);
width = 563;
}
);
leftKerningGroup = Y;
rightKerningGroup = Y;
unicode = 0059;
},
{
glyphname = Z;
layers = (
{
layerId = "FA36DF9C-9258-4115-A391-0F6A4D75F819";
name = "Light Italic";
paths = (
{
closed = 1;
nodes = (
"468 0 LINE",
"-18 0 LINE",
"-6 56 LINE",
"515 646 LINE",
"126 646 LINE",
"137 698 LINE",
"594 698 LINE",
"583 642 LINE",
"61 52 LINE",
"479 52 LINE"
);
}
);
width = 555;
}
);
leftKerningGroup = Z;
rightKerningGroup = Z;
unicode = 005A;
},
{
glyphname = zero;
layers = (
{
layerId = "FA36DF9C-9258-4115-A391-0F6A4D75F819";
name = "Light Italic";
paths = (
{
closed = 1;
nodes = (
"131 -12 OFFCURVE",
"71 77 OFFCURVE",
"71 224 CURVE SMOOTH",
"71 293 OFFCURVE",
"81 371 OFFCURVE",
"102 443 CURVE SMOOTH",
"123 515 OFFCURVE",
"156 582 OFFCURVE",
"201 631 CURVE SMOOTH",
"246 679 OFFCURVE",
"303 710 OFFCURVE",
"375 710 CURVE SMOOTH",
"499 710 OFFCURVE",
"559 621 OFFCURVE",
"559 474 CURVE SMOOTH",
"559 405 OFFCURVE",
"549 327 OFFCURVE",
"528 255 CURVE SMOOTH",
"507 183 OFFCURVE",
"474 116 OFFCURVE",
"429 68 CURVE SMOOTH",
"384 19 OFFCURVE",
"326 -12 OFFCURVE",
"255 -12 CURVE SMOOTH"
);
},
{
closed = 1;
nodes = (
"314 39 OFFCURVE",
"360 64 OFFCURVE",
"396 109 CURVE SMOOTH",
"432 153 OFFCURVE",
"458 217 OFFCURVE",
"474 296 CURVE SMOOTH",
"492 383 LINE SMOOTH",
"499 418 OFFCURVE",
"502 451 OFFCURVE",
"502 482 CURVE SMOOTH",
"502 593 OFFCURVE",
"462 659 OFFCURVE",
"369 659 CURVE SMOOTH",
"314 659 OFFCURVE",
"270 634 OFFCURVE",
"234 590 CURVE SMOOTH",
"198 545 OFFCURVE",
"172 481 OFFCURVE",
"156 402 CURVE SMOOTH",
"138 315 LINE SMOOTH",
"131 280 OFFCURVE",
"128 247 OFFCURVE",
"128 216 CURVE SMOOTH",
"128 105 OFFCURVE",
"168 39 OFFCURVE",
"261 39 CURVE SMOOTH"
);
}
);
width = 600;
}
);
unicode = 0030;
},
{
glyphname = one;
lastChange = "2018-11-05 13:07:27 +0000";
layers = (
{
layerId = "FA36DF9C-9258-4115-A391-0F6A4D75F819";
name = "Light Italic";
paths = (
{
closed = 1;
nodes = (
"163 612 LINE",
"150 549 LINE",
"318 638 LINE",
"191 0 LINE",
"249 0 LINE",
"388 698 LINE",
"322 698 LINE"
);
}
);
width = 450;
}
);
unicode = 0031;
},
{
glyphname = two;
layers = (
{
layerId = "FA36DF9C-9258-4115-A391-0F6A4D75F819";
name = "Light Italic";
paths = (
{
closed = 1;
nodes = (
"469 0 LINE",
"34 0 LINE",
"47 64 LINE",
"332 300 LINE SMOOTH",
"415 365 OFFCURVE",
"463 432 OFFCURVE",
"474 488 CURVE SMOOTH",
"479 511 OFFCURVE",
"481 530 OFFCURVE",
"481 543 CURVE SMOOTH",
"481 571 OFFCURVE",
"473 600 OFFCURVE",
"454 622 CURVE SMOOTH",
"435 644 OFFCURVE",
"405 658 OFFCURVE",
"360 658 CURVE SMOOTH",
"275 658 OFFCURVE",
"222 614 OFFCURVE",
"186 529 CURVE",
"135 550 LINE",
"179 653 OFFCURVE",
"251 710 OFFCURVE",
"366 710 CURVE SMOOTH",
"423 710 OFFCURVE",
"468 692 OFFCURVE",
"498 662 CURVE SMOOTH",
"528 632 OFFCURVE",
"544 591 OFFCURVE",
"544 544 CURVE SMOOTH",
"544 488 OFFCURVE",
"528 441 OFFCURVE",
"497 395 CURVE SMOOTH",
"466 349 OFFCURVE",
"421 305 OFFCURVE",
"364 260 CURVE SMOOTH",
"108 52 LINE",
"479 52 LINE"
);
}
);
width = 600;
}
);
unicode = 0032;
},
{
glyphname = three;
layers = (
{
layerId = "FA36DF9C-9258-4115-A391-0F6A4D75F819";
name = "Light Italic";
paths = (
{
closed = 1;
nodes = (
"303 391 LINE SMOOTH",
"392 391 OFFCURVE",
"450 429 OFFCURVE",
"469 517 CURVE SMOOTH",
"472 532 OFFCURVE",
"473 544 OFFCURVE",
"473 551 CURVE SMOOTH",
"473 619 OFFCURVE",
"428 658 OFFCURVE",
"352 658 CURVE SMOOTH",
"276 658 OFFCURVE",
"225 630 OFFCURVE",
"186 566 CURVE",
"145 599 LINE",
"188 666 OFFCURVE",
"254 710 OFFCURVE",
"359 710 CURVE SMOOTH",
"411 710 OFFCURVE",
"455 695 OFFCURVE",
"487 668 CURVE SMOOTH",
"518 641 OFFCURVE",
"536 603 OFFCURVE",
"536 556 CURVE SMOOTH",
"536 505 OFFCURVE",
"518 462 OFFCURVE",
"490 430 CURVE SMOOTH",
"461 397 OFFCURVE",
"420 375 OFFCURVE",
"373 367 CURVE",
"372 363 LINE",
"440 352 OFFCURVE",
"490 299 OFFCURVE",
"490 218 CURVE SMOOTH",
"490 150 OFFCURVE",
"466 92 OFFCURVE",
"424 52 CURVE SMOOTH",
"382 11 OFFCURVE",
"319 -12 OFFCURVE",
"246 -12 CURVE SMOOTH",
"138 -12 OFFCURVE",
"67 37 OFFCURVE",
"38 105 CURVE",
"85 136 LINE",
"112 73 OFFCURVE",
"159 40 OFFCURVE",
"251 40 CURVE SMOOTH",
"351 40 OFFCURVE",
"407 91 OFFCURVE",
"424 179 CURVE SMOOTH",
"428 199 OFFCURVE",
"430 214 OFFCURVE",
"430 223 CURVE SMOOTH",
"430 294 OFFCURVE",
"386 340 OFFCURVE",
"295 340 CURVE SMOOTH",
"212 340 LINE",
"223 391 LINE"
);
}
);
width = 600;
}
);
unicode = 0033;
},
{
glyphname = four;
layers = (
{
layerId = "FA36DF9C-9258-4115-A391-0F6A4D75F819";
name = "Light Italic";
paths = (
{
closed = 1;
nodes = (
"335 0 LINE",
"364 146 LINE",
"29 146 LINE",
"40 202 LINE",
"449 698 LINE",
"531 698 LINE",
"431 195 LINE",
"534 195 LINE",
"525 146 LINE",
"421 146 LINE",
"391 0 LINE"
);
},
{
closed = 1;
nodes = (
"94 195 LINE",
"374 195 LINE",
"462 635 LINE",
"459 635 LINE"
);
}
);
width = 600;
}
);
unicode = 0034;
},
{
glyphname = five;
layers = (
{
layerId = "FA36DF9C-9258-4115-A391-0F6A4D75F819";
name = "Light Italic";
paths = (
{
closed = 1;
nodes = (
"563 646 LINE",
"258 646 LINE",
"182 348 LINE",
"187 348 LINE",
"226 404 OFFCURVE",
"269 427 OFFCURVE",
"341 427 CURVE SMOOTH",
"448 427 OFFCURVE",
"515 361 OFFCURVE",
"515 252 CURVE SMOOTH",
"515 175 OFFCURVE",
"491 109 OFFCURVE",
"447 62 CURVE SMOOTH",
"403 15 OFFCURVE",
"339 -12 OFFCURVE",
"262 -12 CURVE SMOOTH",
"158 -12 OFFCURVE",
"86 37 OFFCURVE",
"58 105 CURVE",
"105 136 LINE",
"132 72 OFFCURVE",
"183 40 OFFCURVE",
"268 40 CURVE SMOOTH",
"369 40 OFFCURVE",
"428 96 OFFCURVE",
"448 196 CURVE SMOOTH",
"453 221 OFFCURVE",
"456 235 OFFCURVE",
"456 252 CURVE SMOOTH",
"456 328 OFFCURVE",
"416 376 OFFCURVE",
"324 376 CURVE SMOOTH",
"259 376 OFFCURVE",
"217 350 OFFCURVE",
"174 307 CURVE",
"123 314 LINE",
"221 698 LINE",
"573 698 LINE"
);
}
);
width = 600;
}
);
unicode = 0035;
},
{
glyphname = six;
layers = (
{
layerId = "FA36DF9C-9258-4115-A391-0F6A4D75F819";
name = "Light Italic";
paths = (
{
closed = 1;
nodes = (
"140 -12 OFFCURVE",
"76 64 OFFCURVE",
"76 189 CURVE SMOOTH",
"76 290 OFFCURVE",
"116 393 OFFCURVE",
"180 482 CURVE SMOOTH",
"243 571 OFFCURVE",
"329 647 OFFCURVE",
"422 698 CURVE",
"505 698 LINE",
"324 590 OFFCURVE",
"203 469 OFFCURVE",
"155 321 CURVE",
"159 320 LINE",
"203 397 OFFCURVE",
"264 427 OFFCURVE",
"337 427 CURVE SMOOTH",
"446 427 OFFCURVE",
"518 358 OFFCURVE",
"518 245 CURVE SMOOTH",
"518 172 OFFCURVE",
"492 108 OFFCURVE",
"448 62 CURVE SMOOTH",
"403 16 OFFCURVE",
"340 -12 OFFCURVE",
"268 -12 CURVE SMOOTH"
);
},
{
closed = 1;
nodes = (
"371 40 OFFCURVE",
"436 104 OFFCURVE",
"455 195 CURVE SMOOTH",
"459 216 OFFCURVE",
"460 230 OFFCURVE",
"460 241 CURVE SMOOTH",
"460 325 OFFCURVE",
"414 376 OFFCURVE",
"323 376 CURVE SMOOTH",
"223 376 OFFCURVE",
"158 312 OFFCURVE",
"139 221 CURVE SMOOTH",
"135 200 OFFCURVE",
"134 186 OFFCURVE",
"134 175 CURVE SMOOTH",
"134 91 OFFCURVE",
"180 40 OFFCURVE",
"271 40 CURVE SMOOTH"
);
}
);
width = 600;
}
);
unicode = 0036;
},
{
glyphname = seven;
lastChange = "2018-11-05 13:05:00 +0000";
layers = (
{
layerId = "FA36DF9C-9258-4115-A391-0F6A4D75F819";
name = "Light Italic";
paths = (
{
closed = 1;
nodes = (
"159 647 LINE",
"535 647 LINE",
"134 0 LINE",
"196 0 LINE",
"594 642 LINE",
"605 698 LINE",
"169 698 LINE"
);
}
);
width = 600;
}
);
unicode = 0037;
},
{
glyphname = eight;
layers = (
{
layerId = "FA36DF9C-9258-4115-A391-0F6A4D75F819";
name = "Light Italic";
paths = (
{
closed = 1;
nodes = (
"125 -12 OFFCURVE",
"52 60 OFFCURVE",
"52 164 CURVE SMOOTH",
"52 213 OFFCURVE",
"69 261 OFFCURVE",
"100 297 CURVE SMOOTH",
"131 333 OFFCURVE",
"177 358 OFFCURVE",
"234 366 CURVE",
"235 373 LINE",
"171 393 OFFCURVE",
"140 438 OFFCURVE",
"140 505 CURVE SMOOTH",
"140 565 OFFCURVE",
"164 616 OFFCURVE",
"205 653 CURVE SMOOTH",
"246 689 OFFCURVE",
"304 710 OFFCURVE",
"372 710 CURVE SMOOTH",
"489 710 OFFCURVE",
"557 648 OFFCURVE",
"557 555 CURVE SMOOTH",
"557 511 OFFCURVE",
"543 470 OFFCURVE",
"516 437 CURVE SMOOTH",
"488 404 OFFCURVE",
"450 378 OFFCURVE",
"402 367 CURVE",
"401 361 LINE",
"473 342 OFFCURVE",
"513 289 OFFCURVE",
"513 217 CURVE SMOOTH",
"513 149 OFFCURVE",
"488 91 OFFCURVE",
"444 51 CURVE SMOOTH",
"399 11 OFFCURVE",
"334 -12 OFFCURVE",
"257 -12 CURVE SMOOTH"
);
},
{
closed = 1;
nodes = (
"360 39 OFFCURVE",
"431 91 OFFCURVE",
"448 176 CURVE SMOOTH",
"452 199 OFFCURVE",
"454 208 OFFCURVE",
"454 221 CURVE SMOOTH",
"454 293 OFFCURVE",
"401 341 OFFCURVE",
"305 341 CURVE SMOOTH",
"205 341 OFFCURVE",
"134 289 OFFCURVE",
"117 204 CURVE SMOOTH",
"113 181 OFFCURVE",
"111 172 OFFCURVE",
"111 159 CURVE SMOOTH",
"111 87 OFFCURVE",
"164 39 OFFCURVE",
"260 39 CURVE SMOOTH"
);
},
{
closed = 1;
nodes = (
"419 391 OFFCURVE",
"480 437 OFFCURVE",
"495 514 CURVE",
"498 533 OFFCURVE",
"499 540 OFFCURVE",
"499 551 CURVE SMOOTH",
"499 618 OFFCURVE",
"451 659 OFFCURVE",
"367 659 CURVE SMOOTH",
"278 659 OFFCURVE",
"217 613 OFFCURVE",
"202 536 CURVE",
"199 517 OFFCURVE",
"198 510 OFFCURVE",
"198 499 CURVE SMOOTH",
"198 432 OFFCURVE",
"246 391 OFFCURVE",
"330 391 CURVE SMOOTH"
);
}
);
width = 600;
}
);
unicode = 0038;
},
{
glyphname = nine;
layers = (
{
layerId = "FA36DF9C-9258-4115-A391-0F6A4D75F819";
name = "Light Italic";
paths = (
{
closed = 1;
nodes = (
"558 406 OFFCURVE",
"518 305 OFFCURVE",
"455 216 CURVE SMOOTH",
"391 127 OFFCURVE",
"305 51 OFFCURVE",
"212 0 CURVE",
"129 0 LINE",
"310 108 OFFCURVE",
"431 229 OFFCURVE",
"479 377 CURVE",
"475 378 LINE",
"431 301 OFFCURVE",
"370 271 OFFCURVE",
"297 271 CURVE SMOOTH",
"188 271 OFFCURVE",
"116 340 OFFCURVE",
"116 453 CURVE SMOOTH",
"116 526 OFFCURVE",
"142 591 OFFCURVE",
"187 637 CURVE SMOOTH",
"231 683 OFFCURVE",
"294 710 OFFCURVE",
"366 710 CURVE SMOOTH",
"494 710 OFFCURVE",
"558 634 OFFCURVE",
"558 509 CURVE SMOOTH"
);
},
{
closed = 1;
nodes = (
"411 322 OFFCURVE",
"476 386 OFFCURVE",
"495 477 CURVE SMOOTH",
"499 498 OFFCURVE",
"500 512 OFFCURVE",
"500 523 CURVE SMOOTH",
"500 607 OFFCURVE",
"454 658 OFFCURVE",
"363 658 CURVE SMOOTH",
"263 658 OFFCURVE",
"198 594 OFFCURVE",
"179 503 CURVE SMOOTH",
"175 482 OFFCURVE",
"174 468 OFFCURVE",
"174 457 CURVE SMOOTH",
"174 373 OFFCURVE",
"220 322 OFFCURVE",
"311 322 CURVE SMOOTH"
);
}
);
width = 600;
}
);
unicode = 0039;
},
{
glyphname = ampersand;
layers = (
{
layerId = "FA36DF9C-9258-4115-A391-0F6A4D75F819";
name = "Light Italic";
paths = (
{
closed = 1;
nodes = (
"448 97 LINE",
"388 29 OFFCURVE",
"309 -12 OFFCURVE",
"220 -12 CURVE SMOOTH",
"107 -12 OFFCURVE",
"42 48 OFFCURVE",
"42 145 CURVE SMOOTH",
"42 197 OFFCURVE",
"61 241 OFFCURVE",
"95 278 CURVE SMOOTH",
"129 315 OFFCURVE",
"178 348 OFFCURVE",
"238 377 CURVE",
"202 425 OFFCURVE",
"183 470 OFFCURVE",
"183 517 CURVE SMOOTH",
"183 566 OFFCURVE",
"201 615 OFFCURVE",
"234 651 CURVE SMOOTH",
"267 687 OFFCURVE",
"316 710 OFFCURVE",
"376 710 CURVE SMOOTH",
"417 710 OFFCURVE",
"454 698 OFFCURVE",
"480 677 CURVE SMOOTH",
"506 656 OFFCURVE",
"522 624 OFFCURVE",
"522 584 CURVE SMOOTH",
"522 533 OFFCURVE",
"501 495 OFFCURVE",
"465 461 CURVE SMOOTH",
"428 427 OFFCURVE",
"375 396 OFFCURVE",
"311 364 CURVE",
"450 180 LINE",
"481 232 OFFCURVE",
"502 297 OFFCURVE",
"517 361 CURVE",
"641 361 LINE",
"630 312 LINE",
"553 312 LINE",
"536 249 OFFCURVE",
"511 188 OFFCURVE",
"479 139 CURVE",
"584 0 LINE",
"521 0 LINE"
);
},
{
closed = 1;
nodes = (
"302 663 OFFCURVE",
"253 618 OFFCURVE",
"241 555 CURVE",
"240 547 OFFCURVE",
"239 540 OFFCURVE",
"238 535 CURVE SMOOTH",
"237 530 OFFCURVE",
"236 525 OFFCURVE",
"236 520 CURVE SMOOTH",
"236 488 OFFCURVE",
"246 452 OFFCURVE",
"285 399 CURVE",
"402 455 OFFCURVE",
"467 500 OFFCURVE",
"467 576 CURVE SMOOTH",
"467 632 OFFCURVE",
"431 663 OFFCURVE",
"371 663 CURVE SMOOTH"
);
},
{
closed = 1;
nodes = (
"264 341 LINE",
"167 293 OFFCURVE",
"113 253 OFFCURVE",
"100 182 CURVE SMOOTH",
"98 171 OFFCURVE",
"97 160 OFFCURVE",
"97 151 CURVE SMOOTH",
"97 75 OFFCURVE",
"147 37 OFFCURVE",
"231 37 CURVE SMOOTH",
"308 37 OFFCURVE",
"372 76 OFFCURVE",
"419 135 CURVE"
);
}
);
width = 673;
}
);
leftKerningGroup = ampersand;
rightKerningGroup = ampersand;
unicode = 0026;
},
{
glyphname = at;
layers = (
{
layerId = "FA36DF9C-9258-4115-A391-0F6A4D75F819";
name = "Light Italic";
paths = (
{
closed = 1;
nodes = (
"362 -121 LINE SMOOTH",
"173 -121 OFFCURVE",
"65 -8 OFFCURVE",
"65 191 CURVE SMOOTH",
"65 220 OFFCURVE",
"68 260 OFFCURVE",
"77 303 CURVE SMOOTH",
"101 422 OFFCURVE",
"156 523 OFFCURVE",
"233 595 CURVE SMOOTH",
"309 667 OFFCURVE",
"409 709 OFFCURVE",
"522 709 CURVE SMOOTH",
"613 709 OFFCURVE",
"688 681 OFFCURVE",
"741 630 CURVE SMOOTH",
"794 579 OFFCURVE",
"824 503 OFFCURVE",
"824 410 CURVE SMOOTH",
"824 389 OFFCURVE",
"822 359 OFFCURVE",
"815 320 CURVE SMOOTH",
"802 251 OFFCURVE",
"779 187 OFFCURVE",
"747 142 CURVE SMOOTH",
"714 97 OFFCURVE",
"670 69 OFFCURVE",
"614 69 CURVE SMOOTH",
"557 69 OFFCURVE",
"529 96 OFFCURVE",
"529 151 CURVE SMOOTH",
"529 163 LINE",
"525 163 LINE",
"501 112 OFFCURVE",
"451 69 OFFCURVE",
"383 69 CURVE SMOOTH",
"306 69 OFFCURVE",
"250 121 OFFCURVE",
"250 220 CURVE SMOOTH",
"250 241 OFFCURVE",
"252 266 OFFCURVE",
"259 297 CURVE SMOOTH",
"286 434 OFFCURVE",
"356 509 OFFCURVE",
"460 509 CURVE SMOOTH",
"523 509 OFFCURVE",
"562 475 OFFCURVE",
"574 422 CURVE",
"578 422 LINE",
"592 498 LINE",
"642 498 LINE",
"580 185 LINE",
"577 174 OFFCURVE",
"575 163 OFFCURVE",
"575 152 CURVE SMOOTH",
"575 125 OFFCURVE",
"590 112 OFFCURVE",
"621 112 CURVE SMOOTH",
"686 112 OFFCURVE",
"740 185 OFFCURVE",
"763 301 CURVE SMOOTH",
"772 350 LINE SMOOTH",
"777 373 OFFCURVE",
"778 394 OFFCURVE",
"778 414 CURVE SMOOTH",
"778 491 OFFCURVE",
"753 554 OFFCURVE",
"709 598 CURVE SMOOTH",
"664 642 OFFCURVE",
"598 666 OFFCURVE",
"518 666 CURVE SMOOTH",
"422 666 OFFCURVE",
"336 630 OFFCURVE",
"269 570 CURVE SMOOTH",
"201 510 OFFCURVE",
"152 424 OFFCURVE",
"131 324 CURVE SMOOTH",
"119 267 LINE SMOOTH",
"114 240 OFFCURVE",
"112 214 OFFCURVE",
"112 191 CURVE SMOOTH",
"112 23 OFFCURVE",
"202 -77 OFFCURVE",
"365 -77 CURVE SMOOTH",
"597 -77 LINE",
"588 -121 LINE"
);
},
{
closed = 1;
nodes = (
"432 115 OFFCURVE",
"465 129 OFFCURVE",
"490 151 CURVE SMOOTH",
"515 173 OFFCURVE",
"532 201 OFFCURVE",
"539 233 CURVE SMOOTH",
"565 361 LINE SMOOTH",
"570 388 OFFCURVE",
"563 413 OFFCURVE",
"545 432 CURVE SMOOTH",
"527 451 OFFCURVE",
"499 463 OFFCURVE",
"466 463 CURVE SMOOTH",
"390 463 OFFCURVE",
"336 408 OFFCURVE",
"320 327 CURVE SMOOTH",
"306 254 LINE",
"303 241 OFFCURVE",
"302 228 OFFCURVE",
"302 214 CURVE SMOOTH",
"302 153 OFFCURVE",
"336 115 OFFCURVE",
"399 115 CURVE SMOOTH"
);
}
);
width = 870;
}
);
leftKerningGroup = at;
rightKerningGroup = at;
unicode = 0040;
},
{
glyphname = hyphen;
layers = (
{
layerId = "FA36DF9C-9258-4115-A391-0F6A4D75F819";
name = "Light Italic";
paths = (
{
closed = 1;
nodes = (
"76 275 LINE",
"88 333 LINE",
"330 333 LINE",
"319 275 LINE"
);
}
);
width = 387;
}
);
leftKerningGroup = hyphen;
rightKerningGroup = hyphen;
unicode = 002D;
},
{
glyphname = uni00AD;
layers = (
{
layerId = "FA36DF9C-9258-4115-A391-0F6A4D75F819";
name = "Light Italic";
paths = (
{
closed = 1;
nodes = (
"76 275 LINE",
"88 333 LINE",
"330 333 LINE",
"319 275 LINE"
);
}
);
width = 387;
}
);
leftKerningGroup = hyphen;
rightKerningGroup = hyphen;
unicode = 00AD;
},
{
glyphname = endash;
layers = (
{
layerId = "FA36DF9C-9258-4115-A391-0F6A4D75F819";
name = "Light Italic";
paths = (
{
closed = 1;
nodes = (
"36 279 LINE",
"46 330 LINE",
"550 330 LINE",
"539 279 LINE"
);
}
);
width = 567;
}
);
leftKerningGroup = hyphen;
rightKerningGroup = hyphen;
unicode = 2013;
},
{
glyphname = emdash;
layers = (
{
layerId = "FA36DF9C-9258-4115-A391-0F6A4D75F819";
name = "Light Italic";
paths = (
{
closed = 1;
nodes = (
"36 279 LINE",
"46 330 LINE",
"737 330 LINE",
"727 279 LINE"
);
}
);
width = 754;
}
);
leftKerningGroup = hyphen;
rightKerningGroup = hyphen;
unicode = 2014;
},
{
glyphname = underscore;
layers = (
{
layerId = "FA36DF9C-9258-4115-A391-0F6A4D75F819";
name = "Light Italic";
paths = (
{
closed = 1;
nodes = (
"-54 -154 LINE",
"-44 -107 LINE",
"451 -107 LINE",
"441 -154 LINE"
);
}
);
width = 552;
}
);
leftKerningGroup = underscore;
rightKerningGroup = underscore;
unicode = 005F;
},
{
glyphname = period;
layers = (
{
layerId = "FA36DF9C-9258-4115-A391-0F6A4D75F819";
name = "Light Italic";
paths = (
{
closed = 1;
nodes = (
"53 -9 OFFCURVE",
"39 2 OFFCURVE",
"39 23 CURVE SMOOTH",
"39 30 OFFCURVE",
"40 43 OFFCURVE",
"43 51 CURVE",
"47 71 OFFCURVE",
"58 92 OFFCURVE",
"93 92 CURVE SMOOTH",
"120 92 OFFCURVE",
"134 81 OFFCURVE",
"134 60 CURVE SMOOTH",
"134 53 OFFCURVE",
"133 40 OFFCURVE",
"130 32 CURVE",
"126 12 OFFCURVE",
"115 -9 OFFCURVE",
"80 -9 CURVE SMOOTH"
);
}
);
width = 260;
}
);
leftKerningGroup = period;
rightKerningGroup = period;
unicode = 002E;
},
{
glyphname = ellipsis;
layers = (
{
layerId = "FA36DF9C-9258-4115-A391-0F6A4D75F819";
name = "Light Italic";
paths = (
{
closed = 1;
nodes = (
"53 -9 OFFCURVE",
"39 2 OFFCURVE",
"39 23 CURVE SMOOTH",
"39 30 OFFCURVE",
"40 43 OFFCURVE",
"43 51 CURVE",
"47 71 OFFCURVE",
"58 92 OFFCURVE",
"93 92 CURVE SMOOTH",
"120 92 OFFCURVE",
"134 81 OFFCURVE",
"134 60 CURVE SMOOTH",
"134 53 OFFCURVE",
"133 40 OFFCURVE",
"130 32 CURVE",
"126 12 OFFCURVE",
"115 -9 OFFCURVE",
"80 -9 CURVE SMOOTH"
);
},
{
closed = 1;
nodes = (
"313 -9 OFFCURVE",
"299 2 OFFCURVE",
"299 23 CURVE SMOOTH",
"299 30 OFFCURVE",
"300 43 OFFCURVE",
"303 51 CURVE",
"307 71 OFFCURVE",
"318 92 OFFCURVE",
"353 92 CURVE SMOOTH",
"380 92 OFFCURVE",
"394 81 OFFCURVE",
"394 60 CURVE SMOOTH",
"394 53 OFFCURVE",
"393 40 OFFCURVE",
"390 32 CURVE",
"386 12 OFFCURVE",
"375 -9 OFFCURVE",
"340 -9 CURVE SMOOTH"
);
},
{
closed = 1;
nodes = (
"573 -9 OFFCURVE",
"559 2 OFFCURVE",
"559 23 CURVE SMOOTH",
"559 30 OFFCURVE",
"560 43 OFFCURVE",
"563 51 CURVE",
"567 71 OFFCURVE",
"578 92 OFFCURVE",
"613 92 CURVE SMOOTH",
"640 92 OFFCURVE",
"654 81 OFFCURVE",
"654 60 CURVE SMOOTH",
"654 53 OFFCURVE",
"653 40 OFFCURVE",
"650 32 CURVE",
"646 12 OFFCURVE",
"635 -9 OFFCURVE",
"600 -9 CURVE SMOOTH"
);
}
);
width = 780;
}
);
leftKerningGroup = period;
rightKerningGroup = period;
unicode = 2026;
},
{
glyphname = colon;
layers = (
{
layerId = "FA36DF9C-9258-4115-A391-0F6A4D75F819";
name = "Light Italic";
paths = (
{
closed = 1;
nodes = (
"61 -9 OFFCURVE",
"47 2 OFFCURVE",
"47 23 CURVE SMOOTH",
"47 30 OFFCURVE",
"48 43 OFFCURVE",
"51 51 CURVE",
"55 71 OFFCURVE",
"66 92 OFFCURVE",
"101 92 CURVE SMOOTH",
"128 92 OFFCURVE",
"142 81 OFFCURVE",
"142 60 CURVE SMOOTH",
"142 53 OFFCURVE",
"141 40 OFFCURVE",
"138 32 CURVE",
"134 12 OFFCURVE",
"123 -9 OFFCURVE",
"88 -9 CURVE SMOOTH"
);
},
{
closed = 1;
nodes = (
"146 410 OFFCURVE",
"132 421 OFFCURVE",
"132 442 CURVE SMOOTH",
"132 449 OFFCURVE",
"133 462 OFFCURVE",
"136 470 CURVE",
"140 490 OFFCURVE",
"151 511 OFFCURVE",
"186 511 CURVE SMOOTH",
"213 511 OFFCURVE",
"227 500 OFFCURVE",
"227 479 CURVE SMOOTH",
"227 472 OFFCURVE",
"226 459 OFFCURVE",
"223 451 CURVE",
"219 431 OFFCURVE",
"208 410 OFFCURVE",
"173 410 CURVE SMOOTH"
);
}
);
width = 279;
}
);
leftKerningGroup = colon;
unicode = 003A;
},
{
glyphname = comma;
layers = (
{
layerId = "FA36DF9C-9258-4115-A391-0F6A4D75F819";
name = "Light Italic";
paths = (
{
closed = 1;
nodes = (
"119 92 OFFCURVE",
"133 81 OFFCURVE",
"133 60 CURVE SMOOTH",
"133 53 OFFCURVE",
"133 42 OFFCURVE",
"130 34 CURVE",
"123 7 OFFCURVE",
"111 -23 OFFCURVE",
"92 -54 CURVE SMOOTH",
"73 -86 OFFCURVE",
"48 -115 OFFCURVE",
"17 -138 CURVE",
"-31 -138 LINE",
"22 -93 OFFCURVE",
"51 -47 OFFCURVE",
"68 -6 CURVE",
"48 -3 OFFCURVE",
"38 7 OFFCURVE",
"38 24 CURVE SMOOTH",
"38 32 OFFCURVE",
"39 43 OFFCURVE",
"42 50 CURVE",
"47 71 OFFCURVE",
"57 92 OFFCURVE",
"92 92 CURVE SMOOTH"
);
}
);
width = 260;
}
);
leftKerningGroup = period;
rightKerningGroup = period;
unicode = 002C;
},
{
glyphname = semicolon;
layers = (
{
layerId = "FA36DF9C-9258-4115-A391-0F6A4D75F819";
name = "Light Italic";
paths = (
{
closed = 1;
nodes = (
"127 92 OFFCURVE",
"141 81 OFFCURVE",
"141 60 CURVE SMOOTH",
"141 53 OFFCURVE",
"141 42 OFFCURVE",
"138 34 CURVE",
"131 7 OFFCURVE",
"119 -23 OFFCURVE",
"100 -54 CURVE SMOOTH",
"81 -86 OFFCURVE",
"56 -115 OFFCURVE",
"25 -138 CURVE",
"-23 -138 LINE",
"30 -93 OFFCURVE",
"59 -47 OFFCURVE",
"76 -6 CURVE",
"56 -3 OFFCURVE",
"46 7 OFFCURVE",
"46 24 CURVE SMOOTH",
"46 32 OFFCURVE",
"47 43 OFFCURVE",
"50 50 CURVE",
"55 71 OFFCURVE",
"65 92 OFFCURVE",
"100 92 CURVE SMOOTH"
);
},
{
closed = 1;
nodes = (
"146 410 OFFCURVE",
"132 421 OFFCURVE",
"132 442 CURVE SMOOTH",
"132 449 OFFCURVE",
"133 462 OFFCURVE",
"136 470 CURVE",
"140 490 OFFCURVE",
"151 511 OFFCURVE",
"186 511 CURVE SMOOTH",
"213 511 OFFCURVE",
"227 500 OFFCURVE",
"227 479 CURVE SMOOTH",
"227 472 OFFCURVE",
"226 459 OFFCURVE",
"223 451 CURVE",
"219 431 OFFCURVE",
"208 410 OFFCURVE",
"173 410 CURVE SMOOTH"
);
}
);
width = 279;
}
);
leftKerningGroup = colon;
unicode = 003B;
},
{
glyphname = quotesingle;
layers = (
{
layerId = "FA36DF9C-9258-4115-A391-0F6A4D75F819";
name = "Light Italic";
paths = (
{
closed = 1;
nodes = (
"131 472 LINE",
"185 740 LINE",
"236 740 LINE",
"182 472 LINE"
);
}
);
width = 228;
}
);
leftKerningGroup = quotesingle;
rightKerningGroup = quotesingle;
unicode = 0027;
},
{
glyphname = quotedbl;
layers = (
{
layerId = "FA36DF9C-9258-4115-A391-0F6A4D75F819";
name = "Light Italic";
paths = (
{
closed = 1;
nodes = (
"131 472 LINE",
"185 740 LINE",
"236 740 LINE",
"182 472 LINE"
);
},
{
closed = 1;
nodes = (
"298 472 LINE",
"352 740 LINE",
"403 740 LINE",
"349 472 LINE"
);
}
);
width = 395;
}
);
leftKerningGroup = quotesingle;
rightKerningGroup = quotesingle;
unicode = 0022;
},
{
glyphname = quoteleft;
layers = (
{
layerId = "FA36DF9C-9258-4115-A391-0F6A4D75F819";
name = "Light Italic";
paths = (
{
closed = 1;
nodes = (
"155 510 OFFCURVE",
"141 521 OFFCURVE",
"141 542 CURVE SMOOTH",
"141 549 OFFCURVE",
"141 560 OFFCURVE",
"144 568 CURVE",
"149 593 OFFCURVE",
"163 625 OFFCURVE",
"182 657 CURVE SMOOTH",
"201 688 OFFCURVE",
"226 717 OFFCURVE",
"257 740 CURVE",
"305 740 LINE",
"252 695 OFFCURVE",
"223 649 OFFCURVE",
"206 608 CURVE",
"226 605 OFFCURVE",
"236 595 OFFCURVE",
"236 578 CURVE SMOOTH",
"236 570 OFFCURVE",
"235 559 OFFCURVE",
"232 552 CURVE",
"227 531 OFFCURVE",
"217 510 OFFCURVE",
"182 510 CURVE SMOOTH"
);
}
);
width = 260;
}
);
leftKerningGroup = quoteleft;
rightKerningGroup = quoteleft;
unicode = 2018;
},
{
glyphname = quoteright;
layers = (
{
layerId = "FA36DF9C-9258-4115-A391-0F6A4D75F819";
name = "Light Italic";
paths = (
{
closed = 1;
nodes = (
"257 750 OFFCURVE",
"271 739 OFFCURVE",
"271 718 CURVE SMOOTH",
"271 711 OFFCURVE",
"271 700 OFFCURVE",
"268 692 CURVE",
"261 665 OFFCURVE",
"249 635 OFFCURVE",
"230 604 CURVE SMOOTH",
"211 572 OFFCURVE",
"186 543 OFFCURVE",
"155 520 CURVE",
"107 520 LINE",
"160 565 OFFCURVE",
"189 611 OFFCURVE",
"206 652 CURVE",
"186 655 OFFCURVE",
"176 665 OFFCURVE",
"176 682 CURVE SMOOTH",
"176 690 OFFCURVE",
"177 701 OFFCURVE",
"180 708 CURVE",
"185 729 OFFCURVE",
"195 750 OFFCURVE",
"230 750 CURVE SMOOTH"
);
}
);
width = 260;
}
);
leftKerningGroup = quoteright;
rightKerningGroup = quoteright;
unicode = 2019;
},
{
glyphname = quotedblleft;
layers = (
{
layerId = "FA36DF9C-9258-4115-A391-0F6A4D75F819";
name = "Light Italic";
paths = (
{
closed = 1;
nodes = (
"155 510 OFFCURVE",
"141 521 OFFCURVE",
"141 542 CURVE SMOOTH",
"141 549 OFFCURVE",
"141 560 OFFCURVE",
"144 568 CURVE",
"149 593 OFFCURVE",
"163 625 OFFCURVE",
"182 657 CURVE SMOOTH",
"201 688 OFFCURVE",
"226 717 OFFCURVE",
"257 740 CURVE",
"305 740 LINE",
"252 695 OFFCURVE",
"223 649 OFFCURVE",
"206 608 CURVE",
"226 605 OFFCURVE",
"236 595 OFFCURVE",
"236 578 CURVE SMOOTH",
"236 570 OFFCURVE",
"235 559 OFFCURVE",
"232 552 CURVE",
"227 531 OFFCURVE",
"217 510 OFFCURVE",
"182 510 CURVE SMOOTH"
);
},
{
closed = 1;
nodes = (
"337 510 OFFCURVE",
"323 521 OFFCURVE",
"323 542 CURVE SMOOTH",
"323 549 OFFCURVE",
"323 560 OFFCURVE",
"326 568 CURVE",
"331 593 OFFCURVE",
"345 625 OFFCURVE",
"364 657 CURVE SMOOTH",
"383 688 OFFCURVE",
"408 717 OFFCURVE",
"439 740 CURVE",
"487 740 LINE",
"434 695 OFFCURVE",
"405 649 OFFCURVE",
"388 608 CURVE",
"408 605 OFFCURVE",
"418 595 OFFCURVE",
"418 578 CURVE SMOOTH",
"418 570 OFFCURVE",
"417 559 OFFCURVE",
"414 552 CURVE",
"409 531 OFFCURVE",
"399 510 OFFCURVE",
"364 510 CURVE SMOOTH"
);
}
);
width = 443;
}
);
leftKerningGroup = quoteleft;
rightKerningGroup = quoteleft;
unicode = 201C;
},
{
glyphname = quotedblright;
layers = (
{
layerId = "FA36DF9C-9258-4115-A391-0F6A4D75F819";
name = "Light Italic";
paths = (
{
closed = 1;
nodes = (
"257 750 OFFCURVE",
"271 739 OFFCURVE",
"271 718 CURVE SMOOTH",
"271 711 OFFCURVE",
"271 700 OFFCURVE",
"268 692 CURVE",
"261 665 OFFCURVE",
"249 635 OFFCURVE",
"230 604 CURVE SMOOTH",
"211 572 OFFCURVE",
"186 543 OFFCURVE",
"155 520 CURVE",
"107 520 LINE",
"160 565 OFFCURVE",
"189 611 OFFCURVE",
"206 652 CURVE",
"186 655 OFFCURVE",
"176 665 OFFCURVE",
"176 682 CURVE SMOOTH",
"176 690 OFFCURVE",
"177 701 OFFCURVE",
"180 708 CURVE",
"185 729 OFFCURVE",
"195 750 OFFCURVE",
"230 750 CURVE SMOOTH"
);
},
{
closed = 1;
nodes = (
"439 750 OFFCURVE",
"453 739 OFFCURVE",
"453 718 CURVE SMOOTH",
"453 711 OFFCURVE",
"453 700 OFFCURVE",
"450 692 CURVE",
"443 665 OFFCURVE",
"431 635 OFFCURVE",
"412 604 CURVE SMOOTH",
"393 572 OFFCURVE",
"368 543 OFFCURVE",
"337 520 CURVE",
"289 520 LINE",
"342 565 OFFCURVE",
"371 611 OFFCURVE",
"388 652 CURVE",
"368 655 OFFCURVE",
"358 665 OFFCURVE",
"358 682 CURVE SMOOTH",
"358 690 OFFCURVE",
"359 701 OFFCURVE",
"362 708 CURVE",
"367 729 OFFCURVE",
"377 750 OFFCURVE",
"412 750 CURVE SMOOTH"
);
}
);
width = 443;
}
);
leftKerningGroup = quoteright;
rightKerningGroup = quoteright;
unicode = 201D;
},
{
glyphname = quotesinglbase;
layers = (
{
layerId = "FA36DF9C-9258-4115-A391-0F6A4D75F819";
name = "Light Italic";
paths = (
{
closed = 1;
nodes = (
"120 107 OFFCURVE",
"134 96 OFFCURVE",
"134 75 CURVE SMOOTH",
"134 68 OFFCURVE",
"134 57 OFFCURVE",
"131 49 CURVE",
"124 22 OFFCURVE",
"112 -8 OFFCURVE",
"93 -39 CURVE SMOOTH",
"74 -71 OFFCURVE",
"49 -100 OFFCURVE",
"18 -123 CURVE",
"-30 -123 LINE",
"23 -78 OFFCURVE",
"52 -32 OFFCURVE",
"69 9 CURVE",
"49 12 OFFCURVE",
"39 22 OFFCURVE",
"39 39 CURVE SMOOTH",
"39 47 OFFCURVE",
"40 58 OFFCURVE",
"43 65 CURVE",
"48 86 OFFCURVE",
"58 107 OFFCURVE",
"93 107 CURVE SMOOTH"
);
}
);
width = 260;
}
);
leftKerningGroup = period;
rightKerningGroup = period;
unicode = 201A;
},
{
glyphname = quotedblbase;
layers = (
{
layerId = "FA36DF9C-9258-4115-A391-0F6A4D75F819";
name = "Light Italic";
paths = (
{
closed = 1;
nodes = (
"120 107 OFFCURVE",
"134 96 OFFCURVE",
"134 75 CURVE SMOOTH",
"134 68 OFFCURVE",
"134 57 OFFCURVE",
"131 49 CURVE",
"124 22 OFFCURVE",
"112 -8 OFFCURVE",
"93 -39 CURVE SMOOTH",
"74 -71 OFFCURVE",
"49 -100 OFFCURVE",
"18 -123 CURVE",
"-30 -123 LINE",
"23 -78 OFFCURVE",
"52 -32 OFFCURVE",
"69 9 CURVE",
"49 12 OFFCURVE",
"39 22 OFFCURVE",
"39 39 CURVE SMOOTH",
"39 47 OFFCURVE",
"40 58 OFFCURVE",
"43 65 CURVE",
"48 86 OFFCURVE",
"58 107 OFFCURVE",
"93 107 CURVE SMOOTH"
);
},
{
closed = 1;
nodes = (
"302 107 OFFCURVE",
"316 96 OFFCURVE",
"316 75 CURVE SMOOTH",
"316 68 OFFCURVE",
"316 57 OFFCURVE",
"313 49 CURVE",
"306 22 OFFCURVE",
"294 -8 OFFCURVE",
"275 -39 CURVE SMOOTH",
"256 -71 OFFCURVE",
"231 -100 OFFCURVE",
"200 -123 CURVE",
"152 -123 LINE",
"205 -78 OFFCURVE",
"234 -32 OFFCURVE",
"251 9 CURVE",
"231 12 OFFCURVE",
"221 22 OFFCURVE",
"221 39 CURVE SMOOTH",
"221 47 OFFCURVE",
"222 58 OFFCURVE",
"225 65 CURVE",
"230 86 OFFCURVE",
"240 107 OFFCURVE",
"275 107 CURVE SMOOTH"
);
}
);
width = 443;
}
);
leftKerningGroup = period;
rightKerningGroup = period;
unicode = 201E;
},
{
glyphname = guilsinglleft;
layers = (
{
layerId = "FA36DF9C-9258-4115-A391-0F6A4D75F819";
name = "Light Italic";
paths = (
{
closed = 1;
nodes = (
"193 89 LINE",
"36 263 LINE",
"47 316 LINE",
"270 486 LINE",
"281 443 LINE",
"96 284 LINE",
"217 125 LINE"
);
}
);
width = 293;
}
);
leftKerningGroup = guilsinglleft;
rightKerningGroup = guilsinglleft;
unicode = 2039;
},
{
glyphname = guilsinglright;
layers = (
{
layerId = "FA36DF9C-9258-4115-A391-0F6A4D75F819";
name = "Light Italic";
paths = (
{
closed = 1;
nodes = (
"21 132 LINE",
"207 290 LINE",
"85 449 LINE",
"109 486 LINE",
"266 311 LINE",
"256 259 LINE",
"32 89 LINE"
);
}
);
width = 293;
}
);
leftKerningGroup = guilsinglright;
rightKerningGroup = guilsinglright;
unicode = 203A;
},
{
glyphname = guillemotleft;
layers = (
{
layerId = "FA36DF9C-9258-4115-A391-0F6A4D75F819";
name = "Light Italic";
paths = (
{
closed = 1;
nodes = (
"193 89 LINE",
"36 263 LINE",
"47 316 LINE",
"270 486 LINE",
"281 443 LINE",
"96 284 LINE",
"217 125 LINE"
);
},
{
closed = 1;
nodes = (
"384 89 LINE",
"227 263 LINE",
"238 316 LINE",
"461 486 LINE",
"472 443 LINE",
"287 284 LINE",
"408 125 LINE"
);
}
);
width = 485;
}
);
leftKerningGroup = guilsinglleft;
rightKerningGroup = guilsinglleft;
unicode = 00AB;
},
{
glyphname = guillemotright;
layers = (
{
layerId = "FA36DF9C-9258-4115-A391-0F6A4D75F819";
name = "Light Italic";
paths = (
{
closed = 1;
nodes = (
"212 132 LINE",
"398 290 LINE",
"276 449 LINE",
"300 486 LINE",
"457 311 LINE",
"447 259 LINE",
"223 89 LINE"
);
},
{
closed = 1;
nodes = (
"21 132 LINE",
"207 290 LINE",
"85 449 LINE",
"109 486 LINE",
"266 311 LINE",
"256 259 LINE",
"32 89 LINE"
);
}
);
width = 485;
}
);
leftKerningGroup = guilsinglright;
rightKerningGroup = guilsinglright;
unicode = 00BB;
},
{
glyphname = exclamdown;
layers = (
{
layerId = "FA36DF9C-9258-4115-A391-0F6A4D75F819";
name = "Light Italic";
paths = (
{
closed = 1;
nodes = (
"13 -185 LINE",
"60 50 LINE",
"132 331 LINE",
"160 331 LINE",
"119 50 LINE",
"73 -185 LINE"
);
},
{
closed = 1;
nodes = (
"139 420 OFFCURVE",
"125 431 OFFCURVE",
"125 452 CURVE SMOOTH",
"125 459 OFFCURVE",
"126 472 OFFCURVE",
"129 480 CURVE",
"133 500 OFFCURVE",
"144 521 OFFCURVE",
"179 521 CURVE SMOOTH",
"206 521 OFFCURVE",
"220 510 OFFCURVE",
"220 489 CURVE SMOOTH",
"220 482 OFFCURVE",
"219 469 OFFCURVE",
"216 461 CURVE",
"212 441 OFFCURVE",
"201 420 OFFCURVE",
"166 420 CURVE SMOOTH"
);
}
);
width = 262;
}
);
leftKerningGroup = exclamdown;
rightKerningGroup = exclamdown;
unicode = 00A1;
},
{
glyphname = exclam;
layers = (
{
layerId = "FA36DF9C-9258-4115-A391-0F6A4D75F819";
name = "Light Italic";
paths = (
{
closed = 1;
nodes = (
"102 181 LINE",
"143 463 LINE",
"189 698 LINE",
"249 698 LINE",
"202 463 LINE",
"130 181 LINE"
);
},
{
closed = 1;
nodes = (
"56 -9 OFFCURVE",
"42 2 OFFCURVE",
"42 23 CURVE SMOOTH",
"42 30 OFFCURVE",
"43 43 OFFCURVE",
"46 51 CURVE",
"50 71 OFFCURVE",
"61 92 OFFCURVE",
"96 92 CURVE SMOOTH",
"123 92 OFFCURVE",
"137 81 OFFCURVE",
"137 60 CURVE SMOOTH",
"137 53 OFFCURVE",
"136 40 OFFCURVE",
"133 32 CURVE",
"129 12 OFFCURVE",
"118 -9 OFFCURVE",
"83 -9 CURVE SMOOTH"
);
}
);
width = 262;
}
);
leftKerningGroup = exclam;
unicode = 0021;
},
{
glyphname = questiondown;
layers = (
{
layerId = "FA36DF9C-9258-4115-A391-0F6A4D75F819";
name = "Light Italic";
paths = (
{
closed = 1;
nodes = (
"54 -198 OFFCURVE",
"-14 -138 OFFCURVE",
"-14 -39 CURVE SMOOTH",
"-14 18 OFFCURVE",
"7 71 OFFCURVE",
"45 112 CURVE SMOOTH",
"83 152 OFFCURVE",
"139 179 OFFCURVE",
"214 190 CURVE",
"239 316 LINE",
"293 316 LINE",
"260 148 LINE",
"139 141 OFFCURVE",
"63 88 OFFCURVE",
"50 5 CURVE",
"47 -6 OFFCURVE",
"46 -25 OFFCURVE",
"46 -36 CURVE SMOOTH",
"46 -104 OFFCURVE",
"87 -147 OFFCURVE",
"166 -147 CURVE SMOOTH",
"253 -147 OFFCURVE",
"299 -97 OFFCURVE",
"330 -21 CURVE",
"379 -40 LINE",
"340 -136 OFFCURVE",
"273 -198 OFFCURVE",
"162 -198 CURVE SMOOTH"
);
},
{
closed = 1;
nodes = (
"261 420 OFFCURVE",
"247 431 OFFCURVE",
"247 452 CURVE SMOOTH",
"247 459 OFFCURVE",
"248 472 OFFCURVE",
"251 480 CURVE",
"255 500 OFFCURVE",
"266 521 OFFCURVE",
"301 521 CURVE SMOOTH",
"328 521 OFFCURVE",
"342 510 OFFCURVE",
"342 489 CURVE SMOOTH",
"342 482 OFFCURVE",
"341 469 OFFCURVE",
"338 461 CURVE",
"334 441 OFFCURVE",
"323 420 OFFCURVE",
"288 420 CURVE SMOOTH"
);
}
);
width = 463;
}
);
leftKerningGroup = questiondown;
rightKerningGroup = questiondown;
unicode = 00BF;
},
{
glyphname = question;
layers = (
{
layerId = "FA36DF9C-9258-4115-A391-0F6A4D75F819";
name = "Light Italic";
paths = (
{
closed = 1;
nodes = (
"173 196 LINE",
"206 364 LINE",
"327 371 OFFCURVE",
"403 423 OFFCURVE",
"416 507 CURVE",
"419 518 OFFCURVE",
"420 537 OFFCURVE",
"420 548 CURVE SMOOTH",
"420 616 OFFCURVE",
"379 659 OFFCURVE",
"300 659 CURVE SMOOTH",
"213 659 OFFCURVE",
"167 609 OFFCURVE",
"136 533 CURVE",
"87 551 LINE",
"126 647 OFFCURVE",
"193 710 OFFCURVE",
"304 710 CURVE SMOOTH",
"412 710 OFFCURVE",
"480 650 OFFCURVE",
"480 551 CURVE SMOOTH",
"480 492 OFFCURVE",
"460 441 OFFCURVE",
"422 401 CURVE SMOOTH",
"384 360 OFFCURVE",
"325 331 OFFCURVE",
"252 322 CURVE",
"227 196 LINE"
);
},
{
closed = 1;
nodes = (
"138 -9 OFFCURVE",
"124 2 OFFCURVE",
"124 23 CURVE SMOOTH",
"124 30 OFFCURVE",
"125 43 OFFCURVE",
"128 51 CURVE",
"132 71 OFFCURVE",
"143 92 OFFCURVE",
"178 92 CURVE SMOOTH",
"205 92 OFFCURVE",
"219 81 OFFCURVE",
"219 60 CURVE SMOOTH",
"219 53 OFFCURVE",
"218 40 OFFCURVE",
"215 32 CURVE",
"211 12 OFFCURVE",
"200 -9 OFFCURVE",
"165 -9 CURVE SMOOTH"
);
}
);
width = 463;
}
);
leftKerningGroup = question;
rightKerningGroup = question;
unicode = 003F;
},
{
glyphname = parenleft;
layers = (
{
layerId = "FA36DF9C-9258-4115-A391-0F6A4D75F819";
name = "Light Italic";
paths = (
{
closed = 1;
nodes = (
"88 330 OFFCURVE",
"120 441 OFFCURVE",
"170 535 CURVE SMOOTH",
"220 629 OFFCURVE",
"287 705 OFFCURVE",
"359 760 CURVE",
"415 760 LINE",
"351 712 OFFCURVE",
"294 649 OFFCURVE",
"250 581 CURVE SMOOTH",
"205 512 OFFCURVE",
"171 436 OFFCURVE",
"158 363 CURVE SMOOTH",
"146 298 LINE SMOOTH",
"140 268 OFFCURVE",
"137 237 OFFCURVE",
"137 206 CURVE SMOOTH",
"137 73 OFFCURVE",
"174 -45 OFFCURVE",
"246 -137 CURVE",
"197 -137 LINE",
"133 -58 OFFCURVE",
"88 62 OFFCURVE",
"88 211 CURVE SMOOTH"
);
}
);
width = 329;
}
);
rightKerningGroup = parenleft;
unicode = 0028;
},
{
glyphname = parenright;
layers = (
{
layerId = "FA36DF9C-9258-4115-A391-0F6A4D75F819";
name = "Light Italic";
paths = (
{
closed = 1;
nodes = (
"261 292 OFFCURVE",
"230 182 OFFCURVE",
"180 88 CURVE SMOOTH",
"130 -6 OFFCURVE",
"63 -84 OFFCURVE",
"-9 -137 CURVE",
"-65 -137 LINE",
"-2 -89 OFFCURVE",
"55 -27 OFFCURVE",
"100 42 CURVE SMOOTH",
"144 111 OFFCURVE",
"176 185 OFFCURVE",
"191 260 CURVE SMOOTH",
"204 325 LINE SMOOTH",
"211 356 OFFCURVE",
"212 385 OFFCURVE",
"212 416 CURVE SMOOTH",
"212 549 OFFCURVE",
"176 668 OFFCURVE",
"104 760 CURVE",
"153 760 LINE",
"216 680 OFFCURVE",
"261 562 OFFCURVE",
"261 411 CURVE SMOOTH"
);
}
);
width = 329;
}
);
leftKerningGroup = parenright;
unicode = 0029;
},
{
glyphname = bracketleft;
layers = (
{
layerId = "FA36DF9C-9258-4115-A391-0F6A4D75F819";
name = "Light Italic";
paths = (
{
closed = 1;
nodes = (
"20 -138 LINE",
"200 760 LINE",
"345 760 LINE",
"336 716 LINE",
"241 716 LINE",
"79 -94 LINE",
"173 -94 LINE",
"165 -138 LINE"
);
}
);
width = 311;
}
);
rightKerningGroup = bracketleft;
unicode = 005B;
},
{
glyphname = bracketright;
layers = (
{
layerId = "FA36DF9C-9258-4115-A391-0F6A4D75F819";
name = "Light Italic";
paths = (
{
closed = 1;
nodes = (
"314 760 LINE",
"134 -138 LINE",
"-12 -138 LINE",
"-2 -94 LINE",
"93 -94 LINE",
"255 716 LINE",
"160 716 LINE",
"169 760 LINE"
);
}
);
width = 311;
}
);
leftKerningGroup = bracketright;
unicode = 005D;
},
{
glyphname = braceleft;
layers = (
{
layerId = "FA36DF9C-9258-4115-A391-0F6A4D75F819";
name = "Light Italic";
paths = (
{
closed = 1;
nodes = (
"98 -138 LINE SMOOTH",
"66 -138 OFFCURVE",
"49 -120 OFFCURVE",
"49 -93 CURVE SMOOTH",
"49 -89 OFFCURVE",
"50 -80 OFFCURVE",
"53 -67 CURVE SMOOTH",
"104 189 LINE SMOOTH",
"106 199 OFFCURVE",
"107 208 OFFCURVE",
"107 215 CURVE SMOOTH",
"107 260 OFFCURVE",
"77 278 OFFCURVE",
"30 278 CURVE",
"43 344 LINE",
"110 344 OFFCURVE",
"142 377 OFFCURVE",
"153 433 CURVE SMOOTH",
"206 699 LINE SMOOTH",
"214 740 OFFCURVE",
"236 760 OFFCURVE",
"271 760 CURVE SMOOTH",
"363 760 LINE",
"355 715 LINE",
"259 715 LINE",
"204 436 LINE SMOOTH",
"191 373 OFFCURVE",
"157 322 OFFCURVE",
"85 317 CURVE",
"82 301 LINE",
"130 296 OFFCURVE",
"158 267 OFFCURVE",
"158 218 CURVE SMOOTH",
"158 207 OFFCURVE",
"157 197 OFFCURVE",
"154 186 CURVE",
"98 -93 LINE",
"195 -93 LINE",
"184 -138 LINE"
);
}
);
width = 324;
}
);
rightKerningGroup = bracketleft;
unicode = 007B;
},
{
glyphname = braceright;
layers = (
{
layerId = "FA36DF9C-9258-4115-A391-0F6A4D75F819";
name = "Light Italic";
paths = (
{
closed = 1;
nodes = (
"-9 -93 LINE",
"87 -93 LINE",
"142 186 LINE SMOOTH",
"154 249 OFFCURVE",
"188 299 OFFCURVE",
"260 304 CURVE",
"264 320 LINE",
"216 325 OFFCURVE",
"188 355 OFFCURVE",
"188 404 CURVE SMOOTH",
"188 415 OFFCURVE",
"189 425 OFFCURVE",
"192 436 CURVE",
"248 715 LINE",
"151 715 LINE",
"161 760 LINE",
"248 760 LINE SMOOTH",
"280 760 OFFCURVE",
"296 742 OFFCURVE",
"296 715 CURVE SMOOTH",
"296 712 OFFCURVE",
"296 709 OFFCURVE",
"296 706 CURVE",
"295 702 OFFCURVE",
"294 696 OFFCURVE",
"293 689 CURVE",
"241 433 LINE SMOOTH",
"239 423 OFFCURVE",
"238 414 OFFCURVE",
"238 407 CURVE SMOOTH",
"238 362 OFFCURVE",
"269 344 OFFCURVE",
"316 344 CURVE",
"302 278 LINE",
"237 278 OFFCURVE",
"204 245 OFFCURVE",
"193 189 CURVE SMOOTH",
"139 -77 LINE SMOOTH",
"131 -118 OFFCURVE",
"110 -138 OFFCURVE",
"75 -138 CURVE SMOOTH",
"-17 -138 LINE"
);
}
);
width = 324;
}
);
leftKerningGroup = bracketright;
unicode = 007D;
},
{
glyphname = slash;
layers = (
{
layerId = "FA36DF9C-9258-4115-A391-0F6A4D75F819";
name = "Light Italic";
paths = (
{
closed = 1;
nodes = (
"-72 -151 LINE",
"356 740 LINE",
"407 740 LINE",
"-20 -151 LINE"
);
}
);
width = 348;
}
);
leftKerningGroup = slash;
rightKerningGroup = slash;
unicode = 002F;
},
{
glyphname = backslash;
layers = (
{
layerId = "FA36DF9C-9258-4115-A391-0F6A4D75F819";
name = "Light Italic";
paths = (
{
closed = 1;
nodes = (
"207 -151 LINE",
"136 740 LINE",
"184 740 LINE",
"255 -151 LINE"
);
}
);
width = 348;
}
);
unicode = 005C;
},
{
glyphname = fraction;
layers = (
{
layerId = "FA36DF9C-9258-4115-A391-0F6A4D75F819";
name = "Light Italic";
paths = (
{
closed = 1;
nodes = (
"-234 0 LINE",
"373 698 LINE",
"426 698 LINE",
"-181 0 LINE"
);
}
);
width = 148;
}
);
unicode = 2044;
},
{
glyphname = percent;
layers = (
{
layerId = "FA36DF9C-9258-4115-A391-0F6A4D75F819";
name = "Light Italic";
paths = (
{
closed = 1;
nodes = (
"129 0 LINE",
"734 698 LINE",
"792 698 LINE",
"187 0 LINE"
);
},
{
closed = 1;
nodes = (
"156 319 OFFCURVE",
"111 374 OFFCURVE",
"111 458 CURVE SMOOTH",
"111 518 OFFCURVE",
"126 581 OFFCURVE",
"156 629 CURVE SMOOTH",
"186 677 OFFCURVE",
"232 710 OFFCURVE",
"295 710 CURVE SMOOTH",
"372 710 OFFCURVE",
"417 655 OFFCURVE",
"417 571 CURVE SMOOTH",
"417 511 OFFCURVE",
"403 448 OFFCURVE",
"373 400 CURVE SMOOTH",
"343 352 OFFCURVE",
"296 319 OFFCURVE",
"233 319 CURVE SMOOTH"
);
},
{
closed = 1;
nodes = (
"298 356 OFFCURVE",
"337 403 OFFCURVE",
"354 486 CURVE SMOOTH",
"365 540 LINE SMOOTH",
"368 553 OFFCURVE",
"369 569 OFFCURVE",
"369 582 CURVE SMOOTH",
"369 637 OFFCURVE",
"343 673 OFFCURVE",
"291 673 CURVE SMOOTH",
"230 673 OFFCURVE",
"191 626 OFFCURVE",
"174 543 CURVE SMOOTH",
"163 489 LINE SMOOTH",
"160 476 OFFCURVE",
"159 460 OFFCURVE",
"159 447 CURVE SMOOTH",
"159 392 OFFCURVE",
"185 356 OFFCURVE",
"237 356 CURVE SMOOTH"
);
},
{
closed = 1;
nodes = (
"549 -12 OFFCURVE",
"504 43 OFFCURVE",
"504 127 CURVE SMOOTH",
"504 187 OFFCURVE",
"519 250 OFFCURVE",
"549 298 CURVE SMOOTH",
"579 346 OFFCURVE",
"625 379 OFFCURVE",
"688 379 CURVE SMOOTH",
"765 379 OFFCURVE",
"810 324 OFFCURVE",
"810 240 CURVE SMOOTH",
"810 180 OFFCURVE",
"796 117 OFFCURVE",
"766 69 CURVE SMOOTH",
"736 21 OFFCURVE",
"689 -12 OFFCURVE",
"626 -12 CURVE SMOOTH"
);
},
{
closed = 1;
nodes = (
"691 25 OFFCURVE",
"730 72 OFFCURVE",
"747 155 CURVE SMOOTH",
"758 209 LINE SMOOTH",
"761 222 OFFCURVE",
"762 238 OFFCURVE",
"762 251 CURVE SMOOTH",
"762 306 OFFCURVE",
"736 342 OFFCURVE",
"684 342 CURVE SMOOTH",
"623 342 OFFCURVE",
"584 295 OFFCURVE",
"567 212 CURVE SMOOTH",
"556 158 LINE SMOOTH",
"553 145 OFFCURVE",
"552 129 OFFCURVE",
"552 116 CURVE SMOOTH",
"552 61 OFFCURVE",
"578 25 OFFCURVE",
"630 25 CURVE SMOOTH"
);
}
);
width = 893;
}
);
rightKerningGroup = percent;
unicode = 0025;
},
{
glyphname = perthousand;
layers = (
{
layerId = "FA36DF9C-9258-4115-A391-0F6A4D75F819";
name = "Light Italic";
paths = (
{
closed = 1;
nodes = (
"129 0 LINE",
"734 698 LINE",
"792 698 LINE",
"187 0 LINE"
);
},
{
closed = 1;
nodes = (
"156 319 OFFCURVE",
"111 374 OFFCURVE",
"111 458 CURVE SMOOTH",
"111 518 OFFCURVE",
"126 581 OFFCURVE",
"156 629 CURVE SMOOTH",
"186 677 OFFCURVE",
"232 710 OFFCURVE",
"295 710 CURVE SMOOTH",
"372 710 OFFCURVE",
"417 655 OFFCURVE",
"417 571 CURVE SMOOTH",
"417 511 OFFCURVE",
"403 448 OFFCURVE",
"373 400 CURVE SMOOTH",
"343 352 OFFCURVE",
"296 319 OFFCURVE",
"233 319 CURVE SMOOTH"
);
},
{
closed = 1;
nodes = (
"298 356 OFFCURVE",
"337 403 OFFCURVE",
"354 486 CURVE SMOOTH",
"365 540 LINE SMOOTH",
"368 553 OFFCURVE",
"369 569 OFFCURVE",
"369 582 CURVE SMOOTH",
"369 637 OFFCURVE",
"343 673 OFFCURVE",
"291 673 CURVE SMOOTH",
"230 673 OFFCURVE",
"191 626 OFFCURVE",
"174 543 CURVE SMOOTH",
"163 489 LINE SMOOTH",
"160 476 OFFCURVE",
"159 460 OFFCURVE",
"159 447 CURVE SMOOTH",
"159 392 OFFCURVE",
"185 356 OFFCURVE",
"237 356 CURVE SMOOTH"
);
},
{
closed = 1;
nodes = (
"549 -12 OFFCURVE",
"504 43 OFFCURVE",
"504 127 CURVE SMOOTH",
"504 187 OFFCURVE",
"519 250 OFFCURVE",
"549 298 CURVE SMOOTH",
"579 346 OFFCURVE",
"625 379 OFFCURVE",
"688 379 CURVE SMOOTH",
"765 379 OFFCURVE",
"810 324 OFFCURVE",
"810 240 CURVE SMOOTH",
"810 180 OFFCURVE",
"796 117 OFFCURVE",
"766 69 CURVE SMOOTH",
"736 21 OFFCURVE",
"689 -12 OFFCURVE",
"626 -12 CURVE SMOOTH"
);
},
{
closed = 1;
nodes = (
"691 25 OFFCURVE",
"730 72 OFFCURVE",
"747 155 CURVE SMOOTH",
"758 209 LINE SMOOTH",
"761 222 OFFCURVE",
"762 238 OFFCURVE",
"762 251 CURVE SMOOTH",
"762 306 OFFCURVE",
"736 342 OFFCURVE",
"684 342 CURVE SMOOTH",
"623 342 OFFCURVE",
"584 295 OFFCURVE",
"567 212 CURVE SMOOTH",
"556 158 LINE SMOOTH",
"553 145 OFFCURVE",
"552 129 OFFCURVE",
"552 116 CURVE SMOOTH",
"552 61 OFFCURVE",
"578 25 OFFCURVE",
"630 25 CURVE SMOOTH"
);
},
{
closed = 1;
nodes = (
"907 -12 OFFCURVE",
"862 43 OFFCURVE",
"862 127 CURVE SMOOTH",
"862 187 OFFCURVE",
"877 250 OFFCURVE",
"907 298 CURVE SMOOTH",
"937 346 OFFCURVE",
"983 379 OFFCURVE",
"1046 379 CURVE SMOOTH",
"1123 379 OFFCURVE",
"1168 324 OFFCURVE",
"1168 240 CURVE SMOOTH",
"1168 180 OFFCURVE",
"1154 117 OFFCURVE",
"1124 69 CURVE SMOOTH",
"1094 21 OFFCURVE",
"1047 -12 OFFCURVE",
"984 -12 CURVE SMOOTH"
);
},
{
closed = 1;
nodes = (
"1049 25 OFFCURVE",
"1088 72 OFFCURVE",
"1105 155 CURVE SMOOTH",
"1116 209 LINE SMOOTH",
"1119 222 OFFCURVE",
"1120 238 OFFCURVE",
"1120 251 CURVE SMOOTH",
"1120 306 OFFCURVE",
"1094 342 OFFCURVE",
"1042 342 CURVE SMOOTH",
"981 342 OFFCURVE",
"942 295 OFFCURVE",
"925 212 CURVE SMOOTH",
"914 158 LINE SMOOTH",
"911 145 OFFCURVE",
"910 129 OFFCURVE",
"910 116 CURVE SMOOTH",
"910 61 OFFCURVE",
"936 25 OFFCURVE",
"988 25 CURVE SMOOTH"
);
}
);
width = 1251;
}
);
rightKerningGroup = perthousand;
unicode = 2030;
},
{
glyphname = bar;
layers = (
{
layerId = "FA36DF9C-9258-4115-A391-0F6A4D75F819";
name = "Light Italic";
paths = (
{
closed = 1;
nodes = (
"36 -138 LINE",
"216 760 LINE",
"264 760 LINE",
"84 -138 LINE"
);
}
);
width = 277;
}
);
unicode = 007C;
},
{
glyphname = brokenbar;
layers = (
{
layerId = "FA36DF9C-9258-4115-A391-0F6A4D75F819";
name = "Light Italic";
paths = (
{
closed = 1;
nodes = (
"144 404 LINE",
"216 760 LINE",
"264 760 LINE",
"192 404 LINE"
);
},
{
closed = 1;
nodes = (
"36 -138 LINE",
"108 218 LINE",
"156 218 LINE",
"84 -138 LINE"
);
}
);
width = 277;
}
);
unicode = 00A6;
},
{
glyphname = section;
layers = (
{
layerId = "FA36DF9C-9258-4115-A391-0F6A4D75F819";
name = "Light Italic";
paths = (
{
closed = 1;
nodes = (
"399 -37 OFFCURVE",
"377 -81 OFFCURVE",
"341 -110 CURVE SMOOTH",
"305 -139 OFFCURVE",
"254 -155 OFFCURVE",
"198 -155 CURVE SMOOTH",
"129 -155 OFFCURVE",
"75 -136 OFFCURVE",
"37 -98 CURVE",
"75 -60 LINE",
"106 -88 OFFCURVE",
"147 -106 OFFCURVE",
"203 -106 CURVE SMOOTH",
"242 -106 OFFCURVE",
"277 -95 OFFCURVE",
"302 -75 CURVE SMOOTH",
"326 -55 OFFCURVE",
"342 -26 OFFCURVE",
"342 10 CURVE SMOOTH",
"342 61 OFFCURVE",
"317 92 OFFCURVE",
"258 111 CURVE SMOOTH",
"192 133 LINE SMOOTH",
"109 161 OFFCURVE",
"76 197 OFFCURVE",
"76 261 CURVE SMOOTH",
"76 345 OFFCURVE",
"133 399 OFFCURVE",
"217 419 CURVE",
"218 426 LINE",
"179 454 OFFCURVE",
"162 492 OFFCURVE",
"162 539 CURVE SMOOTH",
"162 592 OFFCURVE",
"184 636 OFFCURVE",
"220 665 CURVE SMOOTH",
"256 694 OFFCURVE",
"307 710 OFFCURVE",
"363 710 CURVE SMOOTH",
"432 710 OFFCURVE",
"486 691 OFFCURVE",
"524 653 CURVE",
"486 615 LINE",
"455 643 OFFCURVE",
"414 661 OFFCURVE",
"358 661 CURVE SMOOTH",
"319 661 OFFCURVE",
"284 650 OFFCURVE",
"259 630 CURVE SMOOTH",
"234 610 OFFCURVE",
"219 581 OFFCURVE",
"219 545 CURVE SMOOTH",
"219 494 OFFCURVE",
"244 463 OFFCURVE",
"303 444 CURVE SMOOTH",
"369 422 LINE SMOOTH",
"452 394 OFFCURVE",
"485 358 OFFCURVE",
"485 294 CURVE SMOOTH",
"485 210 OFFCURVE",
"428 156 OFFCURVE",
"344 136 CURVE",
"343 129 LINE",
"382 101 OFFCURVE",
"399 63 OFFCURVE",
"399 16 CURVE SMOOTH"
);
},
{
closed = 1;
nodes = (
"428 333 OFFCURVE",
"402 357 OFFCURVE",
"335 380 CURVE SMOOTH",
"269 402 LINE SMOOTH",
"260 405 OFFCURVE",
"253 407 OFFCURVE",
"246 410 CURVE",
"174 383 OFFCURVE",
"133 338 OFFCURVE",
"133 278 CURVE SMOOTH",
"133 222 OFFCURVE",
"159 196 OFFCURVE",
"226 175 CURVE SMOOTH",
"292 153 LINE SMOOTH",
"301 150 OFFCURVE",
"308 148 OFFCURVE",
"315 145 CURVE",
"387 172 OFFCURVE",
"428 217 OFFCURVE",
"428 277 CURVE SMOOTH"
);
}
);
width = 560;
}
);
unicode = 00A7;
},
{
glyphname = paragraph;
layers = (
{
layerId = "FA36DF9C-9258-4115-A391-0F6A4D75F819";
name = "Light Italic";
paths = (
{
closed = 1;
nodes = (
"254 312 LINE",
"211 312 OFFCURVE",
"172 330 OFFCURVE",
"144 360 CURVE SMOOTH",
"115 390 OFFCURVE",
"97 431 OFFCURVE",
"97 479 CURVE SMOOTH",
"97 544 OFFCURVE",
"123 599 OFFCURVE",
"167 638 CURVE SMOOTH",
"210 677 OFFCURVE",
"268 698 OFFCURVE",
"335 698 CURVE SMOOTH",
"616 698 LINE",
"607 651 LINE",
"541 651 LINE",
"380 -149 LINE",
"329 -149 LINE",
"489 651 LINE",
"373 651 LINE",
"213 -149 LINE",
"161 -149 LINE"
);
}
);
width = 614;
}
);
unicode = 00B6;
},
{
glyphname = copyright;
layers = (
{
layerId = "FA36DF9C-9258-4115-A391-0F6A4D75F819";
name = "Light Italic";
paths = (
{
closed = 1;
nodes = (
"255 -12 OFFCURVE",
"183 18 OFFCURVE",
"132 71 CURVE SMOOTH",
"81 123 OFFCURVE",
"53 197 OFFCURVE",
"53 288 CURVE SMOOTH",
"53 411 OFFCURVE",
"95 516 OFFCURVE",
"164 591 CURVE SMOOTH",
"233 666 OFFCURVE",
"331 709 OFFCURVE",
"440 709 CURVE SMOOTH",
"527 709 OFFCURVE",
"599 679 OFFCURVE",
"650 627 CURVE SMOOTH",
"701 574 OFFCURVE",
"729 498 OFFCURVE",
"729 409 CURVE SMOOTH",
"729 286 OFFCURVE",
"687 181 OFFCURVE",
"618 106 CURVE SMOOTH",
"549 31 OFFCURVE",
"451 -12 OFFCURVE",
"342 -12 CURVE SMOOTH"
);
},
{
closed = 1;
nodes = (
"425 30 OFFCURVE",
"499 60 OFFCURVE",
"556 108 CURVE SMOOTH",
"612 156 OFFCURVE",
"651 223 OFFCURVE",
"666 296 CURVE SMOOTH",
"677 347 OFFCURVE",
"682 384 OFFCURVE",
"682 409 CURVE SMOOTH",
"682 486 OFFCURVE",
"658 551 OFFCURVE",
"616 596 CURVE SMOOTH",
"574 641 OFFCURVE",
"511 667 OFFCURVE",
"438 667 CURVE SMOOTH",
"355 667 OFFCURVE",
"283 637 OFFCURVE",
"227 589 CURVE SMOOTH",
"170 541 OFFCURVE",
"131 474 OFFCURVE",
"116 401 CURVE SMOOTH",
"105 350 OFFCURVE",
"100 313 OFFCURVE",
"100 288 CURVE SMOOTH",
"100 211 OFFCURVE",
"125 146 OFFCURVE",
"167 101 CURVE SMOOTH",
"209 56 OFFCURVE",
"269 30 OFFCURVE",
"344 30 CURVE SMOOTH"
);
},
{
closed = 1;
nodes = (
"284 153 OFFCURVE",
"233 205 OFFCURVE",
"233 301 CURVE SMOOTH",
"233 369 OFFCURVE",
"253 430 OFFCURVE",
"286 474 CURVE SMOOTH",
"319 517 OFFCURVE",
"367 543 OFFCURVE",
"423 543 CURVE SMOOTH",
"491 543 OFFCURVE",
"532 501 OFFCURVE",
"547 454 CURVE",
"505 437 LINE",
"493 476 OFFCURVE",
"467 500 OFFCURVE",
"420 500 CURVE SMOOTH",
"356 500 OFFCURVE",
"311 452 OFFCURVE",
"296 375 CURVE SMOOTH",
"287 331 LINE",
"285 317 OFFCURVE",
"284 305 OFFCURVE",
"284 296 CURVE SMOOTH",
"284 236 OFFCURVE",
"314 197 OFFCURVE",
"369 197 CURVE SMOOTH",
"410 197 OFFCURVE",
"446 220 OFFCURVE",
"475 265 CURVE",
"510 239 LINE",
"479 190 OFFCURVE",
"428 153 OFFCURVE",
"364 153 CURVE SMOOTH"
);
}
);
width = 752;
}
);
leftKerningGroup = copyright;
unicode = 00A9;
},
{
glyphname = registered;
layers = (
{
layerId = "FA36DF9C-9258-4115-A391-0F6A4D75F819";
name = "Light Italic";
paths = (
{
closed = 1;
nodes = (
"209 298 OFFCURVE",
"166 316 OFFCURVE",
"135 347 CURVE SMOOTH",
"104 378 OFFCURVE",
"86 420 OFFCURVE",
"86 469 CURVE SMOOTH",
"86 530 OFFCURVE",
"106 591 OFFCURVE",
"144 636 CURVE SMOOTH",
"182 680 OFFCURVE",
"237 710 OFFCURVE",
"309 710 CURVE SMOOTH",
"358 710 OFFCURVE",
"401 692 OFFCURVE",
"432 661 CURVE SMOOTH",
"463 630 OFFCURVE",
"481 588 OFFCURVE",
"481 539 CURVE SMOOTH",
"481 478 OFFCURVE",
"462 417 OFFCURVE",
"424 373 CURVE SMOOTH",
"386 328 OFFCURVE",
"330 298 OFFCURVE",
"258 298 CURVE SMOOTH"
);
},
{
closed = 1;
nodes = (
"309 328 OFFCURVE",
"349 344 OFFCURVE",
"381 372 CURVE SMOOTH",
"412 399 OFFCURVE",
"433 438 OFFCURVE",
"442 482 CURVE SMOOTH",
"447 505 OFFCURVE",
"449 526 OFFCURVE",
"449 537 CURVE SMOOTH",
"449 578 OFFCURVE",
"434 615 OFFCURVE",
"409 640 CURVE SMOOTH",
"384 665 OFFCURVE",
"348 680 OFFCURVE",
"305 680 CURVE SMOOTH",
"258 680 OFFCURVE",
"218 664 OFFCURVE",
"187 637 CURVE SMOOTH",
"155 609 OFFCURVE",
"134 570 OFFCURVE",
"125 526 CURVE SMOOTH",
"120 503 OFFCURVE",
"118 482 OFFCURVE",
"118 471 CURVE SMOOTH",
"118 428 OFFCURVE",
"133 393 OFFCURVE",
"158 368 CURVE SMOOTH",
"183 343 OFFCURVE",
"219 328 OFFCURVE",
"262 328 CURVE SMOOTH"
);
},
{
closed = 1;
nodes = (
"225 399 LINE",
"195 399 LINE",
"237 609 LINE",
"317 609 LINE SMOOTH",
"353 609 OFFCURVE",
"372 589 OFFCURVE",
"372 558 CURVE SMOOTH",
"372 518 OFFCURVE",
"348 491 OFFCURVE",
"316 487 CURVE",
"349 399 LINE",
"317 399 LINE",
"288 484 LINE",
"241 484 LINE"
);
},
{
closed = 1;
nodes = (
"297 508 LINE SMOOTH",
"318 508 OFFCURVE",
"332 515 OFFCURVE",
"336 536 CURVE",
"337 544 OFFCURVE",
"338 550 OFFCURVE",
"339 553 CURVE SMOOTH",
"340 556 OFFCURVE",
"340 559 OFFCURVE",
"340 561 CURVE SMOOTH",
"340 576 OFFCURVE",
"331 583 OFFCURVE",
"313 583 CURVE SMOOTH",
"261 583 LINE",
"246 508 LINE"
);
}
);
width = 468;
}
);
leftKerningGroup = registered;
rightKerningGroup = registered;
unicode = 00AE;
},
{
glyphname = trademark;
layers = (
{
layerId = "FA36DF9C-9258-4115-A391-0F6A4D75F819";
name = "Light Italic";
paths = (
{
closed = 1;
nodes = (
"144 423 LINE",
"193 665 LINE",
"103 665 LINE",
"109 698 LINE",
"328 698 LINE",
"321 665 LINE",
"231 665 LINE",
"182 423 LINE"
);
},
{
closed = 1;
nodes = (
"331 423 LINE",
"386 698 LINE",
"429 698 LINE",
"471 551 LINE",
"474 551 LINE",
"575 698 LINE",
"623 698 LINE",
"568 423 LINE",
"533 423 LINE",
"578 644 LINE",
"575 644 LINE",
"461 481 LINE",
"412 644 LINE",
"409 644 LINE",
"365 423 LINE"
);
}
);
width = 607;
}
);
leftKerningGroup = trademark;
rightKerningGroup = trademark;
unicode = 2122;
},
{
glyphname = ordfeminine;
layers = (
{
layerId = "FA36DF9C-9258-4115-A391-0F6A4D75F819";
name = "Light Italic";
paths = (
{
closed = 1;
nodes = (
"362 363 LINE",
"323 363 LINE SMOOTH",
"298 363 OFFCURVE",
"286 372 OFFCURVE",
"286 390 CURVE SMOOTH",
"286 394 OFFCURVE",
"287 399 OFFCURVE",
"288 404 CURVE SMOOTH",
"290 414 LINE",
"287 414 LINE",
"267 385 OFFCURVE",
"228 356 OFFCURVE",
"169 356 CURVE SMOOTH",
"110 356 OFFCURVE",
"77 387 OFFCURVE",
"77 434 CURVE SMOOTH",
"77 506 OFFCURVE",
"126 550 OFFCURVE",
"234 550 CURVE SMOOTH",
"315 550 LINE",
"322 587 LINE",
"323 595 OFFCURVE",
"324 604 OFFCURVE",
"324 612 CURVE SMOOTH",
"324 652 OFFCURVE",
"301 672 OFFCURVE",
"254 672 CURVE SMOOTH",
"211 672 OFFCURVE",
"174 653 OFFCURVE",
"151 618 CURVE",
"123 641 LINE",
"150 680 OFFCURVE",
"198 710 OFFCURVE",
"259 710 CURVE SMOOTH",
"327 710 OFFCURVE",
"368 677 OFFCURVE",
"368 612 CURVE SMOOTH",
"368 604 OFFCURVE",
"368 592 OFFCURVE",
"365 581 CURVE",
"330 403 LINE",
"370 403 LINE"
);
},
{
closed = 1;
nodes = (
"227 516 LINE SMOOTH",
"163 516 OFFCURVE",
"134 494 OFFCURVE",
"126 462 CURVE SMOOTH",
"123 449 OFFCURVE",
"122 441 OFFCURVE",
"122 438 CURVE SMOOTH",
"122 408 OFFCURVE",
"142 393 OFFCURVE",
"181 393 CURVE SMOOTH",
"209 393 OFFCURVE",
"236 401 OFFCURVE",
"257 414 CURVE",
"278 426 OFFCURVE",
"294 445 OFFCURVE",
"298 469 CURVE",
"308 516 LINE"
);
}
);
width = 376;
}
);
unicode = 00AA;
},
{
glyphname = ordmasculine;
layers = (
{
layerId = "FA36DF9C-9258-4115-A391-0F6A4D75F819";
name = "Light Italic";
paths = (
{
closed = 1;
nodes = (
"141 356 OFFCURVE",
"95 410 OFFCURVE",
"95 486 CURVE SMOOTH",
"95 542 OFFCURVE",
"110 598 OFFCURVE",
"140 640 CURVE SMOOTH",
"170 682 OFFCURVE",
"214 710 OFFCURVE",
"273 710 CURVE SMOOTH",
"348 710 OFFCURVE",
"394 656 OFFCURVE",
"394 580 CURVE SMOOTH",
"394 524 OFFCURVE",
"380 468 OFFCURVE",
"350 426 CURVE SMOOTH",
"320 384 OFFCURVE",
"275 356 OFFCURVE",
"216 356 CURVE SMOOTH"
);
},
{
closed = 1;
nodes = (
"282 394 OFFCURVE",
"323 441 OFFCURVE",
"336 505 CURVE SMOOTH",
"346 554 LINE",
"349 565 OFFCURVE",
"350 574 OFFCURVE",
"350 585 CURVE SMOOTH",
"350 636 OFFCURVE",
"324 672 OFFCURVE",
"268 672 CURVE SMOOTH",
"207 672 OFFCURVE",
"166 625 OFFCURVE",
"153 561 CURVE SMOOTH",
"143 512 LINE",
"140 501 OFFCURVE",
"139 492 OFFCURVE",
"139 481 CURVE SMOOTH",
"139 430 OFFCURVE",
"165 394 OFFCURVE",
"221 394 CURVE SMOOTH"
);
}
);
width = 379;
}
);
unicode = 00BA;
},
{
glyphname = degree;
layers = (
{
layerId = "FA36DF9C-9258-4115-A391-0F6A4D75F819";
name = "Light Italic";
paths = (
{
closed = 1;
nodes = (
"225 369 OFFCURVE",
"189 384 OFFCURVE",
"164 411 CURVE SMOOTH",
"139 438 OFFCURVE",
"123 476 OFFCURVE",
"123 520 CURVE SMOOTH",
"123 575 OFFCURVE",
"142 622 OFFCURVE",
"175 656 CURVE SMOOTH",
"207 690 OFFCURVE",
"253 710 OFFCURVE",
"305 710 CURVE SMOOTH",
"346 710 OFFCURVE",
"382 695 OFFCURVE",
"407 668 CURVE SMOOTH",
"432 641 OFFCURVE",
"448 604 OFFCURVE",
"448 560 CURVE SMOOTH",
"448 505 OFFCURVE",
"429 458 OFFCURVE",
"397 424 CURVE SMOOTH",
"364 390 OFFCURVE",
"318 369 OFFCURVE",
"266 369 CURVE SMOOTH"
);
},
{
closed = 1;
nodes = (
"309 416 OFFCURVE",
"342 432 OFFCURVE",
"364 457 CURVE SMOOTH",
"386 482 OFFCURVE",
"399 518 OFFCURVE",
"399 558 CURVE SMOOTH",
"399 618 OFFCURVE",
"363 664 OFFCURVE",
"299 664 CURVE SMOOTH",
"262 664 OFFCURVE",
"230 649 OFFCURVE",
"208 623 CURVE SMOOTH",
"186 597 OFFCURVE",
"173 561 OFFCURVE",
"173 521 CURVE SMOOTH",
"173 461 OFFCURVE",
"209 416 OFFCURVE",
"272 416 CURVE SMOOTH"
);
}
);
width = 459;
}
);
unicode = 00B0;
},
{
glyphname = asterisk;
layers = (
{
layerId = "FA36DF9C-9258-4115-A391-0F6A4D75F819";
name = "Light Italic";
paths = (
{
closed = 1;
nodes = (
"154 402 LINE",
"116 434 LINE",
"234 557 LINE",
"99 598 LINE",
"121 645 LINE",
"252 593 LINE",
"279 747 LINE",
"328 747 LINE",
"295 593 LINE",
"443 644 LINE",
"452 598 LINE",
"300 554 LINE",
"368 433 LINE",
"327 405 LINE",
"264 533 LINE"
);
}
);
width = 417;
}
);
leftKerningGroup = quotesingle;
rightKerningGroup = quotesingle;
unicode = 002A;
},
{
glyphname = dagger;
layers = (
{
layerId = "FA36DF9C-9258-4115-A391-0F6A4D75F819";
name = "Light Italic";
paths = (
{
closed = 1;
nodes = (
"157 -200 LINE",
"290 466 LINE",
"95 466 LINE",
"105 512 LINE",
"299 512 LINE",
"345 740 LINE",
"393 740 LINE",
"347 512 LINE",
"542 512 LINE",
"532 466 LINE",
"338 466 LINE",
"205 -200 LINE"
);
}
);
width = 544;
}
);
unicode = 2020;
},
{
glyphname = daggerdbl;
layers = (
{
layerId = "FA36DF9C-9258-4115-A391-0F6A4D75F819";
name = "Light Italic";
paths = (
{
closed = 1;
nodes = (
"157 -200 LINE",
"203 28 LINE",
"8 28 LINE",
"18 74 LINE",
"212 74 LINE",
"290 466 LINE",
"95 466 LINE",
"105 512 LINE",
"299 512 LINE",
"345 740 LINE",
"393 740 LINE",
"347 512 LINE",
"542 512 LINE",
"532 466 LINE",
"338 466 LINE",
"260 74 LINE",
"455 74 LINE",
"445 28 LINE",
"251 28 LINE",
"205 -200 LINE"
);
}
);
width = 544;
}
);
unicode = 2021;
},
{
glyphname = numbersign;
layers = (
{
layerId = "FA36DF9C-9258-4115-A391-0F6A4D75F819";
name = "Light Italic";
paths = (
{
closed = 1;
nodes = (
"385 211 LINE",
"231 211 LINE",
"153 0 LINE",
"104 0 LINE",
"182 211 LINE",
"46 211 LINE",
"55 254 LINE",
"198 254 LINE",
"267 444 LINE",
"131 444 LINE",
"140 487 LINE",
"283 487 LINE",
"362 698 LINE",
"411 698 LINE",
"332 487 LINE",
"486 487 LINE",
"564 698 LINE",
"613 698 LINE",
"535 487 LINE",
"671 487 LINE",
"662 444 LINE",
"519 444 LINE",
"450 254 LINE",
"586 254 LINE",
"577 211 LINE",
"434 211 LINE",
"355 0 LINE",
"306 0 LINE"
);
},
{
closed = 1;
nodes = (
"401 254 LINE",
"470 444 LINE",
"316 444 LINE",
"247 254 LINE"
);
}
);
width = 692;
}
);
unicode = 0023;
},
{
glyphname = asciicircum;
layers = (
{
layerId = "FA36DF9C-9258-4115-A391-0F6A4D75F819";
name = "Light Italic";
paths = (
{
closed = 1;
nodes = (
"504 306 LINE",
"378 642 LINE",
"375 642 LINE",
"115 306 LINE",
"74 331 LINE",
"354 698 LINE",
"414 698 LINE",
"548 328 LINE"
);
}
);
width = 600;
}
);
unicode = 005E;
},
{
glyphname = asciitilde;
layers = (
{
layerId = "FA36DF9C-9258-4115-A391-0F6A4D75F819";
name = "Light Italic";
paths = (
{
closed = 1;
nodes = (
"373 244 OFFCURVE",
"344 257 OFFCURVE",
"299 282 CURVE SMOOTH",
"259 303 OFFCURVE",
"232 317 OFFCURVE",
"193 317 CURVE SMOOTH",
"158 317 OFFCURVE",
"134 305 OFFCURVE",
"99 280 CURVE",
"79 314 LINE",
"115 346 OFFCURVE",
"151 365 OFFCURVE",
"204 365 CURVE SMOOTH",
"225 365 OFFCURVE",
"244 362 OFFCURVE",
"262 356 CURVE SMOOTH",
"280 350 OFFCURVE",
"298 339 OFFCURVE",
"321 327 CURVE SMOOTH",
"361 306 OFFCURVE",
"388 292 OFFCURVE",
"427 292 CURVE SMOOTH",
"462 292 OFFCURVE",
"486 304 OFFCURVE",
"521 329 CURVE",
"541 295 LINE",
"505 263 OFFCURVE",
"469 244 OFFCURVE",
"416 244 CURVE SMOOTH"
);
}
);
width = 600;
}
);
unicode = 007E;
},
{
glyphname = plus;
layers = (
{
layerId = "FA36DF9C-9258-4115-A391-0F6A4D75F819";
name = "Light Italic";
paths = (
{
closed = 1;
nodes = (
"235 62 LINE",
"279 281 LINE",
"75 281 LINE",
"85 329 LINE",
"289 329 LINE",
"333 548 LINE",
"386 548 LINE",
"342 329 LINE",
"545 329 LINE",
"535 281 LINE",
"332 281 LINE",
"288 62 LINE"
);
}
);
width = 600;
}
);
unicode = 002B;
},
{
glyphname = minus;
layers = (
{
layerId = "FA36DF9C-9258-4115-A391-0F6A4D75F819";
name = "Light Italic";
paths = (
{
closed = 1;
nodes = (
"75 281 LINE",
"85 329 LINE",
"545 329 LINE",
"535 281 LINE"
);
}
);
width = 600;
}
);
unicode = 2212;
},
{
glyphname = plusminus;
layers = (
{
layerId = "FA36DF9C-9258-4115-A391-0F6A4D75F819";
name = "Light Italic";
paths = (
{
closed = 1;
nodes = (
"251 138 LINE",
"294 351 LINE",
"89 351 LINE",
"99 399 LINE",
"303 399 LINE",
"346 612 LINE",
"398 612 LINE",
"356 399 LINE",
"559 399 LINE",
"549 351 LINE",
"346 351 LINE",
"304 138 LINE"
);
},
{
closed = 1;
nodes = (
"19 0 LINE",
"28 48 LINE",
"489 48 LINE",
"479 0 LINE"
);
}
);
width = 600;
}
);
unicode = 00B1;
},
{
glyphname = multiply;
layers = (
{
layerId = "FA36DF9C-9258-4115-A391-0F6A4D75F819";
name = "Light Italic";
paths = (
{
closed = 1;
nodes = (
"304 269 LINE",
"106 99 LINE",
"76 137 LINE",
"275 308 LINE",
"145 477 LINE",
"184 511 LINE",
"314 342 LINE",
"512 511 LINE",
"541 473 LINE",
"343 303 LINE",
"473 133 LINE",
"434 100 LINE"
);
}
);
width = 600;
}
);
unicode = 00D7;
},
{
glyphname = divide;
layers = (
{
layerId = "FA36DF9C-9258-4115-A391-0F6A4D75F819";
name = "Light Italic";
paths = (
{
closed = 1;
nodes = (
"75 281 LINE",
"85 329 LINE",
"545 329 LINE",
"535 281 LINE"
);
},
{
closed = 1;
nodes = (
"234 65 OFFCURVE",
"224 77 OFFCURVE",
"224 96 CURVE SMOOTH",
"224 103 OFFCURVE",
"225 114 OFFCURVE",
"228 122 CURVE",
"233 147 OFFCURVE",
"248 161 OFFCURVE",
"280 161 CURVE SMOOTH",
"311 161 OFFCURVE",
"321 149 OFFCURVE",
"321 130 CURVE SMOOTH",
"321 123 OFFCURVE",
"320 112 OFFCURVE",
"317 104 CURVE",
"312 79 OFFCURVE",
"297 65 OFFCURVE",
"265 65 CURVE SMOOTH"
);
},
{
closed = 1;
nodes = (
"310 451 OFFCURVE",
"300 463 OFFCURVE",
"300 482 CURVE SMOOTH",
"300 489 OFFCURVE",
"301 500 OFFCURVE",
"304 508 CURVE",
"309 533 OFFCURVE",
"324 547 OFFCURVE",
"356 547 CURVE SMOOTH",
"387 547 OFFCURVE",
"397 535 OFFCURVE",
"397 516 CURVE SMOOTH",
"397 509 OFFCURVE",
"396 498 OFFCURVE",
"393 490 CURVE",
"388 465 OFFCURVE",
"373 451 OFFCURVE",
"341 451 CURVE SMOOTH"
);
}
);
width = 600;
}
);
unicode = 00F7;
},
{
glyphname = equal;
layers = (
{
layerId = "FA36DF9C-9258-4115-A391-0F6A4D75F819";
name = "Light Italic";
paths = (
{
closed = 1;
nodes = (
"90 378 LINE",
"100 426 LINE",
"560 426 LINE",
"550 378 LINE"
);
},
{
closed = 1;
nodes = (
"52 186 LINE",
"62 234 LINE",
"522 234 LINE",
"512 186 LINE"
);
}
);
width = 600;
}
);
unicode = 003D;
},
{
glyphname = approxequal;
layers = (
{
layerId = "FA36DF9C-9258-4115-A391-0F6A4D75F819";
name = "Light Italic";
paths = (
{
closed = 1;
nodes = (
"392 339 OFFCURVE",
"363 352 OFFCURVE",
"318 377 CURVE SMOOTH",
"278 398 OFFCURVE",
"251 412 OFFCURVE",
"212 412 CURVE SMOOTH",
"177 412 OFFCURVE",
"153 400 OFFCURVE",
"118 375 CURVE",
"98 409 LINE",
"134 441 OFFCURVE",
"170 460 OFFCURVE",
"223 460 CURVE SMOOTH",
"244 460 OFFCURVE",
"263 457 OFFCURVE",
"281 451 CURVE SMOOTH",
"299 445 OFFCURVE",
"317 434 OFFCURVE",
"340 422 CURVE SMOOTH",
"380 401 OFFCURVE",
"407 387 OFFCURVE",
"446 387 CURVE SMOOTH",
"481 387 OFFCURVE",
"505 399 OFFCURVE",
"540 424 CURVE",
"560 390 LINE",
"524 358 OFFCURVE",
"488 339 OFFCURVE",
"435 339 CURVE SMOOTH"
);
},
{
closed = 1;
nodes = (
"352 151 OFFCURVE",
"323 164 OFFCURVE",
"278 189 CURVE SMOOTH",
"238 210 OFFCURVE",
"211 224 OFFCURVE",
"172 224 CURVE SMOOTH",
"137 224 OFFCURVE",
"113 212 OFFCURVE",
"78 187 CURVE",
"58 221 LINE",
"94 253 OFFCURVE",
"130 272 OFFCURVE",
"183 272 CURVE SMOOTH",
"204 272 OFFCURVE",
"223 269 OFFCURVE",
"241 263 CURVE SMOOTH",
"259 257 OFFCURVE",
"277 246 OFFCURVE",
"300 234 CURVE SMOOTH",
"340 213 OFFCURVE",
"367 199 OFFCURVE",
"406 199 CURVE SMOOTH",
"441 199 OFFCURVE",
"465 211 OFFCURVE",
"500 236 CURVE",
"520 202 LINE",
"484 170 OFFCURVE",
"448 151 OFFCURVE",
"395 151 CURVE SMOOTH"
);
}
);
width = 600;
}
);
unicode = 2248;
},
{
glyphname = notequal;
layers = (
{
layerId = "FA36DF9C-9258-4115-A391-0F6A4D75F819";
name = "Light Italic";
paths = (
{
closed = 1;
nodes = (
"119 80 LINE",
"194 186 LINE",
"52 186 LINE",
"62 234 LINE",
"228 234 LINE",
"331 378 LINE",
"90 378 LINE",
"100 426 LINE",
"365 426 LINE",
"440 532 LINE",
"494 532 LINE",
"418 426 LINE",
"560 426 LINE",
"550 378 LINE",
"384 378 LINE",
"281 234 LINE",
"522 234 LINE",
"512 186 LINE",
"247 186 LINE",
"172 80 LINE"
);
}
);
width = 600;
}
);
unicode = 2260;
},
{
glyphname = less;
layers = (
{
layerId = "FA36DF9C-9258-4115-A391-0F6A4D75F819";
name = "Light Italic";
paths = (
{
closed = 1;
nodes = (
"95 263 LINE",
"105 316 LINE",
"571 569 LINE",
"559 506 LINE",
"154 290 LINE",
"153 284 LINE",
"471 64 LINE",
"460 8 LINE"
);
}
);
width = 600;
}
);
unicode = 003C;
},
{
glyphname = greater;
layers = (
{
layerId = "FA36DF9C-9258-4115-A391-0F6A4D75F819";
name = "Light Italic";
paths = (
{
closed = 1;
nodes = (
"55 70 LINE",
"460 290 LINE",
"461 295 LINE",
"143 511 LINE",
"154 568 LINE",
"519 316 LINE",
"508 263 LINE",
"43 8 LINE"
);
}
);
width = 600;
}
);
unicode = 003E;
},
{
glyphname = lessequal;
layers = (
{
layerId = "FA36DF9C-9258-4115-A391-0F6A4D75F819";
name = "Light Italic";
paths = (
{
closed = 1;
nodes = (
"38 0 LINE",
"48 48 LINE",
"463 48 LINE",
"453 0 LINE"
);
},
{
closed = 1;
nodes = (
"560 531 LINE",
"162 352 LINE",
"161 347 LINE",
"487 167 LINE",
"476 113 LINE",
"102 323 LINE",
"115 383 LINE",
"572 592 LINE"
);
}
);
width = 600;
}
);
unicode = 2264;
},
{
glyphname = greaterequal;
layers = (
{
layerId = "FA36DF9C-9258-4115-A391-0F6A4D75F819";
name = "Light Italic";
paths = (
{
closed = 1;
nodes = (
"79 174 LINE",
"477 353 LINE",
"478 358 LINE",
"152 537 LINE",
"163 592 LINE",
"537 383 LINE",
"524 323 LINE",
"67 113 LINE"
);
},
{
closed = 1;
nodes = (
"54 48 LINE",
"470 48 LINE",
"460 0 LINE",
"44 0 LINE"
);
}
);
width = 600;
}
);
unicode = 2265;
},
{
glyphname = periodcentered;
layers = (
{
layerId = "FA36DF9C-9258-4115-A391-0F6A4D75F819";
name = "Light Italic";
paths = (
{
closed = 1;
nodes = (
"124 254 OFFCURVE",
"110 265 OFFCURVE",
"110 286 CURVE SMOOTH",
"110 293 OFFCURVE",
"111 306 OFFCURVE",
"114 314 CURVE",
"118 334 OFFCURVE",
"129 355 OFFCURVE",
"164 355 CURVE SMOOTH",
"191 355 OFFCURVE",
"205 344 OFFCURVE",
"205 323 CURVE SMOOTH",
"205 316 OFFCURVE",
"204 303 OFFCURVE",
"201 295 CURVE",
"197 275 OFFCURVE",
"186 254 OFFCURVE",
"151 254 CURVE SMOOTH"
);
}
);
width = 309;
}
);
unicode = 00B7;
},
{
glyphname = bullet;
layers = (
{
layerId = "FA36DF9C-9258-4115-A391-0F6A4D75F819";
name = "Light Italic";
paths = (
{
closed = 1;
nodes = (
"106 198 OFFCURVE",
"77 225 OFFCURVE",
"77 268 CURVE SMOOTH",
"77 271 OFFCURVE",
"78 277 OFFCURVE",
"79 286 CURVE SMOOTH",
"80 295 OFFCURVE",
"81 306 OFFCURVE",
"84 319 CURVE SMOOTH",
"95 374 OFFCURVE",
"128 410 OFFCURVE",
"203 410 CURVE SMOOTH",
"264 410 OFFCURVE",
"293 383 OFFCURVE",
"293 340 CURVE SMOOTH",
"293 337 OFFCURVE",
"293 331 OFFCURVE",
"292 322 CURVE SMOOTH",
"291 313 OFFCURVE",
"289 302 OFFCURVE",
"286 289 CURVE SMOOTH",
"275 234 OFFCURVE",
"242 198 OFFCURVE",
"167 198 CURVE SMOOTH"
);
}
);
width = 362;
}
);
unicode = 2022;
},
{
glyphname = lozenge;
layers = (
{
layerId = "FA36DF9C-9258-4115-A391-0F6A4D75F819";
name = "Light Italic";
paths = (
{
closed = 1;
nodes = (
"223 0 LINE",
"76 350 LINE",
"359 698 LINE",
"415 698 LINE",
"562 348 LINE",
"279 0 LINE"
);
},
{
closed = 1;
nodes = (
"261 55 LINE",
"504 352 LINE",
"383 643 LINE",
"377 643 LINE",
"134 346 LINE",
"255 55 LINE"
);
}
);
width = 600;
}
);
unicode = 25CA;
},
{
glyphname = logicalnot;
layers = (
{
layerId = "FA36DF9C-9258-4115-A391-0F6A4D75F819";
name = "Light Italic";
paths = (
{
closed = 1;
nodes = (
"441 87 LINE",
"479 281 LINE",
"68 281 LINE",
"78 329 LINE",
"538 329 LINE",
"490 87 LINE"
);
}
);
width = 600;
}
);
unicode = 00AC;
},
{
glyphname = radical;
layers = (
{
layerId = "FA36DF9C-9258-4115-A391-0F6A4D75F819";
name = "Light Italic";
paths = (
{
closed = 1;
nodes = (
"207 0 LINE",
"173 467 LINE",
"67 467 LINE",
"77 512 LINE",
"221 512 LINE",
"254 51 LINE",
"258 51 LINE",
"571 698 LINE",
"628 698 LINE",
"285 0 LINE"
);
}
);
width = 589;
}
);
unicode = 221A;
},
{
glyphname = integral;
layers = (
{
layerId = "FA36DF9C-9258-4115-A391-0F6A4D75F819";
name = "Light Italic";
paths = (
{
closed = 1;
nodes = (
"-27 -151 LINE",
"89 -151 LINE",
"250 656 LINE SMOOTH",
"261 709 OFFCURVE",
"283 740 OFFCURVE",
"342 740 CURVE SMOOTH",
"438 740 LINE",
"428 691 LINE",
"312 691 LINE",
"151 -116 LINE SMOOTH",
"140 -169 OFFCURVE",
"118 -200 OFFCURVE",
"59 -200 CURVE SMOOTH",
"-37 -200 LINE"
);
}
);
width = 395;
}
);
unicode = 222B;
},
{
glyphname = infinity;
layers = (
{
layerId = "FA36DF9C-9258-4115-A391-0F6A4D75F819";
name = "Light Italic";
paths = (
{
closed = 1;
nodes = (
"70 119 OFFCURVE",
"20 165 OFFCURVE",
"20 256 CURVE SMOOTH",
"20 323 OFFCURVE",
"39 382 OFFCURVE",
"75 424 CURVE SMOOTH",
"110 466 OFFCURVE",
"161 491 OFFCURVE",
"228 491 CURVE SMOOTH",
"265 491 OFFCURVE",
"301 481 OFFCURVE",
"329 458 CURVE SMOOTH",
"357 435 OFFCURVE",
"377 398 OFFCURVE",
"384 346 CURVE",
"387 346 LINE",
"427 446 OFFCURVE",
"499 491 OFFCURVE",
"575 491 CURVE SMOOTH",
"671 491 OFFCURVE",
"721 445 OFFCURVE",
"721 354 CURVE SMOOTH",
"721 287 OFFCURVE",
"702 229 OFFCURVE",
"667 187 CURVE SMOOTH",
"631 145 OFFCURVE",
"578 119 OFFCURVE",
"513 119 CURVE SMOOTH",
"476 119 OFFCURVE",
"440 129 OFFCURVE",
"412 152 CURVE SMOOTH",
"384 175 OFFCURVE",
"364 212 OFFCURVE",
"357 264 CURVE",
"354 264 LINE",
"314 164 OFFCURVE",
"242 119 OFFCURVE",
"166 119 CURVE SMOOTH"
);
},
{
closed = 1;
nodes = (
"241 167 OFFCURVE",
"302 209 OFFCURVE",
"346 305 CURVE",
"338 397 OFFCURVE",
"299 443 OFFCURVE",
"229 443 CURVE SMOOTH",
"158 443 OFFCURVE",
"102 406 OFFCURVE",
"85 326 CURVE SMOOTH",
"80 305 OFFCURVE",
"77 291 OFFCURVE",
"76 282 CURVE SMOOTH",
"75 273 OFFCURVE",
"74 264 OFFCURVE",
"74 257 CURVE SMOOTH",
"74 197 OFFCURVE",
"109 167 OFFCURVE",
"173 167 CURVE SMOOTH"
);
},
{
closed = 1;
nodes = (
"583 167 OFFCURVE",
"639 204 OFFCURVE",
"656 284 CURVE SMOOTH",
"661 305 OFFCURVE",
"664 320 OFFCURVE",
"665 329 CURVE SMOOTH",
"666 338 OFFCURVE",
"667 346 OFFCURVE",
"667 353 CURVE SMOOTH",
"667 413 OFFCURVE",
"632 443 OFFCURVE",
"568 443 CURVE SMOOTH",
"500 443 OFFCURVE",
"439 401 OFFCURVE",
"395 305 CURVE",
"403 213 OFFCURVE",
"442 167 OFFCURVE",
"512 167 CURVE SMOOTH"
);
}
);
width = 731;
}
);
unicode = 221E;
},
{
glyphname = uni212E;
layers = (
{
layerId = "FA36DF9C-9258-4115-A391-0F6A4D75F819";
name = "Light Italic";
paths = (
{
closed = 1;
nodes = (
"147 142 LINE",
"186 77 OFFCURVE",
"259 27 OFFCURVE",
"358 27 CURVE SMOOTH",
"481 27 OFFCURVE",
"556 86 OFFCURVE",
"604 174 CURVE",
"640 155 LINE",
"615 107 OFFCURVE",
"579 66 OFFCURVE",
"532 36 CURVE SMOOTH",
"485 6 OFFCURVE",
"427 -12 OFFCURVE",
"358 -12 CURVE SMOOTH",
"263 -12 OFFCURVE",
"184 24 OFFCURVE",
"128 88 CURVE SMOOTH",
"71 151 OFFCURVE",
"38 241 OFFCURVE",
"38 349 CURVE SMOOTH",
"38 457 OFFCURVE",
"71 547 OFFCURVE",
"127 611 CURVE SMOOTH",
"183 674 OFFCURVE",
"263 710 OFFCURVE",
"356 710 CURVE SMOOTH",
"449 710 OFFCURVE",
"529 674 OFFCURVE",
"585 611 CURVE SMOOTH",
"641 547 OFFCURVE",
"674 457 OFFCURVE",
"674 349 CURVE",
"147 349 LINE"
);
},
{
closed = 1;
nodes = (
"566 386 LINE",
"566 559 LINE",
"527 626 OFFCURVE",
"455 673 OFFCURVE",
"356 673 CURVE SMOOTH",
"259 673 OFFCURVE",
"186 626 OFFCURVE",
"147 559 CURVE",
"147 386 LINE"
);
}
);
width = 713;
}
);
unicode = 212E;
},
{
glyphname = uni2113;
layers = (
{
layerId = "FA36DF9C-9258-4115-A391-0F6A4D75F819";
name = "Light Italic";
paths = (
{
closed = 1;
nodes = (
"168 -12 OFFCURVE",
"123 57 OFFCURVE",
"123 161 CURVE SMOOTH",
"123 182 LINE",
"103 166 OFFCURVE",
"82 152 OFFCURVE",
"62 140 CURVE",
"38 178 LINE",
"65 195 OFFCURVE",
"95 214 OFFCURVE",
"122 237 CURVE",
"122 565 LINE SMOOTH",
"122 700 OFFCURVE",
"172 752 OFFCURVE",
"251 752 CURVE SMOOTH",
"336 752 OFFCURVE",
"378 700 OFFCURVE",
"378 595 CURVE SMOOTH",
"378 458 OFFCURVE",
"301 333 OFFCURVE",
"177 220 CURVE",
"177 173 LINE SMOOTH",
"177 77 OFFCURVE",
"206 37 OFFCURVE",
"269 37 CURVE SMOOTH",
"336 37 OFFCURVE",
"374 85 OFFCURVE",
"405 146 CURVE",
"445 122 LINE",
"428 86 OFFCURVE",
"406 52 OFFCURVE",
"377 28 CURVE SMOOTH",
"348 4 OFFCURVE",
"310 -12 OFFCURVE",
"265 -12 CURVE SMOOTH"
);
},
{
closed = 1;
nodes = (
"230 705 OFFCURVE",
"213 697 OFFCURVE",
"199 676 CURVE SMOOTH",
"185 655 OFFCURVE",
"177 622 OFFCURVE",
"177 570 CURVE SMOOTH",
"177 281 LINE",
"266 373 OFFCURVE",
"325 482 OFFCURVE",
"325 587 CURVE SMOOTH",
"325 602 LINE SMOOTH",
"325 675 OFFCURVE",
"297 705 OFFCURVE",
"253 705 CURVE SMOOTH"
);
}
);
width = 477;
}
);
unicode = 2113;
},
{
glyphname = uni2116;
layers = (
{
layerId = "FA36DF9C-9258-4115-A391-0F6A4D75F819";
name = "Light Italic";
paths = (
{
closed = 1;
nodes = (
"757 365 OFFCURVE",
"705 419 OFFCURVE",
"705 496 CURVE SMOOTH",
"705 548 OFFCURVE",
"720 602 OFFCURVE",
"752 643 CURVE SMOOTH",
"783 683 OFFCURVE",
"829 710 OFFCURVE",
"890 710 CURVE SMOOTH",
"965 710 OFFCURVE",
"1017 656 OFFCURVE",
"1017 579 CURVE SMOOTH",
"1017 527 OFFCURVE",
"1002 473 OFFCURVE",
"971 433 CURVE SMOOTH",
"939 392 OFFCURVE",
"893 365 OFFCURVE",
"832 365 CURVE SMOOTH"
);
},
{
closed = 1;
nodes = (
"45 0 LINE",
"185 698 LINE",
"250 698 LINE",
"477 83 LINE",
"480 83 LINE",
"603 698 LINE",
"657 698 LINE",
"517 0 LINE",
"452 0 LINE",
"225 615 LINE",
"222 615 LINE",
"99 0 LINE"
);
},
{
closed = 1;
nodes = (
"902 403 OFFCURVE",
"943 447 OFFCURVE",
"958 519 CURVE SMOOTH",
"965 554 LINE",
"968 565 OFFCURVE",
"969 575 OFFCURVE",
"969 584 CURVE SMOOTH",
"969 639 OFFCURVE",
"942 672 OFFCURVE",
"883 672 CURVE SMOOTH",
"820 672 OFFCURVE",
"779 628 OFFCURVE",
"764 556 CURVE SMOOTH",
"757 521 LINE",
"754 510 OFFCURVE",
"753 500 OFFCURVE",
"753 491 CURVE SMOOTH",
"753 436 OFFCURVE",
"780 403 OFFCURVE",
"839 403 CURVE SMOOTH"
);
},
{
closed = 1;
nodes = (
"671 260 LINE",
"681 306 LINE",
"949 306 LINE",
"939 260 LINE"
);
}
);
width = 999;
}
);
unicode = 2116;
},
{
glyphname = partialdiff;
layers = (
{
layerId = "FA36DF9C-9258-4115-A391-0F6A4D75F819";
name = "Light Italic";
paths = (
{
closed = 1;
nodes = (
"180 -12 OFFCURVE",
"134 8 OFFCURVE",
"102 44 CURVE SMOOTH",
"70 79 OFFCURVE",
"53 130 OFFCURVE",
"53 190 CURVE SMOOTH",
"53 278 OFFCURVE",
"79 357 OFFCURVE",
"123 414 CURVE SMOOTH",
"167 470 OFFCURVE",
"228 504 OFFCURVE",
"299 504 CURVE SMOOTH",
"371 504 OFFCURVE",
"420 471 OFFCURVE",
"443 414 CURVE",
"447 416 LINE",
"439 472 OFFCURVE",
"412 527 OFFCURVE",
"373 576 CURVE SMOOTH",
"333 624 OFFCURVE",
"282 666 OFFCURVE",
"227 698 CURVE",
"307 698 LINE",
"348 670 OFFCURVE",
"397 628 OFFCURVE",
"436 571 CURVE SMOOTH",
"475 514 OFFCURVE",
"504 438 OFFCURVE",
"504 345 CURVE SMOOTH",
"504 233 OFFCURVE",
"477 144 OFFCURVE",
"430 83 CURVE SMOOTH",
"382 22 OFFCURVE",
"316 -12 OFFCURVE",
"237 -12 CURVE SMOOTH"
);
},
{
closed = 1;
nodes = (
"337 38 OFFCURVE",
"408 105 OFFCURVE",
"428 212 CURVE SMOOTH",
"439 269 LINE SMOOTH",
"442 288 OFFCURVE",
"444 304 OFFCURVE",
"444 317 CURVE SMOOTH",
"444 405 OFFCURVE",
"389 455 OFFCURVE",
"305 455 CURVE SMOOTH",
"214 455 OFFCURVE",
"143 388 OFFCURVE",
"123 281 CURVE SMOOTH",
"112 224 LINE SMOOTH",
"109 205 OFFCURVE",
"107 189 OFFCURVE",
"107 176 CURVE SMOOTH",
"107 88 OFFCURVE",
"162 38 OFFCURVE",
"246 38 CURVE SMOOTH"
);
}
);
width = 562;
}
);
unicode = 2202;
},
{
glyphname = cent;
layers = (
{
layerId = "FA36DF9C-9258-4115-A391-0F6A4D75F819";
name = "Light Italic";
paths = (
{
closed = 1;
nodes = (
"186 -7 LINE",
"101 12 OFFCURVE",
"54 87 OFFCURVE",
"54 195 CURVE SMOOTH",
"54 283 OFFCURVE",
"76 363 OFFCURVE",
"116 422 CURVE SMOOTH",
"156 481 OFFCURVE",
"216 519 OFFCURVE",
"292 523 CURVE",
"312 626 LINE",
"362 626 LINE",
"340 520 LINE",
"407 507 OFFCURVE",
"447 466 OFFCURVE",
"466 406 CURVE",
"417 385 LINE",
"404 433 OFFCURVE",
"375 462 OFFCURVE",
"329 472 CURVE",
"243 36 LINE",
"303 39 OFFCURVE",
"344 72 OFFCURVE",
"387 144 CURVE",
"431 123 LINE",
"380 34 OFFCURVE",
"321 -9 OFFCURVE",
"233 -12 CURVE",
"213 -114 LINE",
"164 -114 LINE"
);
},
{
closed = 1;
nodes = (
"108 114 OFFCURVE",
"135 57 OFFCURVE",
"196 42 CURVE",
"282 473 LINE",
"199 465 OFFCURVE",
"146 403 OFFCURVE",
"127 306 CURVE SMOOTH",
"113 236 LINE SMOOTH",
"109 217 OFFCURVE",
"108 202 OFFCURVE",
"108 183 CURVE SMOOTH"
);
}
);
width = 498;
}
);
unicode = 00A2;
},
{
glyphname = Euro;
layers = (
{
layerId = "FA36DF9C-9258-4115-A391-0F6A4D75F819";
name = "Light Italic";
paths = (
{
closed = 1;
nodes = (
"222 -12 OFFCURVE",
"165 11 OFFCURVE",
"125 55 CURVE SMOOTH",
"84 99 OFFCURVE",
"60 164 OFFCURVE",
"60 248 CURVE SMOOTH",
"60 361 OFFCURVE",
"89 476 OFFCURVE",
"146 564 CURVE SMOOTH",
"202 651 OFFCURVE",
"285 710 OFFCURVE",
"393 710 CURVE SMOOTH",
"506 710 OFFCURVE",
"575 658 OFFCURVE",
"604 562 CURVE",
"552 535 LINE",
"529 615 OFFCURVE",
"481 658 OFFCURVE",
"389 658 CURVE SMOOTH",
"334 658 OFFCURVE",
"285 638 OFFCURVE",
"245 602 CURVE SMOOTH",
"205 566 OFFCURVE",
"174 515 OFFCURVE",
"155 452 CURVE",
"411 452 LINE",
"402 405 LINE",
"143 405 LINE",
"132 366 OFFCURVE",
"127 332 OFFCURVE",
"122 293 CURVE",
"380 293 LINE",
"370 246 LINE",
"118 246 LINE",
"118 236 LINE SMOOTH",
"118 115 OFFCURVE",
"184 40 OFFCURVE",
"292 40 CURVE SMOOTH",
"340 40 OFFCURVE",
"378 51 OFFCURVE",
"410 75 CURVE SMOOTH",
"441 98 OFFCURVE",
"467 132 OFFCURVE",
"492 176 CURVE",
"535 144 LINE",
"503 89 OFFCURVE",
"471 52 OFFCURVE",
"432 26 CURVE SMOOTH",
"392 0 OFFCURVE",
"346 -12 OFFCURVE",
"286 -12 CURVE SMOOTH"
);
}
);
width = 599;
}
);
unicode = 20AC;
},
{
glyphname = florin;
layers = (
{
layerId = "FA36DF9C-9258-4115-A391-0F6A4D75F819";
name = "Light Italic";
paths = (
{
closed = 1;
nodes = (
"-67 -85 LINE",
"91 -85 LINE",
"201 307 LINE",
"57 307 LINE",
"68 356 LINE",
"216 356 LINE",
"291 618 LINE SMOOTH",
"306 670 OFFCURVE",
"333 698 OFFCURVE",
"390 698 CURVE SMOOTH",
"532 698 LINE",
"521 649 LINE",
"357 649 LINE",
"274 356 LINE",
"457 356 LINE",
"446 307 LINE",
"259 307 LINE",
"157 -54 LINE SMOOTH",
"141 -111 OFFCURVE",
"116 -134 OFFCURVE",
"57 -134 CURVE SMOOTH",
"-77 -134 LINE"
);
}
);
width = 484;
}
);
unicode = 0192;
},
{
glyphname = sterling;
layers = (
{
layerId = "FA36DF9C-9258-4115-A391-0F6A4D75F819";
name = "Light Italic";
paths = (
{
closed = 1;
nodes = (
"29 0 LINE",
"43 72 LINE",
"87 91 OFFCURVE",
"117 121 OFFCURVE",
"136 157 CURVE SMOOTH",
"155 192 OFFCURVE",
"163 231 OFFCURVE",
"163 270 CURVE SMOOTH",
"163 275 OFFCURVE",
"163 279 OFFCURVE",
"163 284 CURVE",
"162 288 OFFCURVE",
"162 292 OFFCURVE",
"162 297 CURVE",
"71 297 LINE",
"81 346 LINE",
"158 346 LINE",
"153 387 OFFCURVE",
"149 429 OFFCURVE",
"149 468 CURVE SMOOTH",
"149 540 OFFCURVE",
"174 600 OFFCURVE",
"217 643 CURVE SMOOTH",
"260 686 OFFCURVE",
"321 710 OFFCURVE",
"392 710 CURVE SMOOTH",
"488 710 OFFCURVE",
"549 668 OFFCURVE",
"584 593 CURVE",
"535 562 LINE",
"507 626 OFFCURVE",
"461 658 OFFCURVE",
"388 658 CURVE SMOOTH",
"335 658 OFFCURVE",
"290 641 OFFCURVE",
"258 608 CURVE SMOOTH",
"226 575 OFFCURVE",
"208 527 OFFCURVE",
"208 463 CURVE SMOOTH",
"208 424 OFFCURVE",
"212 385 OFFCURVE",
"216 346 CURVE",
"427 346 LINE",
"417 297 LINE",
"219 297 LINE",
"220 292 OFFCURVE",
"220 288 OFFCURVE",
"220 283 CURVE SMOOTH",
"220 278 OFFCURVE",
"220 274 OFFCURVE",
"220 269 CURVE",
"217 220 OFFCURVE",
"204 175 OFFCURVE",
"182 139 CURVE SMOOTH",
"160 102 OFFCURVE",
"129 73 OFFCURVE",
"96 56 CURVE",
"95 52 LINE",
"467 52 LINE",
"456 0 LINE"
);
}
);
width = 578;
}
);
unicode = 00A3;
},
{
glyphname = dollar;
layers = (
{
layerId = "FA36DF9C-9258-4115-A391-0F6A4D75F819";
name = "Light Italic";
paths = (
{
closed = 1;
nodes = (
"203 0 LINE",
"114 9 OFFCURVE",
"51 50 OFFCURVE",
"12 117 CURVE",
"55 152 LINE",
"90 92 OFFCURVE",
"138 58 OFFCURVE",
"214 51 CURVE",
"271 338 LINE",
"255 342 LINE SMOOTH",
"152 367 OFFCURVE",
"106 417 OFFCURVE",
"106 504 CURVE SMOOTH",
"106 556 OFFCURVE",
"125 604 OFFCURVE",
"165 640 CURVE SMOOTH",
"204 675 OFFCURVE",
"264 698 OFFCURVE",
"344 699 CURVE",
"360 780 LINE",
"404 780 LINE",
"387 696 LINE",
"468 685 OFFCURVE",
"518 652 OFFCURVE",
"549 592 CURVE",
"504 559 LINE",
"479 606 OFFCURVE",
"440 636 OFFCURVE",
"375 645 CURVE",
"322 379 LINE",
"335 376 LINE SMOOTH",
"446 351 OFFCURVE",
"494 300 OFFCURVE",
"494 212 CURVE SMOOTH",
"494 155 OFFCURVE",
"473 102 OFFCURVE",
"432 63 CURVE SMOOTH",
"391 24 OFFCURVE",
"328 0 OFFCURVE",
"247 0 CURVE",
"230 -82 LINE",
"187 -82 LINE"
);
},
{
closed = 1;
nodes = (
"312 330 LINE",
"256 50 LINE",
"316 50 OFFCURVE",
"361 69 OFFCURVE",
"391 98 CURVE SMOOTH",
"421 126 OFFCURVE",
"436 166 OFFCURVE",
"436 207 CURVE SMOOTH",
"436 271 OFFCURVE",
"401 308 OFFCURVE",
"324 327 CURVE SMOOTH"
);
},
{
closed = 1;
nodes = (
"164 446 OFFCURVE",
"196 407 OFFCURVE",
"268 392 CURVE SMOOTH",
"282 389 LINE",
"333 648 LINE",
"221 645 OFFCURVE",
"164 588 OFFCURVE",
"164 509 CURVE SMOOTH"
);
}
);
width = 562;
}
);
unicode = 0024;
},
{
glyphname = yen;
layers = (
{
layerId = "FA36DF9C-9258-4115-A391-0F6A4D75F819";
name = "Light Italic";
paths = (
{
closed = 1;
nodes = (
"300 154 LINE",
"269 0 LINE",
"211 0 LINE",
"243 154 LINE",
"63 154 LINE",
"73 201 LINE",
"252 201 LINE",
"275 315 LINE",
"96 315 LINE",
"106 362 LINE",
"256 362 LINE",
"129 698 LINE",
"190 698 LINE",
"309 371 LINE",
"313 371 LINE",
"565 698 LINE",
"632 698 LINE",
"368 362 LINE",
"524 362 LINE",
"514 315 LINE",
"332 315 LINE",
"309 201 LINE",
"491 201 LINE",
"481 154 LINE"
);
}
);
width = 583;
}
);
unicode = 00A5;
},
{
glyphname = uni0E3F;
layers = (
{
layerId = "FA36DF9C-9258-4115-A391-0F6A4D75F819";
name = "Light Italic";
paths = (
{
closed = 1;
nodes = (
"254 -82 LINE",
"205 -82 LINE",
"226 20 LINE",
"49 20 LINE",
"181 677 LINE",
"357 677 LINE",
"378 780 LINE",
"427 780 LINE",
"406 677 LINE",
"412 677 LINE SMOOTH",
"517 677 OFFCURVE",
"575 626 OFFCURVE",
"575 542 CURVE SMOOTH",
"575 455 OFFCURVE",
"530 390 OFFCURVE",
"439 369 CURVE",
"439 365 LINE",
"503 349 OFFCURVE",
"537 303 OFFCURVE",
"537 231 CURVE SMOOTH",
"537 178 OFFCURVE",
"520 125 OFFCURVE",
"484 86 CURVE SMOOTH",
"448 46 OFFCURVE",
"393 20 OFFCURVE",
"317 20 CURVE SMOOTH",
"275 20 LINE"
);
},
{
closed = 1;
nodes = (
"299 386 LINE",
"346 625 LINE",
"228 625 LINE",
"180 386 LINE"
);
},
{
closed = 1;
nodes = (
"348 386 LINE",
"353 386 LINE SMOOTH",
"437 387 OFFCURVE",
"491 419 OFFCURVE",
"504 482 CURVE SMOOTH",
"509 510 OFFCURVE",
"513 526 OFFCURVE",
"513 541 CURVE SMOOTH",
"513 601 OFFCURVE",
"471 625 OFFCURVE",
"403 625 CURVE SMOOTH",
"395 625 LINE"
);
},
{
closed = 1;
nodes = (
"236 72 LINE",
"289 336 LINE",
"170 336 LINE",
"117 72 LINE"
);
},
{
closed = 1;
nodes = (
"284 72 LINE",
"320 72 LINE SMOOTH",
"401 72 OFFCURVE",
"453 105 OFFCURVE",
"468 177 CURVE SMOOTH",
"475 209 OFFCURVE",
"478 227 OFFCURVE",
"478 242 CURVE SMOOTH",
"478 299 OFFCURVE",
"440 336 OFFCURVE",
"363 336 CURVE SMOOTH",
"338 336 LINE"
);
}
);
width = 607;
}
);
unicode = 0E3F;
},
{
glyphname = uni20A1;
layers = (
{
layerId = "FA36DF9C-9258-4115-A391-0F6A4D75F819";
name = "Light Italic";
paths = (
{
closed = 1;
nodes = (
"98 -82 LINE",
"138 47 LINE",
"87 90 OFFCURVE",
"54 152 OFFCURVE",
"54 248 CURVE SMOOTH",
"54 349 OFFCURVE",
"77 453 OFFCURVE",
"124 537 CURVE SMOOTH",
"171 620 OFFCURVE",
"242 680 OFFCURVE",
"337 696 CURVE",
"363 780 LINE",
"412 780 LINE",
"388 699 LINE",
"397 699 LINE SMOOTH",
"420 699 OFFCURVE",
"442 696 OFFCURVE",
"462 690 CURVE",
"490 780 LINE",
"539 780 LINE",
"506 673 LINE",
"549 648 OFFCURVE",
"580 609 OFFCURVE",
"597 554 CURVE",
"546 526 LINE",
"535 565 OFFCURVE",
"515 595 OFFCURVE",
"488 616 CURVE",
"314 53 LINE",
"397 60 OFFCURVE",
"447 109 OFFCURVE",
"488 185 CURVE",
"531 154 LINE",
"474 54 OFFCURVE",
"407 0 OFFCURVE",
"300 -1 CURVE",
"274 -82 LINE",
"225 -82 LINE",
"251 0 LINE",
"224 3 OFFCURVE",
"200 10 OFFCURVE",
"179 21 CURVE",
"147 -82 LINE"
);
},
{
closed = 1;
nodes = (
"371 647 LINE",
"194 75 LINE",
"215 62 OFFCURVE",
"240 55 OFFCURVE",
"267 53 CURVE",
"447 637 LINE",
"431 644 OFFCURVE",
"408 647 OFFCURVE",
"384 647 CURVE SMOOTH"
);
},
{
closed = 1;
nodes = (
"112 180 OFFCURVE",
"129 140 OFFCURVE",
"157 108 CURVE",
"321 639 LINE",
"229 612 OFFCURVE",
"163 534 OFFCURVE",
"138 410 CURVE SMOOTH",
"120 317 LINE",
"113 288 OFFCURVE",
"112 259 OFFCURVE",
"112 235 CURVE SMOOTH"
);
}
);
width = 597;
}
);
unicode = 20A1;
},
{
glyphname = uni20A4;
layers = (
{
layerId = "FA36DF9C-9258-4115-A391-0F6A4D75F819";
name = "Light Italic";
paths = (
{
closed = 1;
nodes = (
"456 0 LINE",
"29 0 LINE",
"43 72 LINE",
"114 103 OFFCURVE",
"149 159 OFFCURVE",
"157 227 CURVE",
"55 227 LINE",
"64 274 LINE",
"163 274 LINE",
"164 293 OFFCURVE",
"163 311 OFFCURVE",
"161 328 CURVE SMOOTH",
"159 345 OFFCURVE",
"157 361 OFFCURVE",
"155 378 CURVE",
"85 378 LINE",
"94 425 LINE",
"150 425 LINE",
"149 432 OFFCURVE",
"149 440 OFFCURVE",
"149 448 CURVE SMOOTH",
"149 455 OFFCURVE",
"149 463 OFFCURVE",
"149 470 CURVE SMOOTH",
"149 538 OFFCURVE",
"173 598 OFFCURVE",
"216 642 CURVE SMOOTH",
"259 685 OFFCURVE",
"319 710 OFFCURVE",
"394 710 CURVE SMOOTH",
"487 710 OFFCURVE",
"549 668 OFFCURVE",
"584 593 CURVE",
"535 562 LINE",
"507 626 OFFCURVE",
"461 658 OFFCURVE",
"388 658 CURVE SMOOTH",
"331 658 OFFCURVE",
"286 639 OFFCURVE",
"255 605 CURVE SMOOTH",
"224 571 OFFCURVE",
"208 523 OFFCURVE",
"208 467 CURVE SMOOTH",
"208 460 OFFCURVE",
"208 453 OFFCURVE",
"208 446 CURVE SMOOTH",
"208 439 OFFCURVE",
"209 432 OFFCURVE",
"210 425 CURVE",
"440 425 LINE",
"430 378 LINE",
"213 378 LINE",
"217 343 OFFCURVE",
"221 307 OFFCURVE",
"220 274 CURVE",
"410 274 LINE",
"400 227 LINE",
"212 227 LINE",
"199 147 OFFCURVE",
"152 85 OFFCURVE",
"95 56 CURVE",
"94 52 LINE",
"467 52 LINE"
);
}
);
width = 578;
}
);
unicode = 20A4;
},
{
glyphname = uni20A6;
layers = (
{
layerId = "FA36DF9C-9258-4115-A391-0F6A4D75F819";
name = "Light Italic";
paths = (
{
closed = 1;
nodes = (
"365 247 LINE",
"151 247 LINE",
"101 0 LINE",
"49 0 LINE",
"99 245 LINE",
"23 245 LINE",
"32 292 LINE",
"108 292 LINE",
"131 406 LINE",
"55 406 LINE",
"65 453 LINE",
"140 453 LINE",
"189 698 LINE",
"257 698 LINE",
"348 451 LINE",
"562 451 LINE",
"612 698 LINE",
"664 698 LINE",
"614 453 LINE",
"690 453 LINE",
"681 406 LINE",
"605 406 LINE",
"582 292 LINE",
"658 292 LINE",
"648 245 LINE",
"573 245 LINE",
"524 0 LINE",
"456 0 LINE"
);
},
{
closed = 1;
nodes = (
"349 290 LINE",
"228 622 LINE",
"225 622 LINE",
"159 290 LINE"
);
},
{
closed = 1;
nodes = (
"485 76 LINE",
"488 76 LINE",
"554 408 LINE",
"364 408 LINE"
);
}
);
width = 678;
}
);
unicode = 20A6;
},
{
glyphname = uni20A8;
layers = (
{
layerId = "FA36DF9C-9258-4115-A391-0F6A4D75F819";
name = "Light Italic";
paths = (
{
closed = 1;
nodes = (
"185 698 LINE",
"336 698 LINE SMOOTH",
"428 698 OFFCURVE",
"477 649 OFFCURVE",
"477 565 CURVE SMOOTH",
"477 514 OFFCURVE",
"466 465 OFFCURVE",
"440 423 CURVE SMOOTH",
"414 381 OFFCURVE",
"374 348 OFFCURVE",
"321 335 CURVE",
"392 135 LINE SMOOTH",
"417 63 OFFCURVE",
"447 36 OFFCURVE",
"510 36 CURVE SMOOTH",
"557 36 OFFCURVE",
"596 66 OFFCURVE",
"596 117 CURVE SMOOTH",
"596 149 OFFCURVE",
"584 174 OFFCURVE",
"557 201 CURVE SMOOTH",
"526 233 LINE SMOOTH",
"491 269 OFFCURVE",
"475 302 OFFCURVE",
"475 345 CURVE SMOOTH",
"475 380 OFFCURVE",
"490 412 OFFCURVE",
"515 436 CURVE SMOOTH",
"539 460 OFFCURVE",
"575 476 OFFCURVE",
"616 476 CURVE SMOOTH",
"651 476 OFFCURVE",
"688 465 OFFCURVE",
"711 442 CURVE",
"682 405 LINE",
"667 421 OFFCURVE",
"640 430 OFFCURVE",
"613 430 CURVE SMOOTH",
"566 430 OFFCURVE",
"529 396 OFFCURVE",
"529 351 CURVE SMOOTH",
"529 322 OFFCURVE",
"539 299 OFFCURVE",
"568 268 CURVE SMOOTH",
"599 237 LINE SMOOTH",
"634 202 OFFCURVE",
"649 166 OFFCURVE",
"649 125 CURVE SMOOTH",
"649 44 OFFCURVE",
"594 -12 OFFCURVE",
"507 -12 CURVE SMOOTH",
"420 -12 OFFCURVE",
"372 23 OFFCURVE",
"340 115 CURVE SMOOTH",
"264 327 LINE",
"167 327 LINE",
"101 0 LINE",
"45 0 LINE"
);
},
{
closed = 1;
nodes = (
"267 376 LINE SMOOTH",
"342 376 OFFCURVE",
"392 414 OFFCURVE",
"407 486 CURVE SMOOTH",
"416 526 LINE SMOOTH",
"419 541 OFFCURVE",
"420 555 OFFCURVE",
"420 567 CURVE SMOOTH",
"420 618 OFFCURVE",
"389 648 OFFCURVE",
"325 648 CURVE SMOOTH",
"231 648 LINE",
"177 376 LINE"
);
}
);
width = 724;
}
);
unicode = 20A8;
},
{
glyphname = uni20A9;
layers = (
{
layerId = "FA36DF9C-9258-4115-A391-0F6A4D75F819";
name = "Light Italic";
paths = (
{
closed = 1;
nodes = (
"536 245 LINE",
"331 245 LINE",
"218 0 LINE",
"153 0 LINE",
"141 243 LINE",
"29 243 LINE",
"39 290 LINE",
"139 290 LINE",
"133 405 LINE",
"52 405 LINE",
"62 452 LINE",
"131 452 LINE",
"119 698 LINE",
"175 698 LINE",
"185 451 LINE",
"375 451 LINE",
"489 698 LINE",
"557 698 LINE",
"572 451 LINE",
"767 451 LINE",
"877 698 LINE",
"936 698 LINE",
"823 452 LINE",
"891 452 LINE",
"881 405 LINE",
"801 405 LINE",
"748 290 LINE",
"850 290 LINE",
"840 243 LINE",
"726 243 LINE",
"615 0 LINE",
"551 0 LINE"
);
},
{
closed = 1;
nodes = (
"203 74 LINE",
"355 406 LINE",
"187 406 LINE",
"199 74 LINE"
);
},
{
closed = 1;
nodes = (
"598 74 LINE",
"747 406 LINE",
"575 406 LINE",
"595 74 LINE"
);
},
{
closed = 1;
nodes = (
"534 290 LINE",
"512 632 LINE",
"508 632 LINE",
"351 290 LINE"
);
}
);
width = 874;
}
);
unicode = 20A9;
},
{
glyphname = uni20AA;
layers = (
{
layerId = "FA36DF9C-9258-4115-A391-0F6A4D75F819";
name = "Light Italic";
paths = (
{
closed = 1;
nodes = (
"323 552 LINE",
"379 552 LINE",
"279 49 LINE",
"449 49 LINE SMOOTH",
"477 49 OFFCURVE",
"505 55 OFFCURVE",
"529 74 CURVE SMOOTH",
"553 93 OFFCURVE",
"572 123 OFFCURVE",
"581 171 CURVE SMOOTH",
"687 698 LINE",
"743 698 LINE",
"639 183 LINE SMOOTH",
"614 58 OFFCURVE",
"546 0 OFFCURVE",
"443 0 CURVE SMOOTH",
"212 0 LINE"
);
},
{
closed = 1;
nodes = (
"45 0 LINE",
"185 698 LINE",
"411 698 LINE SMOOTH",
"494 698 OFFCURVE",
"544 653 OFFCURVE",
"544 568 CURVE SMOOTH",
"544 552 OFFCURVE",
"543 535 OFFCURVE",
"539 516 CURVE SMOOTH",
"465 146 LINE",
"409 146 LINE",
"485 525 LINE SMOOTH",
"488 542 OFFCURVE",
"490 556 OFFCURVE",
"490 568 CURVE SMOOTH",
"490 628 OFFCURVE",
"454 649 OFFCURVE",
"401 649 CURVE SMOOTH",
"231 649 LINE",
"101 0 LINE"
);
}
);
width = 751;
}
);
unicode = 20AA;
},
{
glyphname = uni20AB;
layers = (
{
layerId = "FA36DF9C-9258-4115-A391-0F6A4D75F819";
name = "Light Italic";
paths = (
{
closed = 1;
nodes = (
"395 219 LINE",
"391 219 LINE",
"358 162 OFFCURVE",
"305 118 OFFCURVE",
"236 118 CURVE SMOOTH",
"139 118 OFFCURVE",
"84 179 OFFCURVE",
"84 279 CURVE SMOOTH",
"84 363 OFFCURVE",
"107 432 OFFCURVE",
"147 480 CURVE SMOOTH",
"186 528 OFFCURVE",
"242 555 OFFCURVE",
"307 555 CURVE SMOOTH",
"382 555 OFFCURVE",
"426 519 OFFCURVE",
"442 470 CURVE",
"446 470 LINE",
"478 630 LINE",
"325 630 LINE",
"334 674 LINE",
"487 674 LINE",
"500 740 LINE",
"552 740 LINE",
"539 674 LINE",
"606 674 LINE",
"598 630 LINE",
"530 630 LINE",
"430 128 LINE",
"377 128 LINE"
);
},
{
closed = 1;
nodes = (
"294 163 OFFCURVE",
"330 180 OFFCURVE",
"358 205 CURVE SMOOTH",
"385 230 OFFCURVE",
"404 264 OFFCURVE",
"411 297 CURVE SMOOTH",
"431 398 LINE SMOOTH",
"438 430 OFFCURVE",
"428 458 OFFCURVE",
"406 478 CURVE SMOOTH",
"384 498 OFFCURVE",
"350 510 OFFCURVE",
"310 510 CURVE SMOOTH",
"227 510 OFFCURVE",
"171 459 OFFCURVE",
"154 370 CURVE",
"143 323 OFFCURVE",
"138 294 OFFCURVE",
"138 277 CURVE SMOOTH",
"138 205 OFFCURVE",
"179 163 OFFCURVE",
"255 163 CURVE SMOOTH"
);
},
{
closed = 1;
nodes = (
"23 0 LINE",
"32 48 LINE",
"445 48 LINE",
"436 0 LINE"
);
}
);
width = 564;
}
);
unicode = 20AB;
},
{
glyphname = uni20AD;
layers = (
{
layerId = "FA36DF9C-9258-4115-A391-0F6A4D75F819";
name = "Light Italic";
paths = (
{
closed = 1;
nodes = (
"108 0 LINE",
"50 0 LINE",
"118 340 LINE",
"34 340 LINE",
"44 389 LINE",
"128 389 LINE",
"190 698 LINE",
"248 698 LINE",
"186 389 LINE",
"266 389 LINE",
"561 698 LINE",
"630 698 LINE",
"331 389 LINE",
"554 389 LINE",
"544 340 LINE",
"324 340 LINE",
"507 0 LINE",
"441 0 LINE",
"262 340 LINE",
"176 340 LINE"
);
}
);
width = 585;
}
);
unicode = 20AD;
},
{
glyphname = uni20AE;
layers = (
{
layerId = "FA36DF9C-9258-4115-A391-0F6A4D75F819";
name = "Light Italic";
paths = (
{
closed = 1;
nodes = (
"325 230 LINE",
"279 0 LINE",
"221 0 LINE",
"261 201 LINE",
"108 132 LINE",
"119 185 LINE",
"271 253 LINE",
"292 357 LINE",
"140 289 LINE",
"150 340 LINE",
"303 409 LINE",
"351 646 LINE",
"124 646 LINE",
"134 698 LINE",
"646 698 LINE",
"636 646 LINE",
"409 646 LINE",
"367 439 LINE",
"520 508 LINE",
"510 455 LINE",
"356 386 LINE",
"335 282 LINE",
"489 351 LINE",
"478 299 LINE"
);
}
);
width = 603;
}
);
unicode = 20AE;
},
{
glyphname = uni20B1;
layers = (
{
layerId = "FA36DF9C-9258-4115-A391-0F6A4D75F819";
name = "Light Italic";
paths = (
{
closed = 1;
nodes = (
"123 356 LINE",
"40 356 LINE",
"50 403 LINE",
"133 403 LINE",
"155 513 LINE",
"71 513 LINE",
"81 560 LINE",
"164 560 LINE",
"192 698 LINE",
"388 698 LINE SMOOTH",
"492 698 OFFCURVE",
"545 643 OFFCURVE",
"553 560 CURVE",
"644 560 LINE",
"634 513 LINE",
"553 513 LINE",
"550 476 OFFCURVE",
"547 438 OFFCURVE",
"536 403 CURVE",
"613 403 LINE",
"603 356 LINE",
"519 356 LINE",
"482 272 OFFCURVE",
"416 219 OFFCURVE",
"319 219 CURVE SMOOTH",
"154 219 LINE",
"110 0 LINE",
"52 0 LINE"
);
},
{
closed = 1;
nodes = (
"222 559 LINE",
"500 559 LINE",
"493 610 OFFCURVE",
"459 647 OFFCURVE",
"392 647 CURVE SMOOTH",
"239 647 LINE"
);
},
{
closed = 1;
nodes = (
"190 402 LINE",
"477 402 LINE",
"480 413 OFFCURVE",
"485 436 OFFCURVE",
"489 459 CURVE SMOOTH",
"493 482 OFFCURVE",
"497 505 OFFCURVE",
"497 514 CURVE",
"213 514 LINE"
);
},
{
closed = 1;
nodes = (
"326 270 LINE SMOOTH",
"393 270 OFFCURVE",
"440 299 OFFCURVE",
"465 357 CURVE",
"181 357 LINE",
"164 270 LINE"
);
}
);
width = 610;
}
);
unicode = 20B1;
},
{
glyphname = uni20B2;
layers = (
{
layerId = "FA36DF9C-9258-4115-A391-0F6A4D75F819";
name = "Light Italic";
paths = (
{
closed = 1;
nodes = (
"192 17 LINE",
"112 52 OFFCURVE",
"60 123 OFFCURVE",
"60 251 CURVE SMOOTH",
"60 364 OFFCURVE",
"88 477 OFFCURVE",
"144 561 CURVE SMOOTH",
"200 645 OFFCURVE",
"284 700 OFFCURVE",
"393 700 CURVE SMOOTH",
"409 700 OFFCURVE",
"424 699 OFFCURVE",
"438 697 CURVE",
"469 780 LINE",
"519 780 LINE",
"484 684 LINE",
"549 660 OFFCURVE",
"587 611 OFFCURVE",
"604 550 CURVE",
"552 524 LINE",
"540 572 OFFCURVE",
"514 612 OFFCURVE",
"465 632 CURVE",
"362 348 LINE",
"584 348 LINE",
"560 230 LINE SMOOTH",
"541 142 OFFCURVE",
"503 84 OFFCURVE",
"454 48 CURVE SMOOTH",
"405 12 OFFCURVE",
"345 -2 OFFCURVE",
"288 -2 CURVE SMOOTH",
"269 -2 OFFCURVE",
"253 -1 OFFCURVE",
"237 2 CURVE",
"206 -82 LINE",
"156 -82 LINE"
);
},
{
closed = 1;
nodes = (
"117 154 OFFCURVE",
"151 96 OFFCURVE",
"211 68 CURVE",
"420 646 LINE",
"413 647 OFFCURVE",
"407 648 OFFCURVE",
"402 648 CURVE SMOOTH",
"397 648 OFFCURVE",
"391 648 OFFCURVE",
"385 648 CURVE SMOOTH",
"264 648 OFFCURVE",
"174 566 OFFCURVE",
"143 411 CURVE SMOOTH",
"125 321 LINE",
"118 292 OFFCURVE",
"117 262 OFFCURVE",
"117 238 CURVE SMOOTH"
);
},
{
closed = 1;
nodes = (
"255 53 LINE",
"268 51 OFFCURVE",
"280 50 OFFCURVE",
"293 50 CURVE SMOOTH",
"344 50 OFFCURVE",
"390 63 OFFCURVE",
"426 91 CURVE SMOOTH",
"462 118 OFFCURVE",
"489 160 OFFCURVE",
"501 217 CURVE SMOOTH",
"517 296 LINE",
"342 296 LINE"
);
}
);
width = 641;
}
);
unicode = 20B2;
},
{
glyphname = uni20B4;
layers = (
{
layerId = "FA36DF9C-9258-4115-A391-0F6A4D75F819";
name = "Light Italic";
paths = (
{
closed = 1;
nodes = (
"163 -12 OFFCURVE",
"95 55 OFFCURVE",
"95 152 CURVE SMOOTH",
"95 196 OFFCURVE",
"115 233 OFFCURVE",
"136 258 CURVE",
"50 258 LINE",
"60 305 LINE",
"182 305 LINE",
"388 417 LINE",
"82 417 LINE",
"92 464 LINE",
"457 464 LINE",
"482 488 OFFCURVE",
"492 521 OFFCURVE",
"492 552 CURVE SMOOTH",
"492 615 OFFCURVE",
"449 659 OFFCURVE",
"373 659 CURVE SMOOTH",
"320 659 OFFCURVE",
"268 640 OFFCURVE",
"215 591 CURVE",
"183 629 LINE",
"247 689 OFFCURVE",
"315 710 OFFCURVE",
"379 710 CURVE SMOOTH",
"431 710 OFFCURVE",
"474 695 OFFCURVE",
"504 668 CURVE SMOOTH",
"534 641 OFFCURVE",
"551 603 OFFCURVE",
"551 558 CURVE SMOOTH",
"551 523 OFFCURVE",
"538 487 OFFCURVE",
"519 464 CURVE",
"605 464 LINE",
"595 417 LINE",
"475 417 LINE",
"269 305 LINE",
"573 305 LINE",
"564 258 LINE",
"200 258 LINE",
"171 230 OFFCURVE",
"153 195 OFFCURVE",
"153 156 CURVE SMOOTH",
"153 85 OFFCURVE",
"201 39 OFFCURVE",
"282 39 CURVE SMOOTH",
"338 39 OFFCURVE",
"394 60 OFFCURVE",
"458 119 CURVE",
"489 80 LINE",
"425 16 OFFCURVE",
"348 -12 OFFCURVE",
"276 -12 CURVE SMOOTH"
);
}
);
width = 613;
}
);
unicode = 20B4;
},
{
glyphname = uni20B5;
layers = (
{
layerId = "FA36DF9C-9258-4115-A391-0F6A4D75F819";
name = "Light Italic";
paths = (
{
closed = 1;
nodes = (
"186 20 LINE",
"110 56 OFFCURVE",
"60 128 OFFCURVE",
"60 248 CURVE SMOOTH",
"60 359 OFFCURVE",
"88 472 OFFCURVE",
"144 557 CURVE SMOOTH",
"199 642 OFFCURVE",
"281 700 OFFCURVE",
"392 700 CURVE SMOOTH",
"405 700 OFFCURVE",
"418 699 OFFCURVE",
"431 697 CURVE",
"461 780 LINE",
"512 780 LINE",
"477 686 LINE",
"542 666 OFFCURVE",
"581 621 OFFCURVE",
"602 553 CURVE",
"551 526 LINE",
"536 579 OFFCURVE",
"508 618 OFFCURVE",
"459 635 CURVE",
"249 55 LINE",
"264 51 OFFCURVE",
"278 50 OFFCURVE",
"294 50 CURVE SMOOTH",
"342 50 OFFCURVE",
"379 61 OFFCURVE",
"411 84 CURVE SMOOTH",
"442 107 OFFCURVE",
"468 141 OFFCURVE",
"493 185 CURVE",
"536 154 LINE",
"504 99 OFFCURVE",
"472 62 OFFCURVE",
"433 36 CURVE SMOOTH",
"394 10 OFFCURVE",
"348 -2 OFFCURVE",
"288 -2 CURVE SMOOTH",
"268 -2 OFFCURVE",
"249 0 OFFCURVE",
"231 5 CURVE",
"199 -82 LINE",
"149 -82 LINE"
);
},
{
closed = 1;
nodes = (
"118 155 OFFCURVE",
"150 100 OFFCURVE",
"205 71 CURVE",
"413 647 LINE",
"408 648 OFFCURVE",
"404 648 OFFCURVE",
"401 648 CURVE SMOOTH",
"397 648 OFFCURVE",
"392 648 OFFCURVE",
"387 648 CURVE SMOOTH",
"266 648 OFFCURVE",
"175 559 OFFCURVE",
"144 408 CURVE SMOOTH",
"126 318 LINE",
"119 289 OFFCURVE",
"118 259 OFFCURVE",
"118 235 CURVE SMOOTH"
);
}
);
width = 597;
}
);
unicode = 20B5;
},
{
glyphname = uni20B8;
layers = (
{
layerId = "FA36DF9C-9258-4115-A391-0F6A4D75F819";
name = "Light Italic";
paths = (
{
closed = 1;
nodes = (
"117 649 LINE",
"127 698 LINE",
"637 698 LINE",
"627 649 LINE"
);
},
{
closed = 1;
nodes = (
"370 493 LINE",
"271 0 LINE",
"213 0 LINE",
"312 493 LINE",
"86 493 LINE",
"96 542 LINE",
"606 542 LINE",
"596 493 LINE"
);
}
);
width = 588;
}
);
unicode = 20B8;
},
{
glyphname = uni20B9;
layers = (
{
layerId = "FA36DF9C-9258-4115-A391-0F6A4D75F819";
name = "Light Italic";
paths = (
{
closed = 1;
nodes = (
"372 0 LINE",
"208 307 LINE",
"67 307 LINE",
"78 357 LINE",
"292 357 LINE SMOOTH",
"340 357 OFFCURVE",
"377 372 OFFCURVE",
"403 396 CURVE SMOOTH",
"429 420 OFFCURVE",
"442 451 OFFCURVE",
"449 483 CURVE",
"103 483 LINE",
"114 532 LINE",
"457 532 LINE",
"458 561 OFFCURVE",
"451 592 OFFCURVE",
"434 613 CURVE SMOOTH",
"417 634 OFFCURVE",
"389 649 OFFCURVE",
"349 649 CURVE SMOOTH",
"137 649 LINE",
"147 698 LINE",
"659 698 LINE",
"648 649 LINE",
"449 649 LINE",
"449 646 LINE",
"489 629 OFFCURVE",
"511 588 OFFCURVE",
"512 532 CURVE",
"625 532 LINE",
"615 483 LINE",
"506 483 LINE",
"497 434 OFFCURVE",
"474 390 OFFCURVE",
"438 358 CURVE SMOOTH",
"401 326 OFFCURVE",
"351 307 OFFCURVE",
"287 307 CURVE SMOOTH",
"270 307 LINE",
"438 0 LINE"
);
}
);
width = 595;
}
);
unicode = 20B9;
},
{
glyphname = uni20BA;
layers = (
{
layerId = "FA36DF9C-9258-4115-A391-0F6A4D75F819";
name = "Light Italic";
paths = (
{
closed = 1;
nodes = (
"157 266 LINE",
"39 213 LINE",
"48 266 LINE",
"167 319 LINE",
"188 423 LINE",
"69 371 LINE",
"80 423 LINE",
"199 476 LINE",
"243 698 LINE",
"301 698 LINE",
"262 504 LINE",
"490 607 LINE",
"481 555 LINE",
"252 452 LINE",
"230 346 LINE",
"459 450 LINE",
"449 398 LINE",
"220 295 LINE",
"172 51 LINE",
"285 51 LINE SMOOTH",
"346 51 OFFCURVE",
"399 77 OFFCURVE",
"440 122 CURVE SMOOTH",
"480 166 OFFCURVE",
"509 229 OFFCURVE",
"524 305 CURVE",
"581 305 LINE",
"564 217 OFFCURVE",
"530 142 OFFCURVE",
"481 87 CURVE SMOOTH",
"432 32 OFFCURVE",
"365 0 OFFCURVE",
"284 0 CURVE SMOOTH",
"103 0 LINE"
);
}
);
width = 628;
}
);
unicode = 20BA;
},
{
glyphname = uni20BD;
layers = (
{
layerId = "FA36DF9C-9258-4115-A391-0F6A4D75F819";
name = "Light Italic";
paths = (
{
closed = 1;
nodes = (
"143 149 LINE",
"113 0 LINE",
"55 0 LINE",
"85 149 LINE",
"2 149 LINE",
"12 196 LINE",
"94 196 LINE",
"117 308 LINE",
"33 308 LINE",
"43 358 LINE",
"127 358 LINE",
"195 698 LINE",
"444 698 LINE SMOOTH",
"556 698 OFFCURVE",
"607 630 OFFCURVE",
"607 538 CURVE SMOOTH",
"607 473 OFFCURVE",
"586 415 OFFCURVE",
"547 374 CURVE SMOOTH",
"508 333 OFFCURVE",
"453 308 OFFCURVE",
"384 308 CURVE SMOOTH",
"175 308 LINE",
"152 196 LINE",
"409 196 LINE",
"399 149 LINE"
);
},
{
closed = 1;
nodes = (
"185 358 LINE",
"391 358 LINE SMOOTH",
"472 358 OFFCURVE",
"523 403 OFFCURVE",
"538 475 CURVE SMOOTH",
"542 496 OFFCURVE",
"545 512 OFFCURVE",
"546 522 CURVE SMOOTH",
"547 531 OFFCURVE",
"548 540 OFFCURVE",
"548 547 CURVE SMOOTH",
"548 604 OFFCURVE",
"518 648 OFFCURVE",
"439 648 CURVE SMOOTH",
"242 648 LINE"
);
}
);
width = 602;
}
);
unicode = 20BD;
},
{
glyphname = uni20BF;
layers = (
{
layerId = "FA36DF9C-9258-4115-A391-0F6A4D75F819";
name = "Light Italic";
paths = (
{
closed = 1;
nodes = (
"276 20 LINE",
"202 20 LINE",
"181 -82 LINE",
"132 -82 LINE",
"153 20 LINE",
"49 20 LINE",
"181 677 LINE",
"284 677 LINE",
"305 780 LINE",
"354 780 LINE",
"333 677 LINE",
"407 677 LINE",
"428 780 LINE",
"477 780 LINE",
"455 674 LINE",
"531 663 OFFCURVE",
"575 617 OFFCURVE",
"575 542 CURVE SMOOTH",
"575 455 OFFCURVE",
"530 390 OFFCURVE",
"439 369 CURVE",
"439 365 LINE",
"503 349 OFFCURVE",
"537 303 OFFCURVE",
"537 231 CURVE SMOOTH",
"537 178 OFFCURVE",
"521 126 OFFCURVE",
"486 87 CURVE SMOOTH",
"451 48 OFFCURVE",
"398 21 OFFCURVE",
"325 20 CURVE",
"304 -82 LINE",
"255 -82 LINE"
);
},
{
closed = 1;
nodes = (
"180 387 LINE",
"350 387 LINE SMOOTH",
"435 387 OFFCURVE",
"491 418 OFFCURVE",
"504 482 CURVE SMOOTH",
"509 510 OFFCURVE",
"513 526 OFFCURVE",
"513 541 CURVE SMOOTH",
"513 601 OFFCURVE",
"471 625 OFFCURVE",
"402 625 CURVE SMOOTH",
"228 625 LINE"
);
},
{
closed = 1;
nodes = (
"117 72 LINE",
"320 72 LINE SMOOTH",
"401 72 OFFCURVE",
"453 105 OFFCURVE",
"468 177 CURVE SMOOTH",
"475 209 OFFCURVE",
"478 227 OFFCURVE",
"478 242 CURVE SMOOTH",
"478 299 OFFCURVE",
"440 336 OFFCURVE",
"363 336 CURVE SMOOTH",
"170 336 LINE"
);
}
);
width = 610;
}
);
unicode = 20BF;
},
{
glyphname = fi;
layers = (
{
layerId = "FA36DF9C-9258-4115-A391-0F6A4D75F819";
name = "Light Italic";
paths = (
{
closed = 1;
nodes = (
"75 512 LINE",
"166 512 LINE",
"195 658 LINE SMOOTH",
"206 710 OFFCURVE",
"227 740 OFFCURVE",
"287 740 CURVE SMOOTH",
"372 740 LINE",
"362 691 LINE",
"257 691 LINE",
"221 512 LINE",
"487 512 LINE",
"394 49 LINE",
"472 49 LINE",
"462 0 LINE",
"391 0 LINE SMOOTH",
"356 0 OFFCURVE",
"340 18 OFFCURVE",
"340 46 CURVE SMOOTH",
"340 49 OFFCURVE",
"340 52 OFFCURVE",
"340 55 CURVE SMOOTH",
"340 58 OFFCURVE",
"341 61 OFFCURVE",
"342 66 CURVE SMOOTH",
"422 463 LINE",
"212 463 LINE",
"96 -118 LINE SMOOTH",
"85 -170 OFFCURVE",
"63 -200 OFFCURVE",
"4 -200 CURVE SMOOTH",
"-70 -200 LINE",
"-60 -151 LINE",
"33 -151 LINE",
"157 463 LINE",
"66 463 LINE"
);
},
{
closed = 1;
nodes = (
"465 651 OFFCURVE",
"456 664 OFFCURVE",
"456 679 CURVE SMOOTH",
"456 681 OFFCURVE",
"456 683 OFFCURVE",
"457 686 CURVE",
"457 689 OFFCURVE",
"458 694 OFFCURVE",
"459 701 CURVE",
"463 722 OFFCURVE",
"477 733 OFFCURVE",
"502 733 CURVE SMOOTH",
"527 733 OFFCURVE",
"536 720 OFFCURVE",
"536 705 CURVE SMOOTH",
"536 703 OFFCURVE",
"536 701 OFFCURVE",
"536 698 CURVE",
"535 695 OFFCURVE",
"534 690 OFFCURVE",
"533 683 CURVE",
"529 662 OFFCURVE",
"515 651 OFFCURVE",
"490 651 CURVE SMOOTH"
);
}
);
width = 540;
}
);
leftKerningGroup = f;
rightKerningGroup = i;
unicode = FB01;
},
{
glyphname = fl;
layers = (
{
layerId = "FA36DF9C-9258-4115-A391-0F6A4D75F819";
name = "Light Italic";
paths = (
{
closed = 1;
nodes = (
"75 512 LINE",
"166 512 LINE",
"195 658 LINE SMOOTH",
"206 710 OFFCURVE",
"227 740 OFFCURVE",
"287 740 CURVE SMOOTH",
"372 740 LINE",
"362 691 LINE",
"257 691 LINE",
"221 512 LINE",
"324 512 LINE",
"314 463 LINE",
"212 463 LINE",
"96 -118 LINE SMOOTH",
"85 -170 OFFCURVE",
"63 -200 OFFCURVE",
"4 -200 CURVE SMOOTH",
"-70 -200 LINE",
"-60 -151 LINE",
"33 -151 LINE",
"157 463 LINE",
"66 463 LINE"
);
},
{
closed = 1;
nodes = (
"393 0 LINE SMOOTH",
"358 0 OFFCURVE",
"342 18 OFFCURVE",
"342 46 CURVE SMOOTH",
"342 49 OFFCURVE",
"342 52 OFFCURVE",
"342 55 CURVE SMOOTH",
"342 57 OFFCURVE",
"343 61 OFFCURVE",
"344 66 CURVE SMOOTH",
"479 740 LINE",
"534 740 LINE",
"396 49 LINE",
"477 49 LINE",
"467 0 LINE"
);
}
);
width = 540;
}
);
leftKerningGroup = f;
rightKerningGroup = d;
unicode = FB02;
},
{
glyphname = aacute;
layers = (
{
layerId = "FA36DF9C-9258-4115-A391-0F6A4D75F819";
name = "Light Italic";
paths = (
{
closed = 1;
nodes = (
"428 0 LINE SMOOTH",
"393 0 OFFCURVE",
"378 18 OFFCURVE",
"378 45 CURVE SMOOTH",
"378 52 OFFCURVE",
"379 61 OFFCURVE",
"381 70 CURVE SMOOTH",
"389 112 LINE",
"386 112 LINE",
"343 29 OFFCURVE",
"294 -12 OFFCURVE",
"214 -12 CURVE SMOOTH",
"165 -12 OFFCURVE",
"125 8 OFFCURVE",
"98 41 CURVE SMOOTH",
"70 74 OFFCURVE",
"55 122 OFFCURVE",
"55 181 CURVE SMOOTH",
"55 264 OFFCURVE",
"76 350 OFFCURVE",
"118 415 CURVE SMOOTH",
"160 479 OFFCURVE",
"222 524 OFFCURVE",
"305 524 CURVE SMOOTH",
"377 524 OFFCURVE",
"432 489 OFFCURVE",
"449 425 CURVE",
"452 425 LINE",
"469 512 LINE",
"524 512 LINE",
"432 49 LINE",
"510 49 LINE",
"500 0 LINE"
);
},
{
closed = 1;
nodes = (
"270 38 OFFCURVE",
"303 54 OFFCURVE",
"335 85 CURVE",
"371 117 OFFCURVE",
"400 162 OFFCURVE",
"411 222 CURVE SMOOTH",
"435 341 LINE SMOOTH",
"442 373 OFFCURVE",
"436 407 OFFCURVE",
"416 432 CURVE SMOOTH",
"396 457 OFFCURVE",
"361 474 OFFCURVE",
"310 474 CURVE SMOOTH",
"214 474 OFFCURVE",
"151 407 OFFCURVE",
"128 294 CURVE SMOOTH",
"116 234 LINE",
"113 215 OFFCURVE",
"111 198 OFFCURVE",
"111 175 CURVE SMOOTH",
"111 136 OFFCURVE",
"119 102 OFFCURVE",
"139 78 CURVE",
"158 53 OFFCURVE",
"187 38 OFFCURVE",
"227 38 CURVE SMOOTH"
);
},
{
closed = 1;
nodes = (
"343 586 LINE",
"308 605 LINE",
"428 769 LINE",
"476 742 LINE"
);
}
);
width = 577;
}
);
leftKerningGroup = a;
rightKerningGroup = a;
unicode = 00E1;
},
{
glyphname = abreve;
layers = (
{
layerId = "FA36DF9C-9258-4115-A391-0F6A4D75F819";
name = "Light Italic";
paths = (
{
closed = 1;
nodes = (
"428 0 LINE SMOOTH",
"393 0 OFFCURVE",
"378 18 OFFCURVE",
"378 45 CURVE SMOOTH",
"378 52 OFFCURVE",
"379 61 OFFCURVE",
"381 70 CURVE SMOOTH",
"389 112 LINE",
"386 112 LINE",
"343 29 OFFCURVE",
"294 -12 OFFCURVE",
"214 -12 CURVE SMOOTH",
"165 -12 OFFCURVE",
"125 8 OFFCURVE",
"98 41 CURVE SMOOTH",
"70 74 OFFCURVE",
"55 122 OFFCURVE",
"55 181 CURVE SMOOTH",
"55 264 OFFCURVE",
"76 350 OFFCURVE",
"118 415 CURVE SMOOTH",
"160 479 OFFCURVE",
"222 524 OFFCURVE",
"305 524 CURVE SMOOTH",
"377 524 OFFCURVE",
"432 489 OFFCURVE",
"449 425 CURVE",
"452 425 LINE",
"469 512 LINE",
"524 512 LINE",
"432 49 LINE",
"510 49 LINE",
"500 0 LINE"
);
},
{
closed = 1;
nodes = (
"270 38 OFFCURVE",
"303 54 OFFCURVE",
"335 85 CURVE",
"371 117 OFFCURVE",
"400 162 OFFCURVE",
"411 222 CURVE SMOOTH",
"435 341 LINE SMOOTH",
"442 373 OFFCURVE",
"436 407 OFFCURVE",
"416 432 CURVE SMOOTH",
"396 457 OFFCURVE",
"361 474 OFFCURVE",
"310 474 CURVE SMOOTH",
"214 474 OFFCURVE",
"151 407 OFFCURVE",
"128 294 CURVE SMOOTH",
"116 234 LINE",
"113 215 OFFCURVE",
"111 198 OFFCURVE",
"111 175 CURVE SMOOTH",
"111 136 OFFCURVE",
"119 102 OFFCURVE",
"139 78 CURVE",
"158 53 OFFCURVE",
"187 38 OFFCURVE",
"227 38 CURVE SMOOTH"
);
},
{
closed = 1;
nodes = (
"303 600 OFFCURVE",
"276 616 OFFCURVE",
"257 640 CURVE SMOOTH",
"238 664 OFFCURVE",
"229 696 OFFCURVE",
"221 727 CURVE",
"256 742 LINE",
"268 714 LINE SMOOTH",
"288 667 OFFCURVE",
"308 645 OFFCURVE",
"347 645 CURVE SMOOTH",
"387 645 OFFCURVE",
"411 663 OFFCURVE",
"450 715 CURVE SMOOTH",
"470 742 LINE",
"506 727 LINE",
"489 696 OFFCURVE",
"471 665 OFFCURVE",
"446 641 CURVE SMOOTH",
"421 617 OFFCURVE",
"390 600 OFFCURVE",
"346 600 CURVE SMOOTH"
);
}
);
width = 577;
}
);
leftKerningGroup = a;
rightKerningGroup = a;
unicode = 0103;
},
{
glyphname = acircumflex;
layers = (
{
layerId = "FA36DF9C-9258-4115-A391-0F6A4D75F819";
name = "Light Italic";
paths = (
{
closed = 1;
nodes = (
"428 0 LINE SMOOTH",
"393 0 OFFCURVE",
"378 18 OFFCURVE",
"378 45 CURVE SMOOTH",
"378 52 OFFCURVE",
"379 61 OFFCURVE",
"381 70 CURVE SMOOTH",
"389 112 LINE",
"386 112 LINE",
"343 29 OFFCURVE",
"294 -12 OFFCURVE",
"214 -12 CURVE SMOOTH",
"165 -12 OFFCURVE",
"125 8 OFFCURVE",
"98 41 CURVE SMOOTH",
"70 74 OFFCURVE",
"55 122 OFFCURVE",
"55 181 CURVE SMOOTH",
"55 264 OFFCURVE",
"76 350 OFFCURVE",
"118 415 CURVE SMOOTH",
"160 479 OFFCURVE",
"222 524 OFFCURVE",
"305 524 CURVE SMOOTH",
"377 524 OFFCURVE",
"432 489 OFFCURVE",
"449 425 CURVE",
"452 425 LINE",
"469 512 LINE",
"524 512 LINE",
"432 49 LINE",
"510 49 LINE",
"500 0 LINE"
);
},
{
closed = 1;
nodes = (
"270 38 OFFCURVE",
"303 54 OFFCURVE",
"335 85 CURVE",
"371 117 OFFCURVE",
"400 162 OFFCURVE",
"411 222 CURVE SMOOTH",
"435 341 LINE SMOOTH",
"442 373 OFFCURVE",
"436 407 OFFCURVE",
"416 432 CURVE SMOOTH",
"396 457 OFFCURVE",
"361 474 OFFCURVE",
"310 474 CURVE SMOOTH",
"214 474 OFFCURVE",
"151 407 OFFCURVE",
"128 294 CURVE SMOOTH",
"116 234 LINE",
"113 215 OFFCURVE",
"111 198 OFFCURVE",
"111 175 CURVE SMOOTH",
"111 136 OFFCURVE",
"119 102 OFFCURVE",
"139 78 CURVE",
"158 53 OFFCURVE",
"187 38 OFFCURVE",
"227 38 CURVE SMOOTH"
);
},
{
closed = 1;
nodes = (
"404 756 LINE",
"496 617 LINE",
"464 594 LINE",
"366 714 LINE",
"224 594 LINE",
"195 618 LINE",
"338 756 LINE"
);
}
);
width = 577;
}
);
leftKerningGroup = a;
rightKerningGroup = a;
unicode = 00E2;
},
{
glyphname = adieresis;
layers = (
{
layerId = "FA36DF9C-9258-4115-A391-0F6A4D75F819";
name = "Light Italic";
paths = (
{
closed = 1;
nodes = (
"428 0 LINE SMOOTH",
"393 0 OFFCURVE",
"378 18 OFFCURVE",
"378 45 CURVE SMOOTH",
"378 52 OFFCURVE",
"379 61 OFFCURVE",
"381 70 CURVE SMOOTH",
"389 112 LINE",
"386 112 LINE",
"343 29 OFFCURVE",
"294 -12 OFFCURVE",
"214 -12 CURVE SMOOTH",
"165 -12 OFFCURVE",
"125 8 OFFCURVE",
"98 41 CURVE SMOOTH",
"70 74 OFFCURVE",
"55 122 OFFCURVE",
"55 181 CURVE SMOOTH",
"55 264 OFFCURVE",
"76 350 OFFCURVE",
"118 415 CURVE SMOOTH",
"160 479 OFFCURVE",
"222 524 OFFCURVE",
"305 524 CURVE SMOOTH",
"377 524 OFFCURVE",
"432 489 OFFCURVE",
"449 425 CURVE",
"452 425 LINE",
"469 512 LINE",
"524 512 LINE",
"432 49 LINE",
"510 49 LINE",
"500 0 LINE"
);
},
{
closed = 1;
nodes = (
"270 38 OFFCURVE",
"303 54 OFFCURVE",
"335 85 CURVE",
"371 117 OFFCURVE",
"400 162 OFFCURVE",
"411 222 CURVE SMOOTH",
"435 341 LINE SMOOTH",
"442 373 OFFCURVE",
"436 407 OFFCURVE",
"416 432 CURVE SMOOTH",
"396 457 OFFCURVE",
"361 474 OFFCURVE",
"310 474 CURVE SMOOTH",
"214 474 OFFCURVE",
"151 407 OFFCURVE",
"128 294 CURVE SMOOTH",
"116 234 LINE",
"113 215 OFFCURVE",
"111 198 OFFCURVE",
"111 175 CURVE SMOOTH",
"111 136 OFFCURVE",
"119 102 OFFCURVE",
"139 78 CURVE",
"158 53 OFFCURVE",
"187 38 OFFCURVE",
"227 38 CURVE SMOOTH"
);
},
{
closed = 1;
nodes = (
"235 626 OFFCURVE",
"226 639 OFFCURVE",
"226 654 CURVE SMOOTH",
"226 656 OFFCURVE",
"226 658 OFFCURVE",
"227 661 CURVE",
"227 664 OFFCURVE",
"228 669 OFFCURVE",
"229 676 CURVE",
"233 697 OFFCURVE",
"247 708 OFFCURVE",
"272 708 CURVE SMOOTH",
"297 708 OFFCURVE",
"306 695 OFFCURVE",
"306 680 CURVE SMOOTH",
"306 678 OFFCURVE",
"306 676 OFFCURVE",
"306 673 CURVE",
"305 670 OFFCURVE",
"304 665 OFFCURVE",
"303 658 CURVE",
"299 637 OFFCURVE",
"285 626 OFFCURVE",
"260 626 CURVE SMOOTH"
);
},
{
closed = 1;
nodes = (
"417 626 OFFCURVE",
"408 639 OFFCURVE",
"408 654 CURVE SMOOTH",
"408 656 OFFCURVE",
"408 658 OFFCURVE",
"409 661 CURVE",
"409 664 OFFCURVE",
"410 669 OFFCURVE",
"411 676 CURVE",
"415 697 OFFCURVE",
"429 708 OFFCURVE",
"454 708 CURVE SMOOTH",
"479 708 OFFCURVE",
"488 695 OFFCURVE",
"488 680 CURVE SMOOTH",
"488 678 OFFCURVE",
"488 676 OFFCURVE",
"488 673 CURVE",
"487 670 OFFCURVE",
"486 665 OFFCURVE",
"485 658 CURVE",
"481 637 OFFCURVE",
"467 626 OFFCURVE",
"442 626 CURVE SMOOTH"
);
}
);
width = 577;
}
);
leftKerningGroup = a;
rightKerningGroup = a;
unicode = 00E4;
},
{
glyphname = uni1EA1;
layers = (
{
layerId = "FA36DF9C-9258-4115-A391-0F6A4D75F819";
name = "Light Italic";
paths = (
{
closed = 1;
nodes = (
"428 0 LINE SMOOTH",
"393 0 OFFCURVE",
"378 18 OFFCURVE",
"378 45 CURVE SMOOTH",
"378 52 OFFCURVE",
"379 61 OFFCURVE",
"381 70 CURVE SMOOTH",
"389 112 LINE",
"386 112 LINE",
"343 29 OFFCURVE",
"294 -12 OFFCURVE",
"214 -12 CURVE SMOOTH",
"165 -12 OFFCURVE",
"125 8 OFFCURVE",
"98 41 CURVE SMOOTH",
"70 74 OFFCURVE",
"55 122 OFFCURVE",
"55 181 CURVE SMOOTH",
"55 264 OFFCURVE",
"76 350 OFFCURVE",
"118 415 CURVE SMOOTH",
"160 479 OFFCURVE",
"222 524 OFFCURVE",
"305 524 CURVE SMOOTH",
"377 524 OFFCURVE",
"432 489 OFFCURVE",
"449 425 CURVE",
"452 425 LINE",
"469 512 LINE",
"524 512 LINE",
"432 49 LINE",
"510 49 LINE",
"500 0 LINE"
);
},
{
closed = 1;
nodes = (
"270 38 OFFCURVE",
"303 54 OFFCURVE",
"335 85 CURVE",
"371 117 OFFCURVE",
"400 162 OFFCURVE",
"411 222 CURVE SMOOTH",
"435 341 LINE SMOOTH",
"442 373 OFFCURVE",
"436 407 OFFCURVE",
"416 432 CURVE SMOOTH",
"396 457 OFFCURVE",
"361 474 OFFCURVE",
"310 474 CURVE SMOOTH",
"214 474 OFFCURVE",
"151 407 OFFCURVE",
"128 294 CURVE SMOOTH",
"116 234 LINE",
"113 215 OFFCURVE",
"111 198 OFFCURVE",
"111 175 CURVE SMOOTH",
"111 136 OFFCURVE",
"119 102 OFFCURVE",
"139 78 CURVE",
"158 53 OFFCURVE",
"187 38 OFFCURVE",
"227 38 CURVE SMOOTH"
);
},
{
closed = 1;
nodes = (
"194 -155 OFFCURVE",
"183 -146 OFFCURVE",
"183 -127 CURVE SMOOTH",
"183 -122 OFFCURVE",
"183 -118 OFFCURVE",
"186 -109 CURVE",
"191 -86 OFFCURVE",
"203 -73 OFFCURVE",
"230 -73 CURVE SMOOTH",
"253 -73 OFFCURVE",
"264 -82 OFFCURVE",
"264 -101 CURVE SMOOTH",
"264 -108 OFFCURVE",
"260 -133 OFFCURVE",
"247 -145 CURVE",
"240 -152 OFFCURVE",
"230 -155 OFFCURVE",
"217 -155 CURVE SMOOTH"
);
}
);
width = 577;
}
);
leftKerningGroup = a;
rightKerningGroup = a;
unicode = 1EA1;
},
{
glyphname = agrave;
layers = (
{
layerId = "FA36DF9C-9258-4115-A391-0F6A4D75F819";
name = "Light Italic";
paths = (
{
closed = 1;
nodes = (
"428 0 LINE SMOOTH",
"393 0 OFFCURVE",
"378 18 OFFCURVE",
"378 45 CURVE SMOOTH",
"378 52 OFFCURVE",
"379 61 OFFCURVE",
"381 70 CURVE SMOOTH",
"389 112 LINE",
"386 112 LINE",
"343 29 OFFCURVE",
"294 -12 OFFCURVE",
"214 -12 CURVE SMOOTH",
"165 -12 OFFCURVE",
"125 8 OFFCURVE",
"98 41 CURVE SMOOTH",
"70 74 OFFCURVE",
"55 122 OFFCURVE",
"55 181 CURVE SMOOTH",
"55 264 OFFCURVE",
"76 350 OFFCURVE",
"118 415 CURVE SMOOTH",
"160 479 OFFCURVE",
"222 524 OFFCURVE",
"305 524 CURVE SMOOTH",
"377 524 OFFCURVE",
"432 489 OFFCURVE",
"449 425 CURVE",
"452 425 LINE",
"469 512 LINE",
"524 512 LINE",
"432 49 LINE",
"510 49 LINE",
"500 0 LINE"
);
},
{
closed = 1;
nodes = (
"270 38 OFFCURVE",
"303 54 OFFCURVE",
"335 85 CURVE",
"371 117 OFFCURVE",
"400 162 OFFCURVE",
"411 222 CURVE SMOOTH",
"435 341 LINE SMOOTH",
"442 373 OFFCURVE",
"436 407 OFFCURVE",
"416 432 CURVE SMOOTH",
"396 457 OFFCURVE",
"361 474 OFFCURVE",
"310 474 CURVE SMOOTH",
"214 474 OFFCURVE",
"151 407 OFFCURVE",
"128 294 CURVE SMOOTH",
"116 234 LINE",
"113 215 OFFCURVE",
"111 198 OFFCURVE",
"111 175 CURVE SMOOTH",
"111 136 OFFCURVE",
"119 102 OFFCURVE",
"139 78 CURVE",
"158 53 OFFCURVE",
"187 38 OFFCURVE",
"227 38 CURVE SMOOTH"
);
},
{
closed = 1;
nodes = (
"256 742 LINE",
"305 766 LINE",
"373 602 LINE",
"340 586 LINE"
);
}
);
width = 577;
}
);
leftKerningGroup = a;
rightKerningGroup = a;
unicode = 00E0;
},
{
glyphname = uni1EA3;
layers = (
{
layerId = "FA36DF9C-9258-4115-A391-0F6A4D75F819";
name = "Light Italic";
paths = (
{
closed = 1;
nodes = (
"428 0 LINE SMOOTH",
"393 0 OFFCURVE",
"378 18 OFFCURVE",
"378 45 CURVE SMOOTH",
"378 52 OFFCURVE",
"379 61 OFFCURVE",
"381 70 CURVE SMOOTH",
"389 112 LINE",
"386 112 LINE",
"343 29 OFFCURVE",
"294 -12 OFFCURVE",
"214 -12 CURVE SMOOTH",
"165 -12 OFFCURVE",
"125 8 OFFCURVE",
"98 41 CURVE SMOOTH",
"70 74 OFFCURVE",
"55 122 OFFCURVE",
"55 181 CURVE SMOOTH",
"55 264 OFFCURVE",
"76 350 OFFCURVE",
"118 415 CURVE SMOOTH",
"160 479 OFFCURVE",
"222 524 OFFCURVE",
"305 524 CURVE SMOOTH",
"377 524 OFFCURVE",
"432 489 OFFCURVE",
"449 425 CURVE",
"452 425 LINE",
"469 512 LINE",
"524 512 LINE",
"432 49 LINE",
"510 49 LINE",
"500 0 LINE"
);
},
{
closed = 1;
nodes = (
"270 38 OFFCURVE",
"303 54 OFFCURVE",
"335 85 CURVE",
"371 117 OFFCURVE",
"400 162 OFFCURVE",
"411 222 CURVE SMOOTH",
"435 341 LINE SMOOTH",
"442 373 OFFCURVE",
"436 407 OFFCURVE",
"416 432 CURVE SMOOTH",
"396 457 OFFCURVE",
"361 474 OFFCURVE",
"310 474 CURVE SMOOTH",
"214 474 OFFCURVE",
"151 407 OFFCURVE",
"128 294 CURVE SMOOTH",
"116 234 LINE",
"113 215 OFFCURVE",
"111 198 OFFCURVE",
"111 175 CURVE SMOOTH",
"111 136 OFFCURVE",
"119 102 OFFCURVE",
"139 78 CURVE",
"158 53 OFFCURVE",
"187 38 OFFCURVE",
"227 38 CURVE SMOOTH"
);
},
{
closed = 1;
nodes = (
"289 754 LINE",
"406 754 LINE SMOOTH",
"443 754 OFFCURVE",
"453 737 OFFCURVE",
"453 718 CURVE SMOOTH",
"453 694 OFFCURVE",
"436 671 OFFCURVE",
"401 631 CURVE SMOOTH",
"357 580 LINE",
"326 597 LINE",
"408 711 LINE",
"283 711 LINE"
);
}
);
width = 577;
}
);
leftKerningGroup = a;
rightKerningGroup = a;
unicode = 1EA3;
},
{
glyphname = amacron;
layers = (
{
layerId = "FA36DF9C-9258-4115-A391-0F6A4D75F819";
name = "Light Italic";
paths = (
{
closed = 1;
nodes = (
"428 0 LINE SMOOTH",
"393 0 OFFCURVE",
"378 18 OFFCURVE",
"378 45 CURVE SMOOTH",
"378 52 OFFCURVE",
"379 61 OFFCURVE",
"381 70 CURVE SMOOTH",
"389 112 LINE",
"386 112 LINE",
"343 29 OFFCURVE",
"294 -12 OFFCURVE",
"214 -12 CURVE SMOOTH",
"165 -12 OFFCURVE",
"125 8 OFFCURVE",
"98 41 CURVE SMOOTH",
"70 74 OFFCURVE",
"55 122 OFFCURVE",
"55 181 CURVE SMOOTH",
"55 264 OFFCURVE",
"76 350 OFFCURVE",
"118 415 CURVE SMOOTH",
"160 479 OFFCURVE",
"222 524 OFFCURVE",
"305 524 CURVE SMOOTH",
"377 524 OFFCURVE",
"432 489 OFFCURVE",
"449 425 CURVE",
"452 425 LINE",
"469 512 LINE",
"524 512 LINE",
"432 49 LINE",
"510 49 LINE",
"500 0 LINE"
);
},
{
closed = 1;
nodes = (
"270 38 OFFCURVE",
"303 54 OFFCURVE",
"335 85 CURVE",
"371 117 OFFCURVE",
"400 162 OFFCURVE",
"411 222 CURVE SMOOTH",
"435 341 LINE SMOOTH",
"442 373 OFFCURVE",
"436 407 OFFCURVE",
"416 432 CURVE SMOOTH",
"396 457 OFFCURVE",
"361 474 OFFCURVE",
"310 474 CURVE SMOOTH",
"214 474 OFFCURVE",
"151 407 OFFCURVE",
"128 294 CURVE SMOOTH",
"116 234 LINE",
"113 215 OFFCURVE",
"111 198 OFFCURVE",
"111 175 CURVE SMOOTH",
"111 136 OFFCURVE",
"119 102 OFFCURVE",
"139 78 CURVE",
"158 53 OFFCURVE",
"187 38 OFFCURVE",
"227 38 CURVE SMOOTH"
);
},
{
closed = 1;
nodes = (
"228 694 LINE",
"495 694 LINE",
"485 646 LINE",
"218 646 LINE"
);
}
);
width = 577;
}
);
leftKerningGroup = a;
rightKerningGroup = a;
unicode = 0101;
},
{
glyphname = aogonek;
layers = (
{
layerId = "FA36DF9C-9258-4115-A391-0F6A4D75F819";
name = "Light Italic";
paths = (
{
closed = 1;
nodes = (
"500 0 LINE",
"448 -32 OFFCURVE",
"416 -56 OFFCURVE",
"396 -76 CURVE SMOOTH",
"376 -96 OFFCURVE",
"370 -111 OFFCURVE",
"370 -127 CURVE SMOOTH",
"370 -154 OFFCURVE",
"387 -165 OFFCURVE",
"410 -165 CURVE SMOOTH",
"433 -165 OFFCURVE",
"453 -155 OFFCURVE",
"469 -139 CURVE",
"496 -170 LINE",
"480 -189 OFFCURVE",
"450 -205 OFFCURVE",
"407 -205 CURVE SMOOTH",
"360 -205 OFFCURVE",
"321 -185 OFFCURVE",
"321 -134 CURVE SMOOTH",
"321 -86 OFFCURVE",
"360 -47 OFFCURVE",
"451 -4 CURVE",
"450 0 LINE",
"428 0 LINE SMOOTH",
"393 0 OFFCURVE",
"378 18 OFFCURVE",
"378 45 CURVE SMOOTH",
"378 52 OFFCURVE",
"379 60 OFFCURVE",
"381 69 CURVE SMOOTH",
"389 112 LINE",
"386 112 LINE",
"343 29 OFFCURVE",
"294 -12 OFFCURVE",
"214 -12 CURVE SMOOTH",
"165 -12 OFFCURVE",
"125 8 OFFCURVE",
"98 41 CURVE SMOOTH",
"70 74 OFFCURVE",
"55 122 OFFCURVE",
"55 181 CURVE SMOOTH",
"55 264 OFFCURVE",
"76 350 OFFCURVE",
"118 415 CURVE SMOOTH",
"160 479 OFFCURVE",
"222 524 OFFCURVE",
"305 524 CURVE SMOOTH",
"377 524 OFFCURVE",
"432 489 OFFCURVE",
"449 425 CURVE",
"452 425 LINE",
"469 512 LINE",
"524 512 LINE",
"432 49 LINE",
"510 49 LINE"
);
},
{
closed = 1;
nodes = (
"270 38 OFFCURVE",
"303 54 OFFCURVE",
"335 85 CURVE",
"371 117 OFFCURVE",
"400 162 OFFCURVE",
"411 222 CURVE SMOOTH",
"435 341 LINE SMOOTH",
"442 373 OFFCURVE",
"436 407 OFFCURVE",
"416 432 CURVE SMOOTH",
"396 457 OFFCURVE",
"361 474 OFFCURVE",
"310 474 CURVE SMOOTH",
"214 474 OFFCURVE",
"151 407 OFFCURVE",
"128 294 CURVE SMOOTH",
"116 234 LINE",
"113 215 OFFCURVE",
"111 198 OFFCURVE",
"111 175 CURVE SMOOTH",
"111 136 OFFCURVE",
"119 102 OFFCURVE",
"139 78 CURVE",
"158 53 OFFCURVE",
"187 38 OFFCURVE",
"227 38 CURVE SMOOTH"
);
}
);
width = 577;
}
);
leftKerningGroup = a;
rightKerningGroup = a;
unicode = 0105;
},
{
glyphname = aring;
layers = (
{
layerId = "FA36DF9C-9258-4115-A391-0F6A4D75F819";
name = "Light Italic";
paths = (
{
closed = 1;
nodes = (
"428 0 LINE SMOOTH",
"393 0 OFFCURVE",
"378 18 OFFCURVE",
"378 45 CURVE SMOOTH",
"378 52 OFFCURVE",
"379 61 OFFCURVE",
"381 70 CURVE SMOOTH",
"389 112 LINE",
"386 112 LINE",
"343 29 OFFCURVE",
"294 -12 OFFCURVE",
"214 -12 CURVE SMOOTH",
"165 -12 OFFCURVE",
"125 8 OFFCURVE",
"98 41 CURVE SMOOTH",
"70 74 OFFCURVE",
"55 122 OFFCURVE",
"55 181 CURVE SMOOTH",
"55 264 OFFCURVE",
"76 350 OFFCURVE",
"118 415 CURVE SMOOTH",
"160 479 OFFCURVE",
"222 524 OFFCURVE",
"305 524 CURVE SMOOTH",
"377 524 OFFCURVE",
"432 489 OFFCURVE",
"449 425 CURVE",
"452 425 LINE",
"469 512 LINE",
"524 512 LINE",
"432 49 LINE",
"510 49 LINE",
"500 0 LINE"
);
},
{
closed = 1;
nodes = (
"270 38 OFFCURVE",
"303 54 OFFCURVE",
"335 85 CURVE",
"371 117 OFFCURVE",
"400 162 OFFCURVE",
"411 222 CURVE SMOOTH",
"435 341 LINE SMOOTH",
"442 373 OFFCURVE",
"436 407 OFFCURVE",
"416 432 CURVE SMOOTH",
"396 457 OFFCURVE",
"361 474 OFFCURVE",
"310 474 CURVE SMOOTH",
"214 474 OFFCURVE",
"151 407 OFFCURVE",
"128 294 CURVE SMOOTH",
"116 234 LINE",
"113 215 OFFCURVE",
"111 198 OFFCURVE",
"111 175 CURVE SMOOTH",
"111 136 OFFCURVE",
"119 102 OFFCURVE",
"139 78 CURVE",
"158 53 OFFCURVE",
"187 38 OFFCURVE",
"227 38 CURVE SMOOTH"
);
},
{
closed = 1;
nodes = (
"284 581 OFFCURVE",
"254 622 OFFCURVE",
"254 670 CURVE SMOOTH",
"254 745 OFFCURVE",
"301 792 OFFCURVE",
"374 792 CURVE SMOOTH",
"434 792 OFFCURVE",
"464 751 OFFCURVE",
"464 703 CURVE SMOOTH",
"464 628 OFFCURVE",
"417 581 OFFCURVE",
"344 581 CURVE SMOOTH"
);
},
{
closed = 1;
nodes = (
"388 617 OFFCURVE",
"412 638 OFFCURVE",
"419 677 CURVE",
"422 690 OFFCURVE",
"423 700 OFFCURVE",
"423 707 CURVE SMOOTH",
"423 738 OFFCURVE",
"405 756 OFFCURVE",
"369 756 CURVE SMOOTH",
"330 756 OFFCURVE",
"306 735 OFFCURVE",
"299 696 CURVE",
"296 683 OFFCURVE",
"295 673 OFFCURVE",
"295 666 CURVE SMOOTH",
"295 635 OFFCURVE",
"313 617 OFFCURVE",
"349 617 CURVE SMOOTH"
);
}
);
width = 577;
}
);
leftKerningGroup = a;
rightKerningGroup = a;
unicode = 00E5;
},
{
glyphname = aringacute;
layers = (
{
layerId = "FA36DF9C-9258-4115-A391-0F6A4D75F819";
name = "Light Italic";
paths = (
{
closed = 1;
nodes = (
"428 0 LINE SMOOTH",
"393 0 OFFCURVE",
"378 18 OFFCURVE",
"378 45 CURVE SMOOTH",
"378 52 OFFCURVE",
"379 61 OFFCURVE",
"381 70 CURVE SMOOTH",
"389 112 LINE",
"386 112 LINE",
"343 29 OFFCURVE",
"294 -12 OFFCURVE",
"214 -12 CURVE SMOOTH",
"165 -12 OFFCURVE",
"125 8 OFFCURVE",
"98 41 CURVE SMOOTH",
"70 74 OFFCURVE",
"55 122 OFFCURVE",
"55 181 CURVE SMOOTH",
"55 264 OFFCURVE",
"76 350 OFFCURVE",
"118 415 CURVE SMOOTH",
"160 479 OFFCURVE",
"222 524 OFFCURVE",
"305 524 CURVE SMOOTH",
"377 524 OFFCURVE",
"432 489 OFFCURVE",
"449 425 CURVE",
"452 425 LINE",
"469 512 LINE",
"524 512 LINE",
"432 49 LINE",
"510 49 LINE",
"500 0 LINE"
);
},
{
closed = 1;
nodes = (
"270 38 OFFCURVE",
"303 54 OFFCURVE",
"335 85 CURVE",
"371 117 OFFCURVE",
"400 162 OFFCURVE",
"411 222 CURVE SMOOTH",
"435 341 LINE SMOOTH",
"442 373 OFFCURVE",
"436 407 OFFCURVE",
"416 432 CURVE SMOOTH",
"396 457 OFFCURVE",
"361 474 OFFCURVE",
"310 474 CURVE SMOOTH",
"214 474 OFFCURVE",
"151 407 OFFCURVE",
"128 294 CURVE SMOOTH",
"116 234 LINE",
"113 215 OFFCURVE",
"111 198 OFFCURVE",
"111 175 CURVE SMOOTH",
"111 136 OFFCURVE",
"119 102 OFFCURVE",
"139 78 CURVE",
"158 53 OFFCURVE",
"187 38 OFFCURVE",
"227 38 CURVE SMOOTH"
);
},
{
closed = 1;
nodes = (
"381 808 LINE",
"353 829 LINE",
"445 939 LINE",
"484 910 LINE"
);
},
{
closed = 1;
nodes = (
"282 575 OFFCURVE",
"252 616 OFFCURVE",
"252 664 CURVE SMOOTH",
"252 739 OFFCURVE",
"299 786 OFFCURVE",
"372 786 CURVE SMOOTH",
"432 786 OFFCURVE",
"462 745 OFFCURVE",
"462 697 CURVE SMOOTH",
"462 622 OFFCURVE",
"415 575 OFFCURVE",
"342 575 CURVE SMOOTH"
);
},
{
closed = 1;
nodes = (
"386 611 OFFCURVE",
"410 632 OFFCURVE",
"417 671 CURVE",
"420 684 OFFCURVE",
"421 694 OFFCURVE",
"421 701 CURVE SMOOTH",
"421 732 OFFCURVE",
"403 750 OFFCURVE",
"367 750 CURVE SMOOTH",
"328 750 OFFCURVE",
"304 729 OFFCURVE",
"297 690 CURVE",
"294 677 OFFCURVE",
"293 667 OFFCURVE",
"293 660 CURVE SMOOTH",
"293 629 OFFCURVE",
"311 611 OFFCURVE",
"347 611 CURVE SMOOTH"
);
}
);
width = 577;
}
);
leftKerningGroup = a;
rightKerningGroup = a;
unicode = 01FB;
},
{
glyphname = atilde;
layers = (
{
layerId = "FA36DF9C-9258-4115-A391-0F6A4D75F819";
name = "Light Italic";
paths = (
{
closed = 1;
nodes = (
"428 0 LINE SMOOTH",
"393 0 OFFCURVE",
"378 18 OFFCURVE",
"378 45 CURVE SMOOTH",
"378 52 OFFCURVE",
"379 61 OFFCURVE",
"381 70 CURVE SMOOTH",
"389 112 LINE",
"386 112 LINE",
"343 29 OFFCURVE",
"294 -12 OFFCURVE",
"214 -12 CURVE SMOOTH",
"165 -12 OFFCURVE",
"125 8 OFFCURVE",
"98 41 CURVE SMOOTH",
"70 74 OFFCURVE",
"55 122 OFFCURVE",
"55 181 CURVE SMOOTH",
"55 264 OFFCURVE",
"76 350 OFFCURVE",
"118 415 CURVE SMOOTH",
"160 479 OFFCURVE",
"222 524 OFFCURVE",
"305 524 CURVE SMOOTH",
"377 524 OFFCURVE",
"432 489 OFFCURVE",
"449 425 CURVE",
"452 425 LINE",
"469 512 LINE",
"524 512 LINE",
"432 49 LINE",
"510 49 LINE",
"500 0 LINE"
);
},
{
closed = 1;
nodes = (
"270 38 OFFCURVE",
"303 54 OFFCURVE",
"335 85 CURVE",
"371 117 OFFCURVE",
"400 162 OFFCURVE",
"411 222 CURVE SMOOTH",
"435 341 LINE SMOOTH",
"442 373 OFFCURVE",
"436 407 OFFCURVE",
"416 432 CURVE SMOOTH",
"396 457 OFFCURVE",
"361 474 OFFCURVE",
"310 474 CURVE SMOOTH",
"214 474 OFFCURVE",
"151 407 OFFCURVE",
"128 294 CURVE SMOOTH",
"116 234 LINE",
"113 215 OFFCURVE",
"111 198 OFFCURVE",
"111 175 CURVE SMOOTH",
"111 136 OFFCURVE",
"119 102 OFFCURVE",
"139 78 CURVE",
"158 53 OFFCURVE",
"187 38 OFFCURVE",
"227 38 CURVE SMOOTH"
);
},
{
closed = 1;
nodes = (
"390 618 OFFCURVE",
"371 630 OFFCURVE",
"347 646 CURVE SMOOTH",
"320 665 OFFCURVE",
"302 670 OFFCURVE",
"283 670 CURVE SMOOTH",
"260 670 OFFCURVE",
"242 660 OFFCURVE",
"219 641 CURVE",
"198 669 LINE",
"223 697 OFFCURVE",
"252 717 OFFCURVE",
"291 717 CURVE SMOOTH",
"322 717 OFFCURVE",
"341 705 OFFCURVE",
"365 689 CURVE SMOOTH",
"392 670 OFFCURVE",
"410 665 OFFCURVE",
"429 665 CURVE SMOOTH",
"452 665 OFFCURVE",
"470 675 OFFCURVE",
"493 694 CURVE",
"514 666 LINE",
"489 638 OFFCURVE",
"460 618 OFFCURVE",
"421 618 CURVE SMOOTH"
);
}
);
width = 577;
}
);
leftKerningGroup = a;
rightKerningGroup = a;
unicode = 00E3;
},
{
glyphname = uni1EAF;
layers = (
{
layerId = "FA36DF9C-9258-4115-A391-0F6A4D75F819";
name = "Light Italic";
paths = (
{
closed = 1;
nodes = (
"428 0 LINE SMOOTH",
"393 0 OFFCURVE",
"378 18 OFFCURVE",
"378 45 CURVE SMOOTH",
"378 52 OFFCURVE",
"379 61 OFFCURVE",
"381 70 CURVE SMOOTH",
"389 112 LINE",
"386 112 LINE",
"343 29 OFFCURVE",
"294 -12 OFFCURVE",
"214 -12 CURVE SMOOTH",
"165 -12 OFFCURVE",
"125 8 OFFCURVE",
"98 41 CURVE SMOOTH",
"70 74 OFFCURVE",
"55 122 OFFCURVE",
"55 181 CURVE SMOOTH",
"55 264 OFFCURVE",
"76 350 OFFCURVE",
"118 415 CURVE SMOOTH",
"160 479 OFFCURVE",
"222 524 OFFCURVE",
"305 524 CURVE SMOOTH",
"377 524 OFFCURVE",
"432 489 OFFCURVE",
"449 425 CURVE",
"452 425 LINE",
"469 512 LINE",
"524 512 LINE",
"432 49 LINE",
"510 49 LINE",
"500 0 LINE"
);
},
{
closed = 1;
nodes = (
"270 38 OFFCURVE",
"303 54 OFFCURVE",
"335 85 CURVE",
"371 117 OFFCURVE",
"400 162 OFFCURVE",
"411 222 CURVE SMOOTH",
"435 341 LINE SMOOTH",
"442 373 OFFCURVE",
"436 407 OFFCURVE",
"416 432 CURVE SMOOTH",
"396 457 OFFCURVE",
"361 474 OFFCURVE",
"310 474 CURVE SMOOTH",
"214 474 OFFCURVE",
"151 407 OFFCURVE",
"128 294 CURVE SMOOTH",
"116 234 LINE",
"113 215 OFFCURVE",
"111 198 OFFCURVE",
"111 175 CURVE SMOOTH",
"111 136 OFFCURVE",
"119 102 OFFCURVE",
"139 78 CURVE",
"158 53 OFFCURVE",
"187 38 OFFCURVE",
"227 38 CURVE SMOOTH"
);
},
{
closed = 1;
nodes = (
"301 589 OFFCURVE",
"274 605 OFFCURVE",
"255 629 CURVE",
"235 652 OFFCURVE",
"226 683 OFFCURVE",
"219 712 CURVE",
"254 727 LINE",
"264 700 LINE SMOOTH",
"283 653 OFFCURVE",
"305 631 OFFCURVE",
"345 631 CURVE SMOOTH",
"385 631 OFFCURVE",
"414 646 OFFCURVE",
"449 698 CURVE SMOOTH",
"468 727 LINE",
"504 712 LINE",
"488 681 OFFCURVE",
"469 651 OFFCURVE",
"444 628 CURVE SMOOTH",
"419 605 OFFCURVE",
"387 589 OFFCURVE",
"344 589 CURVE SMOOTH"
);
},
{
closed = 1;
nodes = (
"358 697 LINE",
"323 717 LINE",
"443 880 LINE",
"490 853 LINE"
);
}
);
width = 577;
}
);
leftKerningGroup = a;
rightKerningGroup = a;
unicode = 1EAF;
},
{
glyphname = uni1EB7;
layers = (
{
layerId = "FA36DF9C-9258-4115-A391-0F6A4D75F819";
name = "Light Italic";
paths = (
{
closed = 1;
nodes = (
"428 0 LINE SMOOTH",
"393 0 OFFCURVE",
"378 18 OFFCURVE",
"378 45 CURVE SMOOTH",
"378 52 OFFCURVE",
"379 61 OFFCURVE",
"381 70 CURVE SMOOTH",
"389 112 LINE",
"386 112 LINE",
"343 29 OFFCURVE",
"294 -12 OFFCURVE",
"214 -12 CURVE SMOOTH",
"165 -12 OFFCURVE",
"125 8 OFFCURVE",
"98 41 CURVE SMOOTH",
"70 74 OFFCURVE",
"55 122 OFFCURVE",
"55 181 CURVE SMOOTH",
"55 264 OFFCURVE",
"76 350 OFFCURVE",
"118 415 CURVE SMOOTH",
"160 479 OFFCURVE",
"222 524 OFFCURVE",
"305 524 CURVE SMOOTH",
"377 524 OFFCURVE",
"432 489 OFFCURVE",
"449 425 CURVE",
"452 425 LINE",
"469 512 LINE",
"524 512 LINE",
"432 49 LINE",
"510 49 LINE",
"500 0 LINE"
);
},
{
closed = 1;
nodes = (
"270 38 OFFCURVE",
"303 54 OFFCURVE",
"335 85 CURVE",
"371 117 OFFCURVE",
"400 162 OFFCURVE",
"411 222 CURVE SMOOTH",
"435 341 LINE SMOOTH",
"442 373 OFFCURVE",
"436 407 OFFCURVE",
"416 432 CURVE SMOOTH",
"396 457 OFFCURVE",
"361 474 OFFCURVE",
"310 474 CURVE SMOOTH",
"214 474 OFFCURVE",
"151 407 OFFCURVE",
"128 294 CURVE SMOOTH",
"116 234 LINE",
"113 215 OFFCURVE",
"111 198 OFFCURVE",
"111 175 CURVE SMOOTH",
"111 136 OFFCURVE",
"119 102 OFFCURVE",
"139 78 CURVE",
"158 53 OFFCURVE",
"187 38 OFFCURVE",
"227 38 CURVE SMOOTH"
);
},
{
closed = 1;
nodes = (
"303 600 OFFCURVE",
"276 616 OFFCURVE",
"257 640 CURVE SMOOTH",
"238 664 OFFCURVE",
"229 696 OFFCURVE",
"221 727 CURVE",
"256 742 LINE",
"268 714 LINE SMOOTH",
"288 667 OFFCURVE",
"308 645 OFFCURVE",
"347 645 CURVE SMOOTH",
"387 645 OFFCURVE",
"411 663 OFFCURVE",
"450 715 CURVE SMOOTH",
"470 742 LINE",
"506 727 LINE",
"489 696 OFFCURVE",
"471 665 OFFCURVE",
"446 641 CURVE SMOOTH",
"421 617 OFFCURVE",
"390 600 OFFCURVE",
"346 600 CURVE SMOOTH"
);
},
{
closed = 1;
nodes = (
"194 -155 OFFCURVE",
"183 -146 OFFCURVE",
"183 -127 CURVE SMOOTH",
"183 -122 OFFCURVE",
"183 -118 OFFCURVE",
"186 -109 CURVE",
"191 -86 OFFCURVE",
"203 -73 OFFCURVE",
"230 -73 CURVE SMOOTH",
"253 -73 OFFCURVE",
"264 -82 OFFCURVE",
"264 -101 CURVE SMOOTH",
"264 -108 OFFCURVE",
"260 -133 OFFCURVE",
"247 -145 CURVE",
"240 -152 OFFCURVE",
"230 -155 OFFCURVE",
"217 -155 CURVE SMOOTH"
);
}
);
width = 577;
}
);
leftKerningGroup = a;
rightKerningGroup = a;
unicode = 1EB7;
},
{
glyphname = uni1EB1;
layers = (
{
layerId = "FA36DF9C-9258-4115-A391-0F6A4D75F819";
name = "Light Italic";
paths = (
{
closed = 1;
nodes = (
"428 0 LINE SMOOTH",
"393 0 OFFCURVE",
"378 18 OFFCURVE",
"378 45 CURVE SMOOTH",
"378 52 OFFCURVE",
"379 61 OFFCURVE",
"381 70 CURVE SMOOTH",
"389 112 LINE",
"386 112 LINE",
"343 29 OFFCURVE",
"294 -12 OFFCURVE",
"214 -12 CURVE SMOOTH",
"165 -12 OFFCURVE",
"125 8 OFFCURVE",
"98 41 CURVE SMOOTH",
"70 74 OFFCURVE",
"55 122 OFFCURVE",
"55 181 CURVE SMOOTH",
"55 264 OFFCURVE",
"76 350 OFFCURVE",
"118 415 CURVE SMOOTH",
"160 479 OFFCURVE",
"222 524 OFFCURVE",
"305 524 CURVE SMOOTH",
"377 524 OFFCURVE",
"432 489 OFFCURVE",
"449 425 CURVE",
"452 425 LINE",
"469 512 LINE",
"524 512 LINE",
"432 49 LINE",
"510 49 LINE",
"500 0 LINE"
);
},
{
closed = 1;
nodes = (
"270 38 OFFCURVE",
"303 54 OFFCURVE",
"335 85 CURVE",
"371 117 OFFCURVE",
"400 162 OFFCURVE",
"411 222 CURVE SMOOTH",
"435 341 LINE SMOOTH",
"442 373 OFFCURVE",
"436 407 OFFCURVE",
"416 432 CURVE SMOOTH",
"396 457 OFFCURVE",
"361 474 OFFCURVE",
"310 474 CURVE SMOOTH",
"214 474 OFFCURVE",
"151 407 OFFCURVE",
"128 294 CURVE SMOOTH",
"116 234 LINE",
"113 215 OFFCURVE",
"111 198 OFFCURVE",
"111 175 CURVE SMOOTH",
"111 136 OFFCURVE",
"119 102 OFFCURVE",
"139 78 CURVE",
"158 53 OFFCURVE",
"187 38 OFFCURVE",
"227 38 CURVE SMOOTH"
);
},
{
closed = 1;
nodes = (
"301 589 OFFCURVE",
"274 605 OFFCURVE",
"255 629 CURVE",
"235 652 OFFCURVE",
"226 683 OFFCURVE",
"219 712 CURVE",
"254 727 LINE",
"264 700 LINE SMOOTH",
"283 653 OFFCURVE",
"305 631 OFFCURVE",
"345 631 CURVE SMOOTH",
"385 631 OFFCURVE",
"414 646 OFFCURVE",
"449 698 CURVE SMOOTH",
"468 727 LINE",
"504 712 LINE",
"488 681 OFFCURVE",
"469 651 OFFCURVE",
"444 628 CURVE SMOOTH",
"419 605 OFFCURVE",
"387 589 OFFCURVE",
"344 589 CURVE SMOOTH"
);
},
{
closed = 1;
nodes = (
"265 856 LINE",
"315 879 LINE",
"383 715 LINE",
"349 699 LINE"
);
}
);
width = 577;
}
);
leftKerningGroup = a;
rightKerningGroup = a;
unicode = 1EB1;
},
{
glyphname = uni1EB3;
layers = (
{
layerId = "FA36DF9C-9258-4115-A391-0F6A4D75F819";
name = "Light Italic";
paths = (
{
closed = 1;
nodes = (
"428 0 LINE SMOOTH",
"393 0 OFFCURVE",
"378 18 OFFCURVE",
"378 45 CURVE SMOOTH",
"378 52 OFFCURVE",
"379 61 OFFCURVE",
"381 70 CURVE SMOOTH",
"389 112 LINE",
"386 112 LINE",
"343 29 OFFCURVE",
"294 -12 OFFCURVE",
"214 -12 CURVE SMOOTH",
"165 -12 OFFCURVE",
"125 8 OFFCURVE",
"98 41 CURVE SMOOTH",
"70 74 OFFCURVE",
"55 122 OFFCURVE",
"55 181 CURVE SMOOTH",
"55 264 OFFCURVE",
"76 350 OFFCURVE",
"118 415 CURVE SMOOTH",
"160 479 OFFCURVE",
"222 524 OFFCURVE",
"305 524 CURVE SMOOTH",
"377 524 OFFCURVE",
"432 489 OFFCURVE",
"449 425 CURVE",
"452 425 LINE",
"469 512 LINE",
"524 512 LINE",
"432 49 LINE",
"510 49 LINE",
"500 0 LINE"
);
},
{
closed = 1;
nodes = (
"270 38 OFFCURVE",
"303 54 OFFCURVE",
"335 85 CURVE",
"371 117 OFFCURVE",
"400 162 OFFCURVE",
"411 222 CURVE SMOOTH",
"435 341 LINE SMOOTH",
"442 373 OFFCURVE",
"436 407 OFFCURVE",
"416 432 CURVE SMOOTH",
"396 457 OFFCURVE",
"361 474 OFFCURVE",
"310 474 CURVE SMOOTH",
"214 474 OFFCURVE",
"151 407 OFFCURVE",
"128 294 CURVE SMOOTH",
"116 234 LINE",
"113 215 OFFCURVE",
"111 198 OFFCURVE",
"111 175 CURVE SMOOTH",
"111 136 OFFCURVE",
"119 102 OFFCURVE",
"139 78 CURVE",
"158 53 OFFCURVE",
"187 38 OFFCURVE",
"227 38 CURVE SMOOTH"
);
},
{
closed = 1;
nodes = (
"301 589 OFFCURVE",
"274 605 OFFCURVE",
"255 629 CURVE",
"235 652 OFFCURVE",
"226 683 OFFCURVE",
"219 712 CURVE",
"254 727 LINE",
"264 700 LINE SMOOTH",
"283 653 OFFCURVE",
"305 631 OFFCURVE",
"345 631 CURVE SMOOTH",
"385 631 OFFCURVE",
"414 646 OFFCURVE",
"449 698 CURVE SMOOTH",
"468 727 LINE",
"504 712 LINE",
"488 681 OFFCURVE",
"469 651 OFFCURVE",
"444 628 CURVE SMOOTH",
"419 605 OFFCURVE",
"387 589 OFFCURVE",
"344 589 CURVE SMOOTH"
);
},
{
closed = 1;
nodes = (
"291 867 LINE",
"408 867 LINE SMOOTH",
"445 867 OFFCURVE",
"456 850 OFFCURVE",
"456 831 CURVE SMOOTH",
"456 808 OFFCURVE",
"439 785 OFFCURVE",
"404 745 CURVE SMOOTH",
"360 693 LINE",
"329 711 LINE",
"411 825 LINE",
"285 825 LINE"
);
}
);
width = 577;
}
);
leftKerningGroup = a;
rightKerningGroup = a;
unicode = 1EB3;
},
{
glyphname = uni1EB5;
layers = (
{
layerId = "FA36DF9C-9258-4115-A391-0F6A4D75F819";
name = "Light Italic";
paths = (
{
closed = 1;
nodes = (
"428 0 LINE SMOOTH",
"393 0 OFFCURVE",
"378 18 OFFCURVE",
"378 45 CURVE SMOOTH",
"378 52 OFFCURVE",
"379 61 OFFCURVE",
"381 70 CURVE SMOOTH",
"389 112 LINE",
"386 112 LINE",
"343 29 OFFCURVE",
"294 -12 OFFCURVE",
"214 -12 CURVE SMOOTH",
"165 -12 OFFCURVE",
"125 8 OFFCURVE",
"98 41 CURVE SMOOTH",
"70 74 OFFCURVE",
"55 122 OFFCURVE",
"55 181 CURVE SMOOTH",
"55 264 OFFCURVE",
"76 350 OFFCURVE",
"118 415 CURVE SMOOTH",
"160 479 OFFCURVE",
"222 524 OFFCURVE",
"305 524 CURVE SMOOTH",
"377 524 OFFCURVE",
"432 489 OFFCURVE",
"449 425 CURVE",
"452 425 LINE",
"469 512 LINE",
"524 512 LINE",
"432 49 LINE",
"510 49 LINE",
"500 0 LINE"
);
},
{
closed = 1;
nodes = (
"270 38 OFFCURVE",
"303 54 OFFCURVE",
"335 85 CURVE",
"371 117 OFFCURVE",
"400 162 OFFCURVE",
"411 222 CURVE SMOOTH",
"435 341 LINE SMOOTH",
"442 373 OFFCURVE",
"436 407 OFFCURVE",
"416 432 CURVE SMOOTH",
"396 457 OFFCURVE",
"361 474 OFFCURVE",
"310 474 CURVE SMOOTH",
"214 474 OFFCURVE",
"151 407 OFFCURVE",
"128 294 CURVE SMOOTH",
"116 234 LINE",
"113 215 OFFCURVE",
"111 198 OFFCURVE",
"111 175 CURVE SMOOTH",
"111 136 OFFCURVE",
"119 102 OFFCURVE",
"139 78 CURVE",
"158 53 OFFCURVE",
"187 38 OFFCURVE",
"227 38 CURVE SMOOTH"
);
},
{
closed = 1;
nodes = (
"301 589 OFFCURVE",
"274 605 OFFCURVE",
"255 629 CURVE",
"235 652 OFFCURVE",
"226 683 OFFCURVE",
"219 712 CURVE",
"254 727 LINE",
"264 700 LINE SMOOTH",
"283 653 OFFCURVE",
"305 631 OFFCURVE",
"345 631 CURVE SMOOTH",
"385 631 OFFCURVE",
"414 646 OFFCURVE",
"449 698 CURVE SMOOTH",
"468 727 LINE",
"504 712 LINE",
"488 681 OFFCURVE",
"469 651 OFFCURVE",
"444 628 CURVE SMOOTH",
"419 605 OFFCURVE",
"387 589 OFFCURVE",
"344 589 CURVE SMOOTH"
);
},
{
closed = 1;
nodes = (
"410 769 OFFCURVE",
"391 781 OFFCURVE",
"367 797 CURVE SMOOTH",
"340 816 OFFCURVE",
"322 821 OFFCURVE",
"303 821 CURVE SMOOTH",
"280 821 OFFCURVE",
"262 811 OFFCURVE",
"239 792 CURVE",
"218 819 LINE",
"243 847 OFFCURVE",
"272 867 OFFCURVE",
"311 867 CURVE SMOOTH",
"342 867 OFFCURVE",
"361 855 OFFCURVE",
"385 839 CURVE SMOOTH",
"412 820 OFFCURVE",
"430 815 OFFCURVE",
"449 815 CURVE SMOOTH",
"472 815 OFFCURVE",
"490 825 OFFCURVE",
"513 844 CURVE",
"534 817 LINE",
"509 789 OFFCURVE",
"480 769 OFFCURVE",
"441 769 CURVE SMOOTH"
);
}
);
width = 577;
}
);
leftKerningGroup = a;
rightKerningGroup = a;
unicode = 1EB5;
},
{
glyphname = uni1EA5;
layers = (
{
layerId = "FA36DF9C-9258-4115-A391-0F6A4D75F819";
name = "Light Italic";
paths = (
{
closed = 1;
nodes = (
"428 0 LINE SMOOTH",
"393 0 OFFCURVE",
"378 18 OFFCURVE",
"378 45 CURVE SMOOTH",
"378 52 OFFCURVE",
"379 61 OFFCURVE",
"381 70 CURVE SMOOTH",
"389 112 LINE",
"386 112 LINE",
"343 29 OFFCURVE",
"294 -12 OFFCURVE",
"214 -12 CURVE SMOOTH",
"165 -12 OFFCURVE",
"125 8 OFFCURVE",
"98 41 CURVE SMOOTH",
"70 74 OFFCURVE",
"55 122 OFFCURVE",
"55 181 CURVE SMOOTH",
"55 264 OFFCURVE",
"76 350 OFFCURVE",
"118 415 CURVE SMOOTH",
"160 479 OFFCURVE",
"222 524 OFFCURVE",
"305 524 CURVE SMOOTH",
"377 524 OFFCURVE",
"432 489 OFFCURVE",
"449 425 CURVE",
"452 425 LINE",
"469 512 LINE",
"524 512 LINE",
"432 49 LINE",
"510 49 LINE",
"500 0 LINE"
);
},
{
closed = 1;
nodes = (
"270 38 OFFCURVE",
"303 54 OFFCURVE",
"335 85 CURVE",
"371 117 OFFCURVE",
"400 162 OFFCURVE",
"411 222 CURVE SMOOTH",
"435 341 LINE SMOOTH",
"442 373 OFFCURVE",
"436 407 OFFCURVE",
"416 432 CURVE SMOOTH",
"396 457 OFFCURVE",
"361 474 OFFCURVE",
"310 474 CURVE SMOOTH",
"214 474 OFFCURVE",
"151 407 OFFCURVE",
"128 294 CURVE SMOOTH",
"116 234 LINE",
"113 215 OFFCURVE",
"111 198 OFFCURVE",
"111 175 CURVE SMOOTH",
"111 136 OFFCURVE",
"119 102 OFFCURVE",
"139 78 CURVE",
"158 53 OFFCURVE",
"187 38 OFFCURVE",
"227 38 CURVE SMOOTH"
);
},
{
closed = 1;
nodes = (
"494 702 LINE",
"460 722 LINE",
"578 885 LINE",
"626 859 LINE"
);
},
{
closed = 1;
nodes = (
"403 741 LINE",
"495 608 LINE",
"464 585 LINE",
"366 703 LINE",
"229 585 LINE",
"199 609 LINE",
"336 741 LINE"
);
}
);
width = 577;
}
);
leftKerningGroup = a;
rightKerningGroup = a;
unicode = 1EA5;
},
{
glyphname = uni1EAD;
layers = (
{
layerId = "FA36DF9C-9258-4115-A391-0F6A4D75F819";
name = "Light Italic";
paths = (
{
closed = 1;
nodes = (
"428 0 LINE SMOOTH",
"393 0 OFFCURVE",
"378 18 OFFCURVE",
"378 45 CURVE SMOOTH",
"378 52 OFFCURVE",
"379 61 OFFCURVE",
"381 70 CURVE SMOOTH",
"389 112 LINE",
"386 112 LINE",
"343 29 OFFCURVE",
"294 -12 OFFCURVE",
"214 -12 CURVE SMOOTH",
"165 -12 OFFCURVE",
"125 8 OFFCURVE",
"98 41 CURVE SMOOTH",
"70 74 OFFCURVE",
"55 122 OFFCURVE",
"55 181 CURVE SMOOTH",
"55 264 OFFCURVE",
"76 350 OFFCURVE",
"118 415 CURVE SMOOTH",
"160 479 OFFCURVE",
"222 524 OFFCURVE",
"305 524 CURVE SMOOTH",
"377 524 OFFCURVE",
"432 489 OFFCURVE",
"449 425 CURVE",
"452 425 LINE",
"469 512 LINE",
"524 512 LINE",
"432 49 LINE",
"510 49 LINE",
"500 0 LINE"
);
},
{
closed = 1;
nodes = (
"270 38 OFFCURVE",
"303 54 OFFCURVE",
"335 85 CURVE",
"371 117 OFFCURVE",
"400 162 OFFCURVE",
"411 222 CURVE SMOOTH",
"435 341 LINE SMOOTH",
"442 373 OFFCURVE",
"436 407 OFFCURVE",
"416 432 CURVE SMOOTH",
"396 457 OFFCURVE",
"361 474 OFFCURVE",
"310 474 CURVE SMOOTH",
"214 474 OFFCURVE",
"151 407 OFFCURVE",
"128 294 CURVE SMOOTH",
"116 234 LINE",
"113 215 OFFCURVE",
"111 198 OFFCURVE",
"111 175 CURVE SMOOTH",
"111 136 OFFCURVE",
"119 102 OFFCURVE",
"139 78 CURVE",
"158 53 OFFCURVE",
"187 38 OFFCURVE",
"227 38 CURVE SMOOTH"
);
},
{
closed = 1;
nodes = (
"404 756 LINE",
"496 617 LINE",
"464 594 LINE",
"366 714 LINE",
"224 594 LINE",
"195 618 LINE",
"338 756 LINE"
);
},
{
closed = 1;
nodes = (
"194 -155 OFFCURVE",
"183 -146 OFFCURVE",
"183 -127 CURVE SMOOTH",
"183 -122 OFFCURVE",
"183 -118 OFFCURVE",
"186 -109 CURVE",
"191 -86 OFFCURVE",
"203 -73 OFFCURVE",
"230 -73 CURVE SMOOTH",
"253 -73 OFFCURVE",
"264 -82 OFFCURVE",
"264 -101 CURVE SMOOTH",
"264 -108 OFFCURVE",
"260 -133 OFFCURVE",
"247 -145 CURVE",
"240 -152 OFFCURVE",
"230 -155 OFFCURVE",
"217 -155 CURVE SMOOTH"
);
}
);
width = 577;
}
);
leftKerningGroup = a;
rightKerningGroup = a;
unicode = 1EAD;
},
{
glyphname = uni1EA7;
layers = (
{
layerId = "FA36DF9C-9258-4115-A391-0F6A4D75F819";
name = "Light Italic";
paths = (
{
closed = 1;
nodes = (
"428 0 LINE SMOOTH",
"393 0 OFFCURVE",
"378 18 OFFCURVE",
"378 45 CURVE SMOOTH",
"378 52 OFFCURVE",
"379 61 OFFCURVE",
"381 70 CURVE SMOOTH",
"389 112 LINE",
"386 112 LINE",
"343 29 OFFCURVE",
"294 -12 OFFCURVE",
"214 -12 CURVE SMOOTH",
"165 -12 OFFCURVE",
"125 8 OFFCURVE",
"98 41 CURVE SMOOTH",
"70 74 OFFCURVE",
"55 122 OFFCURVE",
"55 181 CURVE SMOOTH",
"55 264 OFFCURVE",
"76 350 OFFCURVE",
"118 415 CURVE SMOOTH",
"160 479 OFFCURVE",
"222 524 OFFCURVE",
"305 524 CURVE SMOOTH",
"377 524 OFFCURVE",
"432 489 OFFCURVE",
"449 425 CURVE",
"452 425 LINE",
"469 512 LINE",
"524 512 LINE",
"432 49 LINE",
"510 49 LINE",
"500 0 LINE"
);
},
{
closed = 1;
nodes = (
"270 38 OFFCURVE",
"303 54 OFFCURVE",
"335 85 CURVE",
"371 117 OFFCURVE",
"400 162 OFFCURVE",
"411 222 CURVE SMOOTH",
"435 341 LINE SMOOTH",
"442 373 OFFCURVE",
"436 407 OFFCURVE",
"416 432 CURVE SMOOTH",
"396 457 OFFCURVE",
"361 474 OFFCURVE",
"310 474 CURVE SMOOTH",
"214 474 OFFCURVE",
"151 407 OFFCURVE",
"128 294 CURVE SMOOTH",
"116 234 LINE",
"113 215 OFFCURVE",
"111 198 OFFCURVE",
"111 175 CURVE SMOOTH",
"111 136 OFFCURVE",
"119 102 OFFCURVE",
"139 78 CURVE",
"158 53 OFFCURVE",
"187 38 OFFCURVE",
"227 38 CURVE SMOOTH"
);
},
{
closed = 1;
nodes = (
"137 856 LINE",
"186 879 LINE",
"255 715 LINE",
"222 699 LINE"
);
},
{
closed = 1;
nodes = (
"402 741 LINE",
"495 608 LINE",
"464 585 LINE",
"365 703 LINE",
"228 585 LINE",
"198 609 LINE",
"335 741 LINE"
);
}
);
width = 577;
}
);
leftKerningGroup = a;
rightKerningGroup = a;
unicode = 1EA7;
},
{
glyphname = uni1EA9;
layers = (
{
layerId = "FA36DF9C-9258-4115-A391-0F6A4D75F819";
name = "Light Italic";
paths = (
{
closed = 1;
nodes = (
"428 0 LINE SMOOTH",
"393 0 OFFCURVE",
"378 18 OFFCURVE",
"378 45 CURVE SMOOTH",
"378 52 OFFCURVE",
"379 61 OFFCURVE",
"381 70 CURVE SMOOTH",
"389 112 LINE",
"386 112 LINE",
"343 29 OFFCURVE",
"294 -12 OFFCURVE",
"214 -12 CURVE SMOOTH",
"165 -12 OFFCURVE",
"125 8 OFFCURVE",
"98 41 CURVE SMOOTH",
"70 74 OFFCURVE",
"55 122 OFFCURVE",
"55 181 CURVE SMOOTH",
"55 264 OFFCURVE",
"76 350 OFFCURVE",
"118 415 CURVE SMOOTH",
"160 479 OFFCURVE",
"222 524 OFFCURVE",
"305 524 CURVE SMOOTH",
"377 524 OFFCURVE",
"432 489 OFFCURVE",
"449 425 CURVE",
"452 425 LINE",
"469 512 LINE",
"524 512 LINE",
"432 49 LINE",
"510 49 LINE",
"500 0 LINE"
);
},
{
closed = 1;
nodes = (
"270 38 OFFCURVE",
"303 54 OFFCURVE",
"335 85 CURVE",
"371 117 OFFCURVE",
"400 162 OFFCURVE",
"411 222 CURVE SMOOTH",
"435 341 LINE SMOOTH",
"442 373 OFFCURVE",
"436 407 OFFCURVE",
"416 432 CURVE SMOOTH",
"396 457 OFFCURVE",
"361 474 OFFCURVE",
"310 474 CURVE SMOOTH",
"214 474 OFFCURVE",
"151 407 OFFCURVE",
"128 294 CURVE SMOOTH",
"116 234 LINE",
"113 215 OFFCURVE",
"111 198 OFFCURVE",
"111 175 CURVE SMOOTH",
"111 136 OFFCURVE",
"119 102 OFFCURVE",
"139 78 CURVE",
"158 53 OFFCURVE",
"187 38 OFFCURVE",
"227 38 CURVE SMOOTH"
);
},
{
closed = 1;
nodes = (
"423 867 LINE",
"540 867 LINE SMOOTH",
"576 867 OFFCURVE",
"586 850 OFFCURVE",
"586 831 CURVE SMOOTH",
"586 807 OFFCURVE",
"567 785 OFFCURVE",
"534 744 CURVE SMOOTH",
"492 693 LINE",
"461 711 LINE",
"544 826 LINE",
"416 826 LINE"
);
},
{
closed = 1;
nodes = (
"402 741 LINE",
"495 608 LINE",
"464 585 LINE",
"365 703 LINE",
"228 585 LINE",
"198 609 LINE",
"335 741 LINE"
);
}
);
width = 577;
}
);
leftKerningGroup = a;
rightKerningGroup = a;
unicode = 1EA9;
},
{
glyphname = uni1EAB;
layers = (
{
layerId = "FA36DF9C-9258-4115-A391-0F6A4D75F819";
name = "Light Italic";
paths = (
{
closed = 1;
nodes = (
"428 0 LINE SMOOTH",
"393 0 OFFCURVE",
"378 18 OFFCURVE",
"378 45 CURVE SMOOTH",
"378 52 OFFCURVE",
"379 61 OFFCURVE",
"381 70 CURVE SMOOTH",
"389 112 LINE",
"386 112 LINE",
"343 29 OFFCURVE",
"294 -12 OFFCURVE",
"214 -12 CURVE SMOOTH",
"165 -12 OFFCURVE",
"125 8 OFFCURVE",
"98 41 CURVE SMOOTH",
"70 74 OFFCURVE",
"55 122 OFFCURVE",
"55 181 CURVE SMOOTH",
"55 264 OFFCURVE",
"76 350 OFFCURVE",
"118 415 CURVE SMOOTH",
"160 479 OFFCURVE",
"222 524 OFFCURVE",
"305 524 CURVE SMOOTH",
"377 524 OFFCURVE",
"432 489 OFFCURVE",
"449 425 CURVE",
"452 425 LINE",
"469 512 LINE",
"524 512 LINE",
"432 49 LINE",
"510 49 LINE",
"500 0 LINE"
);
},
{
closed = 1;
nodes = (
"270 38 OFFCURVE",
"303 54 OFFCURVE",
"335 85 CURVE",
"371 117 OFFCURVE",
"400 162 OFFCURVE",
"411 222 CURVE SMOOTH",
"435 341 LINE SMOOTH",
"442 373 OFFCURVE",
"436 407 OFFCURVE",
"416 432 CURVE SMOOTH",
"396 457 OFFCURVE",
"361 474 OFFCURVE",
"310 474 CURVE SMOOTH",
"214 474 OFFCURVE",
"151 407 OFFCURVE",
"128 294 CURVE SMOOTH",
"116 234 LINE",
"113 215 OFFCURVE",
"111 198 OFFCURVE",
"111 175 CURVE SMOOTH",
"111 136 OFFCURVE",
"119 102 OFFCURVE",
"139 78 CURVE",
"158 53 OFFCURVE",
"187 38 OFFCURVE",
"227 38 CURVE SMOOTH"
);
},
{
closed = 1;
nodes = (
"343 869 OFFCURVE",
"362 857 OFFCURVE",
"386 841 CURVE SMOOTH",
"413 822 OFFCURVE",
"431 817 OFFCURVE",
"450 817 CURVE SMOOTH",
"473 817 OFFCURVE",
"491 827 OFFCURVE",
"514 846 CURVE",
"535 819 LINE",
"510 791 OFFCURVE",
"481 771 OFFCURVE",
"442 771 CURVE SMOOTH",
"411 771 OFFCURVE",
"392 783 OFFCURVE",
"368 799 CURVE SMOOTH",
"341 818 OFFCURVE",
"323 823 OFFCURVE",
"304 823 CURVE SMOOTH",
"281 823 OFFCURVE",
"263 813 OFFCURVE",
"240 794 CURVE",
"219 821 LINE",
"244 849 OFFCURVE",
"273 869 OFFCURVE",
"312 869 CURVE SMOOTH"
);
},
{
closed = 1;
nodes = (
"402 741 LINE",
"495 608 LINE",
"464 585 LINE",
"365 703 LINE",
"228 585 LINE",
"198 609 LINE",
"335 741 LINE"
);
}
);
width = 577;
}
);
leftKerningGroup = a;
rightKerningGroup = a;
unicode = 1EAB;
},
{
glyphname = ae;
layers = (
{
layerId = "FA36DF9C-9258-4115-A391-0F6A4D75F819";
name = "Light Italic";
paths = (
{
closed = 1;
nodes = (
"232 37 OFFCURVE",
"270 48 OFFCURVE",
"301 68 CURVE SMOOTH",
"332 88 OFFCURVE",
"354 118 OFFCURVE",
"361 155 CURVE SMOOTH",
"377 234 LINE",
"246 229 LINE SMOOTH",
"155 224 OFFCURVE",
"104 204 OFFCURVE",
"93 152 CURVE",
"90 140 OFFCURVE",
"89 131 OFFCURVE",
"89 126 CURVE",
"88 121 OFFCURVE",
"88 116 OFFCURVE",
"88 112 CURVE SMOOTH",
"88 65 OFFCURVE",
"124 37 OFFCURVE",
"192 37 CURVE SMOOTH"
);
},
{
closed = 1;
nodes = (
"582 476 OFFCURVE",
"540 458 OFFCURVE",
"508 426 CURVE SMOOTH",
"475 394 OFFCURVE",
"453 349 OFFCURVE",
"442 296 CURVE",
"439 277 LINE",
"564 280 OFFCURVE",
"639 293 OFFCURVE",
"683 313 CURVE SMOOTH",
"727 332 OFFCURVE",
"739 359 OFFCURVE",
"739 390 CURVE SMOOTH",
"739 453 OFFCURVE",
"695 476 OFFCURVE",
"631 476 CURVE SMOOTH"
);
},
{
closed = 1;
nodes = (
"86 -12 OFFCURVE",
"32 32 OFFCURVE",
"32 115 CURVE SMOOTH",
"32 215 OFFCURVE",
"100 263 OFFCURVE",
"249 270 CURVE SMOOTH",
"386 276 LINE",
"397 339 LINE",
"400 350 OFFCURVE",
"401 363 OFFCURVE",
"401 376 CURVE SMOOTH",
"401 435 OFFCURVE",
"367 474 OFFCURVE",
"284 474 CURVE SMOOTH",
"212 474 OFFCURVE",
"171 447 OFFCURVE",
"134 392 CURVE",
"98 423 LINE",
"135 483 OFFCURVE",
"197 524 OFFCURVE",
"292 524 CURVE SMOOTH",
"384 524 OFFCURVE",
"429 479 OFFCURVE",
"441 415 CURVE",
"446 415 LINE",
"489 483 OFFCURVE",
"553 524 OFFCURVE",
"634 524 CURVE SMOOTH",
"678 524 OFFCURVE",
"718 514 OFFCURVE",
"748 492 CURVE SMOOTH",
"778 470 OFFCURVE",
"796 437 OFFCURVE",
"796 394 CURVE SMOOTH",
"796 345 OFFCURVE",
"772 306 OFFCURVE",
"715 279 CURVE SMOOTH",
"658 251 OFFCURVE",
"567 235 OFFCURVE",
"432 234 CURVE",
"429 218 OFFCURVE",
"427 199 OFFCURVE",
"427 180 CURVE SMOOTH",
"427 96 OFFCURVE",
"474 37 OFFCURVE",
"563 37 CURVE SMOOTH",
"635 37 OFFCURVE",
"692 76 OFFCURVE",
"733 136 CURVE",
"771 106 LINE",
"711 21 OFFCURVE",
"639 -12 OFFCURVE",
"559 -12 CURVE SMOOTH",
"468 -12 OFFCURVE",
"407 32 OFFCURVE",
"386 111 CURVE",
"380 111 LINE",
"348 32 OFFCURVE",
"272 -12 OFFCURVE",
"181 -12 CURVE SMOOTH"
);
}
);
width = 827;
}
);
leftKerningGroup = ae;
rightKerningGroup = e;
unicode = 00E6;
},
{
glyphname = aeacute;
layers = (
{
layerId = "FA36DF9C-9258-4115-A391-0F6A4D75F819";
name = "Light Italic";
paths = (
{
closed = 1;
nodes = (
"232 37 OFFCURVE",
"270 48 OFFCURVE",
"301 68 CURVE SMOOTH",
"332 88 OFFCURVE",
"354 118 OFFCURVE",
"361 155 CURVE SMOOTH",
"377 234 LINE",
"246 229 LINE SMOOTH",
"155 224 OFFCURVE",
"104 204 OFFCURVE",
"93 152 CURVE",
"90 140 OFFCURVE",
"89 131 OFFCURVE",
"89 126 CURVE",
"88 121 OFFCURVE",
"88 116 OFFCURVE",
"88 112 CURVE SMOOTH",
"88 65 OFFCURVE",
"124 37 OFFCURVE",
"192 37 CURVE SMOOTH"
);
},
{
closed = 1;
nodes = (
"582 476 OFFCURVE",
"540 458 OFFCURVE",
"508 426 CURVE SMOOTH",
"475 394 OFFCURVE",
"453 349 OFFCURVE",
"442 296 CURVE",
"439 277 LINE",
"564 280 OFFCURVE",
"639 293 OFFCURVE",
"683 313 CURVE SMOOTH",
"727 332 OFFCURVE",
"739 359 OFFCURVE",
"739 390 CURVE SMOOTH",
"739 453 OFFCURVE",
"695 476 OFFCURVE",
"631 476 CURVE SMOOTH"
);
},
{
closed = 1;
nodes = (
"86 -12 OFFCURVE",
"32 32 OFFCURVE",
"32 115 CURVE SMOOTH",
"32 215 OFFCURVE",
"100 263 OFFCURVE",
"249 270 CURVE SMOOTH",
"386 276 LINE",
"397 339 LINE",
"400 350 OFFCURVE",
"401 363 OFFCURVE",
"401 376 CURVE SMOOTH",
"401 435 OFFCURVE",
"367 474 OFFCURVE",
"284 474 CURVE SMOOTH",
"212 474 OFFCURVE",
"171 447 OFFCURVE",
"134 392 CURVE",
"98 423 LINE",
"135 483 OFFCURVE",
"197 524 OFFCURVE",
"292 524 CURVE SMOOTH",
"384 524 OFFCURVE",
"429 479 OFFCURVE",
"441 415 CURVE",
"446 415 LINE",
"489 483 OFFCURVE",
"553 524 OFFCURVE",
"634 524 CURVE SMOOTH",
"678 524 OFFCURVE",
"718 514 OFFCURVE",
"748 492 CURVE SMOOTH",
"778 470 OFFCURVE",
"796 437 OFFCURVE",
"796 394 CURVE SMOOTH",
"796 345 OFFCURVE",
"772 306 OFFCURVE",
"715 279 CURVE SMOOTH",
"658 251 OFFCURVE",
"567 235 OFFCURVE",
"432 234 CURVE",
"429 218 OFFCURVE",
"427 199 OFFCURVE",
"427 180 CURVE SMOOTH",
"427 96 OFFCURVE",
"474 37 OFFCURVE",
"563 37 CURVE SMOOTH",
"635 37 OFFCURVE",
"692 76 OFFCURVE",
"733 136 CURVE",
"771 106 LINE",
"711 21 OFFCURVE",
"639 -12 OFFCURVE",
"559 -12 CURVE SMOOTH",
"468 -12 OFFCURVE",
"407 32 OFFCURVE",
"386 111 CURVE",
"380 111 LINE",
"348 32 OFFCURVE",
"272 -12 OFFCURVE",
"181 -12 CURVE SMOOTH"
);
},
{
closed = 1;
nodes = (
"478 586 LINE",
"443 605 LINE",
"563 769 LINE",
"611 742 LINE"
);
}
);
width = 827;
}
);
leftKerningGroup = ae;
rightKerningGroup = e;
unicode = 01FD;
},
{
glyphname = cacute;
layers = (
{
layerId = "FA36DF9C-9258-4115-A391-0F6A4D75F819";
name = "Light Italic";
paths = (
{
closed = 1;
nodes = (
"174 -12 OFFCURVE",
"130 9 OFFCURVE",
"100 45 CURVE SMOOTH",
"70 81 OFFCURVE",
"54 133 OFFCURVE",
"54 194 CURVE SMOOTH",
"54 285 OFFCURVE",
"78 367 OFFCURVE",
"120 427 CURVE SMOOTH",
"162 487 OFFCURVE",
"223 524 OFFCURVE",
"302 524 CURVE SMOOTH",
"389 524 OFFCURVE",
"447 476 OFFCURVE",
"464 405 CURVE",
"418 386 LINE",
"401 445 OFFCURVE",
"362 475 OFFCURVE",
"300 475 CURVE SMOOTH",
"209 475 OFFCURVE",
"147 410 OFFCURVE",
"127 306 CURVE SMOOTH",
"113 236 LINE",
"110 217 OFFCURVE",
"108 201 OFFCURVE",
"108 184 CURVE SMOOTH",
"108 100 OFFCURVE",
"149 37 OFFCURVE",
"236 37 CURVE SMOOTH",
"297 37 OFFCURVE",
"344 69 OFFCURVE",
"387 144 CURVE",
"431 123 LINE",
"386 39 OFFCURVE",
"319 -12 OFFCURVE",
"231 -12 CURVE SMOOTH"
);
},
{
closed = 1;
nodes = (
"318 586 LINE",
"283 605 LINE",
"403 769 LINE",
"451 742 LINE"
);
}
);
width = 484;
}
);
leftKerningGroup = c;
rightKerningGroup = c;
unicode = 0107;
},
{
glyphname = ccaron;
layers = (
{
layerId = "FA36DF9C-9258-4115-A391-0F6A4D75F819";
name = "Light Italic";
paths = (
{
closed = 1;
nodes = (
"174 -12 OFFCURVE",
"130 9 OFFCURVE",
"100 45 CURVE SMOOTH",
"70 81 OFFCURVE",
"54 133 OFFCURVE",
"54 194 CURVE SMOOTH",
"54 285 OFFCURVE",
"78 367 OFFCURVE",
"120 427 CURVE SMOOTH",
"162 487 OFFCURVE",
"223 524 OFFCURVE",
"302 524 CURVE SMOOTH",
"389 524 OFFCURVE",
"447 476 OFFCURVE",
"464 405 CURVE",
"418 386 LINE",
"401 445 OFFCURVE",
"362 475 OFFCURVE",
"300 475 CURVE SMOOTH",
"209 475 OFFCURVE",
"147 410 OFFCURVE",
"127 306 CURVE SMOOTH",
"113 236 LINE",
"110 217 OFFCURVE",
"108 201 OFFCURVE",
"108 184 CURVE SMOOTH",
"108 100 OFFCURVE",
"149 37 OFFCURVE",
"236 37 CURVE SMOOTH",
"297 37 OFFCURVE",
"344 69 OFFCURVE",
"387 144 CURVE",
"431 123 LINE",
"386 39 OFFCURVE",
"319 -12 OFFCURVE",
"231 -12 CURVE SMOOTH"
);
},
{
closed = 1;
nodes = (
"287 601 LINE",
"195 740 LINE",
"228 763 LINE",
"323 643 LINE",
"467 763 LINE",
"497 739 LINE",
"354 601 LINE"
);
}
);
width = 484;
}
);
leftKerningGroup = c;
rightKerningGroup = c;
unicode = 010D;
},
{
glyphname = ccedilla;
layers = (
{
layerId = "FA36DF9C-9258-4115-A391-0F6A4D75F819";
name = "Light Italic";
paths = (
{
closed = 1;
nodes = (
"389 524 OFFCURVE",
"447 476 OFFCURVE",
"464 405 CURVE",
"418 386 LINE",
"401 445 OFFCURVE",
"362 475 OFFCURVE",
"300 475 CURVE SMOOTH",
"209 475 OFFCURVE",
"147 410 OFFCURVE",
"127 306 CURVE SMOOTH",
"113 236 LINE",
"110 217 OFFCURVE",
"108 201 OFFCURVE",
"108 184 CURVE SMOOTH",
"108 100 OFFCURVE",
"149 37 OFFCURVE",
"236 37 CURVE SMOOTH",
"297 37 OFFCURVE",
"344 69 OFFCURVE",
"387 144 CURVE",
"431 123 LINE",
"388 43 OFFCURVE",
"328 -6 OFFCURVE",
"245 -11 CURVE",
"225 -66 LINE",
"227 -68 LINE",
"235 -67 OFFCURVE",
"245 -65 OFFCURVE",
"257 -65 CURVE SMOOTH",
"292 -65 OFFCURVE",
"316 -81 OFFCURVE",
"316 -120 CURVE SMOOTH",
"316 -169 OFFCURVE",
"274 -205 OFFCURVE",
"213 -205 CURVE SMOOTH",
"168 -205 OFFCURVE",
"137 -189 OFFCURVE",
"122 -170 CURVE",
"152 -140 LINE",
"163 -155 OFFCURVE",
"183 -166 OFFCURVE",
"212 -166 CURVE SMOOTH",
"247 -166 OFFCURVE",
"268 -148 OFFCURVE",
"268 -121 CURVE SMOOTH",
"268 -98 OFFCURVE",
"255 -86 OFFCURVE",
"215 -82 CURVE SMOOTH",
"184 -79 LINE",
"209 -11 LINE",
"109 0 OFFCURVE",
"54 79 OFFCURVE",
"54 194 CURVE SMOOTH",
"54 285 OFFCURVE",
"78 367 OFFCURVE",
"120 427 CURVE SMOOTH",
"162 487 OFFCURVE",
"223 524 OFFCURVE",
"302 524 CURVE SMOOTH"
);
}
);
width = 484;
}
);
leftKerningGroup = c;
rightKerningGroup = c;
unicode = 00E7;
},
{
glyphname = ccircumflex;
layers = (
{
layerId = "FA36DF9C-9258-4115-A391-0F6A4D75F819";
name = "Light Italic";
paths = (
{
closed = 1;
nodes = (
"174 -12 OFFCURVE",
"130 9 OFFCURVE",
"100 45 CURVE SMOOTH",
"70 81 OFFCURVE",
"54 133 OFFCURVE",
"54 194 CURVE SMOOTH",
"54 285 OFFCURVE",
"78 367 OFFCURVE",
"120 427 CURVE SMOOTH",
"162 487 OFFCURVE",
"223 524 OFFCURVE",
"302 524 CURVE SMOOTH",
"389 524 OFFCURVE",
"447 476 OFFCURVE",
"464 405 CURVE",
"418 386 LINE",
"401 445 OFFCURVE",
"362 475 OFFCURVE",
"300 475 CURVE SMOOTH",
"209 475 OFFCURVE",
"147 410 OFFCURVE",
"127 306 CURVE SMOOTH",
"113 236 LINE",
"110 217 OFFCURVE",
"108 201 OFFCURVE",
"108 184 CURVE SMOOTH",
"108 100 OFFCURVE",
"149 37 OFFCURVE",
"236 37 CURVE SMOOTH",
"297 37 OFFCURVE",
"344 69 OFFCURVE",
"387 144 CURVE",
"431 123 LINE",
"386 39 OFFCURVE",
"319 -12 OFFCURVE",
"231 -12 CURVE SMOOTH"
);
},
{
closed = 1;
nodes = (
"379 756 LINE",
"471 617 LINE",
"439 594 LINE",
"341 714 LINE",
"199 594 LINE",
"170 618 LINE",
"313 756 LINE"
);
}
);
width = 484;
}
);
leftKerningGroup = c;
rightKerningGroup = c;
unicode = 0109;
},
{
glyphname = cdotaccent;
layers = (
{
layerId = "FA36DF9C-9258-4115-A391-0F6A4D75F819";
name = "Light Italic";
paths = (
{
closed = 1;
nodes = (
"174 -12 OFFCURVE",
"130 9 OFFCURVE",
"100 45 CURVE SMOOTH",
"70 81 OFFCURVE",
"54 133 OFFCURVE",
"54 194 CURVE SMOOTH",
"54 285 OFFCURVE",
"78 367 OFFCURVE",
"120 427 CURVE SMOOTH",
"162 487 OFFCURVE",
"223 524 OFFCURVE",
"302 524 CURVE SMOOTH",
"389 524 OFFCURVE",
"447 476 OFFCURVE",
"464 405 CURVE",
"418 386 LINE",
"401 445 OFFCURVE",
"362 475 OFFCURVE",
"300 475 CURVE SMOOTH",
"209 475 OFFCURVE",
"147 410 OFFCURVE",
"127 306 CURVE SMOOTH",
"113 236 LINE",
"110 217 OFFCURVE",
"108 201 OFFCURVE",
"108 184 CURVE SMOOTH",
"108 100 OFFCURVE",
"149 37 OFFCURVE",
"236 37 CURVE SMOOTH",
"297 37 OFFCURVE",
"344 69 OFFCURVE",
"387 144 CURVE",
"431 123 LINE",
"386 39 OFFCURVE",
"319 -12 OFFCURVE",
"231 -12 CURVE SMOOTH"
);
},
{
closed = 1;
nodes = (
"302 626 OFFCURVE",
"293 639 OFFCURVE",
"293 654 CURVE SMOOTH",
"293 656 OFFCURVE",
"293 658 OFFCURVE",
"294 661 CURVE",
"294 664 OFFCURVE",
"295 669 OFFCURVE",
"296 676 CURVE",
"300 697 OFFCURVE",
"314 708 OFFCURVE",
"339 708 CURVE SMOOTH",
"364 708 OFFCURVE",
"373 695 OFFCURVE",
"373 680 CURVE SMOOTH",
"373 678 OFFCURVE",
"373 676 OFFCURVE",
"373 673 CURVE",
"372 670 OFFCURVE",
"371 665 OFFCURVE",
"370 658 CURVE",
"366 637 OFFCURVE",
"352 626 OFFCURVE",
"327 626 CURVE SMOOTH"
);
}
);
width = 484;
}
);
leftKerningGroup = c;
rightKerningGroup = c;
unicode = 010B;
},
{
glyphname = dcaron;
layers = (
{
layerId = "FA36DF9C-9258-4115-A391-0F6A4D75F819";
name = "Light Italic";
paths = (
{
closed = 1;
nodes = (
"428 0 LINE SMOOTH",
"393 0 OFFCURVE",
"378 18 OFFCURVE",
"378 45 CURVE SMOOTH",
"378 52 OFFCURVE",
"379 60 OFFCURVE",
"381 70 CURVE SMOOTH",
"389 112 LINE",
"386 112 LINE",
"343 29 OFFCURVE",
"294 -12 OFFCURVE",
"214 -12 CURVE SMOOTH",
"165 -12 OFFCURVE",
"125 8 OFFCURVE",
"98 41 CURVE SMOOTH",
"70 74 OFFCURVE",
"55 122 OFFCURVE",
"55 181 CURVE SMOOTH",
"55 264 OFFCURVE",
"76 350 OFFCURVE",
"118 415 CURVE SMOOTH",
"160 479 OFFCURVE",
"222 524 OFFCURVE",
"305 524 CURVE SMOOTH",
"377 524 OFFCURVE",
"432 489 OFFCURVE",
"449 425 CURVE",
"452 425 LINE",
"515 740 LINE",
"570 740 LINE",
"432 49 LINE",
"510 49 LINE",
"500 0 LINE"
);
},
{
closed = 1;
nodes = (
"270 38 OFFCURVE",
"303 54 OFFCURVE",
"335 85 CURVE",
"371 117 OFFCURVE",
"400 162 OFFCURVE",
"411 222 CURVE SMOOTH",
"435 341 LINE SMOOTH",
"442 373 OFFCURVE",
"436 407 OFFCURVE",
"416 432 CURVE SMOOTH",
"396 457 OFFCURVE",
"361 474 OFFCURVE",
"310 474 CURVE SMOOTH",
"214 474 OFFCURVE",
"151 407 OFFCURVE",
"128 294 CURVE SMOOTH",
"116 234 LINE",
"113 215 OFFCURVE",
"111 198 OFFCURVE",
"111 175 CURVE SMOOTH",
"111 136 OFFCURVE",
"119 102 OFFCURVE",
"139 78 CURVE",
"158 53 OFFCURVE",
"187 38 OFFCURVE",
"227 38 CURVE SMOOTH"
);
},
{
closed = 1;
nodes = (
"641 559 LINE",
"602 559 LINE",
"641 740 LINE",
"708 740 LINE"
);
}
);
width = 577;
}
);
leftKerningGroup = a;
rightKerningGroup = dcaron;
unicode = 010F;
},
